<?xml version="1.0" encoding="utf-8"?>
<svg version="1.1" xmlns:xlink="http://www.w3.org/1999/xlink" width="15px" height="23px" xmlns="http://www.w3.org/2000/svg">
  <g transform="matrix(1 0 0 1 -368 -1794 )">
    <path d="M 15 3.28163771712159  C 15 3.52894954507858  14.9083011583012 3.7429693961952  14.7249034749035 3.92369727047146  L 7.03667953667954 11.5  L 14.7249034749035 19.0763027295285  C 14.9083011583012 19.2570306038048  15 19.4710504549214  15 19.7183622828784  C 15 19.9656741108354  14.9083011583012 20.179693961952  14.7249034749035 20.3604218362283  L 12.3214285714286 22.7289081885856  C 12.1380308880309 22.9096360628619  11.9208494208494 23  11.6698841698842 23  C 11.4189189189189 23  11.2017374517375 22.9096360628619  11.0183397683398 22.7289081885856  L 0.275096525096525 12.1420595533499  C 0.0916988416988418 11.9613316790736  0 11.747311827957  0 11.5  C 0 11.252688172043  0.0916988416988418 11.0386683209264  0.275096525096525 10.8579404466501  L 11.0183397683398 0.271091811414391  C 11.2017374517375 0.0903639371381296  11.4189189189189 0  11.6698841698842 0  C 11.9208494208494 0  12.1380308880309 0.0903639371381296  12.3214285714286 0.271091811414391  L 14.7249034749035 2.63957816377171  C 14.9083011583012 2.82030603804797  15 3.0343258891646  15 3.28163771712159  Z " fill-rule="nonzero" fill="#000000" stroke="none" transform="matrix(1 0 0 1 368 1794 )" />
  </g>
</svg>