<?xml version="1.0" encoding="utf-8"?>
<svg version="1.1" xmlns:xlink="http://www.w3.org/1999/xlink" width="25px" height="24px" xmlns="http://www.w3.org/2000/svg">
  <g transform="matrix(1 0 0 1 -1079 -1794 )">
    <path d="M 1079 1794  L 1104 1794  L 1104 1818  L 1079 1818  L 1079 1794  " fill-rule="nonzero" fill="#cccccc" stroke="none" />
    <path d="M 1081 1796  L 1102 1796  L 1102 1816  L 1081 1816  L 1081 1796  " fill-rule="nonzero" fill="#ffffff" stroke="none" />
    <path d="M 1093.8 1801.2  C 1092.792 1801.2  1092 1800.408  1092 1799.4  C 1092 1798.392  1092.792 1797.6  1093.8 1797.6  C 1094.808 1797.6  1095.6 1798.392  1095.6 1799.4  C 1095.6 1800.408  1094.808 1801.2  1093.8 1801.2  " fill-rule="nonzero" fill="#cccccc" stroke="none" />
    <path d="M 1082 1816  L 1082 1805.55  L 1087 1800.8  L 1094 1805.056  L 1098 1803.65  L 1102 1805.056  L 1102 1816  L 1082 1816  " fill-rule="nonzero" fill="#169bd5" stroke="none" />
  </g>
</svg>