<?xml version="1.0" encoding="utf-8"?>
<svg version="1.1" xmlns:xlink="http://www.w3.org/1999/xlink" width="38px" height="36px" xmlns="http://www.w3.org/2000/svg">
  <g transform="matrix(1 0 0 1 -1010 -331 )">
    <path d="M 37.1043771043771 26.9090909090909  C 37.7014590347924 27.4747474747475  38 28.1616161616162  38 28.969696969697  C 38 29.7777777777778  37.7014590347924 30.4646464646465  37.1043771043771 31.030303030303  L 32.7542087542088 35.1515151515151  C 32.1571268237935 35.7171717171717  31.4320987654321 36  30.5791245791246 36  C 29.7261503928171 36  29.0011223344557 35.7171717171717  28.4040404040404 35.1515151515151  L 19 26.2424242424242  L 9.5959595959596 35.1515151515151  C 8.99887766554433 35.7171717171717  8.27384960718294 36  7.42087542087542 36  C 6.5679012345679 36  5.84287317620651 35.7171717171717  5.24579124579125 35.1515151515151  L 0.895622895622896 31.030303030303  C 0.298540965207632 30.4646464646465  0 29.7777777777778  0 28.969696969697  C 0 28.1616161616162  0.298540965207632 27.4747474747475  0.895622895622896 26.9090909090909  L 10.2996632996633 18  L 0.895622895622896 9.09090909090909  C 0.298540965207632 8.52525252525252  0 7.83838383838384  0 7.03030303030303  C 0 6.22222222222222  0.298540965207632 5.53535353535353  0.895622895622896 4.96969696969697  L 5.24579124579125 0.848484848484849  C 5.84287317620651 0.282828282828282  6.5679012345679 0  7.42087542087542 0  C 8.27384960718294 0  8.99887766554433 0.282828282828282  9.5959595959596 0.848484848484849  L 19 9.75757575757576  L 28.4040404040404 0.848484848484849  C 29.0011223344557 0.282828282828282  29.7261503928171 0  30.5791245791246 0  C 31.4320987654321 0  32.1571268237935 0.282828282828282  32.7542087542088 0.848484848484849  L 37.1043771043771 4.96969696969697  C 37.7014590347924 5.53535353535353  38 6.22222222222222  38 7.03030303030303  C 38 7.83838383838384  37.7014590347924 8.52525252525252  37.1043771043771 9.09090909090909  L 27.7003367003367 18  L 37.1043771043771 26.9090909090909  Z " fill-rule="nonzero" fill="#000000" stroke="none" transform="matrix(1 0 0 1 1010 331 )" />
  </g>
</svg>