<?xml version="1.0" encoding="utf-8"?>
<svg version="1.1" xmlns:xlink="http://www.w3.org/1999/xlink" width="40px" height="50px" xmlns="http://www.w3.org/2000/svg">
  <defs>
    <filter x="1101px" y="107px" width="40px" height="50px" filterUnits="userSpaceOnUse" id="filter1">
      <feOffset dx="1" dy="1" in="SourceAlpha" result="shadowOffsetInner" />
      <feGaussianBlur stdDeviation="2.5" in="shadowOffsetInner" result="shadowGaussian" />
      <feComposite in2="shadowGaussian" operator="atop" in="SourceAlpha" result="shadowComposite" />
      <feColorMatrix type="matrix" values="0 0 0 0 0  0 0 0 0 0  0 0 0 0 0  0 0 0 0.698039215686274 0  " in="shadowComposite" />
    </filter>
    <g id="widget2">
      <path d="M 1120 150.036928468354  C 1114.2 140.40734059591  1105.5 134.629587872444  1105.5 125  C 1105.5 119.985714285714  1108.4 111.5  1120 111.5  C 1131.6 111.5  1134.5 119.985714285714  1134.5 125  C 1134.5 134.629587872444  1125.8 140.40734059591  1120 150.036928468354  Z " fill-rule="nonzero" fill="#009dd9" stroke="none" />
      <path d="M 1120 151  C 1114 141  1105 135  1105 125  C 1105 119.8  1108 111  1120 111  C 1132 111  1135 119.8  1135 125  C 1135 135  1126 141  1120 151  Z M 1120 149.073856936707  C 1125.6 139.81468119182  1134 134.259175744887  1134 125  C 1134 120.171428571429  1131.2 112  1120 112  C 1108.8 112  1106 120.171428571429  1106 125  C 1106 134.259175744887  1114.4 139.81468119182  1120 149.073856936707  Z " fill-rule="nonzero" fill="#ffffff" stroke="none" />
    </g>
  </defs>
  <g transform="matrix(1 0 0 1 -1101 -107 )">
    <use xlink:href="#widget2" filter="url(#filter1)" />
    <use xlink:href="#widget2" />
  </g>
</svg>