<?xml version="1.0" encoding="utf-8"?>
<svg version="1.1" xmlns:xlink="http://www.w3.org/1999/xlink" width="35px" height="43px" xmlns="http://www.w3.org/2000/svg">
  <defs>
    <filter x="1807px" y="297px" width="35px" height="43px" filterUnits="userSpaceOnUse" id="filter3">
      <feOffset dx="1" dy="1" in="SourceAlpha" result="shadowOffsetInner" />
      <feGaussianBlur stdDeviation="2.5" in="shadowOffsetInner" result="shadowGaussian" />
      <feComposite in2="shadowGaussian" operator="atop" in="SourceAlpha" result="shadowComposite" />
      <feColorMatrix type="matrix" values="0 0 0 0 0  0 0 0 0 0  0 0 0 0 0  0 0 0 0.698039215686274 0  " in="shadowComposite" />
    </filter>
    <g id="widget4">
      <path d="M 1823.5 333.043435708432  C 1818.7 325.161345051343  1811.5 320.432090657089  1811.5 312.55  C 1811.5 308.445714285714  1813.9 301.5  1823.5 301.5  C 1833.1 301.5  1835.5 308.445714285714  1835.5 312.55  C 1835.5 320.432090657089  1828.3 325.161345051343  1823.5 333.043435708432  Z " fill-rule="nonzero" fill="#009dd9" stroke="none" />
      <path d="M 1823.5 334  C 1818.5 325.75  1811 320.8  1811 312.55  C 1811 308.26  1813.5 301  1823.5 301  C 1833.5 301  1836 308.26  1836 312.55  C 1836 320.8  1828.5 325.75  1823.5 334  Z M 1823.5 332.086871416865  C 1828.1 324.572690102686  1835 320.064181314179  1835 312.55  C 1835 308.631428571429  1832.7 302  1823.5 302  C 1814.3 302  1812 308.631428571429  1812 312.55  C 1812 320.064181314179  1818.9 324.572690102686  1823.5 332.086871416865  Z " fill-rule="nonzero" fill="#ffffff" stroke="none" />
    </g>
  </defs>
  <g transform="matrix(1 0 0 1 -1807 -297 )">
    <use xlink:href="#widget4" filter="url(#filter3)" />
    <use xlink:href="#widget4" />
  </g>
</svg>