<?xml version="1.0" encoding="utf-8"?>
<svg version="1.1" xmlns:xlink="http://www.w3.org/1999/xlink" width="35px" height="43px" xmlns="http://www.w3.org/2000/svg">
  <defs>
    <filter x="3117px" y="322px" width="35px" height="43px" filterUnits="userSpaceOnUse" id="filter31">
      <feOffset dx="1" dy="1" in="SourceAlpha" result="shadowOffsetInner" />
      <feGaussianBlur stdDeviation="2.5" in="shadowOffsetInner" result="shadowGaussian" />
      <feComposite in2="shadowGaussian" operator="atop" in="SourceAlpha" result="shadowComposite" />
      <feColorMatrix type="matrix" values="0 0 0 0 0  0 0 0 0 0  0 0 0 0 0  0 0 0 0.698039215686274 0  " in="shadowComposite" />
    </filter>
    <g id="widget32">
      <path d="M 3133.5 358.043435708432  C 3128.7 350.161345051343  3121.5 345.432090657089  3121.5 337.55  C 3121.5 333.445714285714  3123.9 326.5  3133.5 326.5  C 3143.1 326.5  3145.5 333.445714285714  3145.5 337.55  C 3145.5 345.432090657089  3138.3 350.161345051343  3133.5 358.043435708432  Z " fill-rule="nonzero" fill="#009dd9" stroke="none" />
      <path d="M 3133.5 359  C 3128.5 350.75  3121 345.8  3121 337.55  C 3121 333.26  3123.5 326  3133.5 326  C 3143.5 326  3146 333.26  3146 337.55  C 3146 345.8  3138.5 350.75  3133.5 359  Z M 3133.5 357.086871416865  C 3138.1 349.572690102686  3145 345.064181314179  3145 337.55  C 3145 333.631428571429  3142.7 327  3133.5 327  C 3124.3 327  3122 333.631428571429  3122 337.55  C 3122 345.064181314179  3128.9 349.572690102686  3133.5 357.086871416865  Z " fill-rule="nonzero" fill="#ffffff" stroke="none" />
    </g>
  </defs>
  <g transform="matrix(1 0 0 1 -3117 -322 )">
    <use xlink:href="#widget32" filter="url(#filter31)" />
    <use xlink:href="#widget32" />
  </g>
</svg>