<?xml version="1.0" encoding="utf-8"?>
<svg version="1.1" xmlns:xlink="http://www.w3.org/1999/xlink" width="35px" height="43px" xmlns="http://www.w3.org/2000/svg">
  <defs>
    <filter x="2817px" y="311px" width="35px" height="43px" filterUnits="userSpaceOnUse" id="filter983">
      <feOffset dx="1" dy="1" in="SourceAlpha" result="shadowOffsetInner" />
      <feGaussianBlur stdDeviation="2.5" in="shadowOffsetInner" result="shadowGaussian" />
      <feComposite in2="shadowGaussian" operator="atop" in="SourceAlpha" result="shadowComposite" />
      <feColorMatrix type="matrix" values="0 0 0 0 0  0 0 0 0 0  0 0 0 0 0  0 0 0 0.698039215686274 0  " in="shadowComposite" />
    </filter>
    <g id="widget984">
      <path d="M 2833.5 347.043435708432  C 2828.7 339.161345051343  2821.5 334.432090657089  2821.5 326.55  C 2821.5 322.445714285714  2823.9 315.5  2833.5 315.5  C 2843.1 315.5  2845.5 322.445714285714  2845.5 326.55  C 2845.5 334.432090657089  2838.3 339.161345051343  2833.5 347.043435708432  Z " fill-rule="nonzero" fill="#009dd9" stroke="none" />
      <path d="M 2833.5 348  C 2828.5 339.75  2821 334.8  2821 326.55  C 2821 322.26  2823.5 315  2833.5 315  C 2843.5 315  2846 322.26  2846 326.55  C 2846 334.8  2838.5 339.75  2833.5 348  Z M 2833.5 346.086871416865  C 2838.1 338.572690102686  2845 334.064181314179  2845 326.55  C 2845 322.631428571429  2842.7 316  2833.5 316  C 2824.3 316  2822 322.631428571429  2822 326.55  C 2822 334.064181314179  2828.9 338.572690102686  2833.5 346.086871416865  Z " fill-rule="nonzero" fill="#ffffff" stroke="none" />
    </g>
  </defs>
  <g transform="matrix(1 0 0 1 -2817 -311 )">
    <use xlink:href="#widget984" filter="url(#filter983)" />
    <use xlink:href="#widget984" />
  </g>
</svg>