<?xml version="1.0" encoding="utf-8"?>
<svg version="1.1" xmlns:xlink="http://www.w3.org/1999/xlink" width="18px" height="24px" xmlns="http://www.w3.org/2000/svg">
  <g transform="matrix(1 0 0 1 -3206 -113 )">
    <path d="M 18 3.424317617866  C 18 3.68238213399504  17.8899613899614 3.90570719602977  17.6698841698842 4.09429280397022  L 8.44401544401544 12  L 17.6698841698842 19.9057071960298  C 17.8899613899614 20.0942928039702  18 20.317617866005  18 20.575682382134  C 18 20.833746898263  17.8899613899614 21.0570719602978  17.6698841698842 21.2456575682382  L 14.7857142857143 23.7171215880893  C 14.5656370656371 23.9057071960298  14.3050193050193 24  14.003861003861 24  C 13.7027027027027 24  13.4420849420849 23.9057071960298  13.2220077220077 23.7171215880893  L 0.33011583011583 12.6699751861042  C 0.11003861003861 12.4813895781638  0 12.258064516129  0 12  C 0 11.741935483871  0.11003861003861 11.5186104218362  0.33011583011583 11.3300248138958  L 13.2220077220077 0.282878411910669  C 13.4420849420849 0.0942928039702222  13.7027027027027 0  14.003861003861 0  C 14.3050193050193 0  14.5656370656371 0.0942928039702222  14.7857142857143 0.282878411910669  L 17.6698841698842 2.75434243176179  C 17.8899613899614 2.94292803970223  18 3.16625310173697  18 3.424317617866  Z " fill-rule="nonzero" fill="#000000" stroke="none" transform="matrix(1 0 0 1 3206 113 )" />
  </g>
</svg>