<?xml version="1.0" encoding="utf-8"?>
<svg version="1.1" xmlns:xlink="http://www.w3.org/1999/xlink" width="9px" height="12px" xmlns="http://www.w3.org/2000/svg">
  <g transform="matrix(1 0 0 1 -3650 -259 )">
    <path d="M 9 6  C 9 6.12903225806452  8.94498069498069 6.24069478908189  8.83494208494209 6.33498759305211  L 2.38899613899614 11.8585607940447  C 2.27895752895753 11.9528535980149  2.14864864864865 12  1.9980694980695 12  C 1.84749034749035 12  1.71718146718147 11.9528535980149  1.60714285714286 11.8585607940447  L 0.165057915057915 10.6228287841191  C 0.0550193050193051 10.5285359801489  0 10.4168734491315  0 10.287841191067  C 0 10.1588089330025  0.0550193050193051 10.0471464019851  0.165057915057915 9.95285359801489  L 4.77799227799228 6  L 0.165057915057915 2.04714640198511  C 0.0550193050193051 1.95285359801489  0 1.84119106699752  0 1.712158808933  C 0 1.58312655086848  0.0550193050193051 1.47146401985112  0.165057915057915 1.37717121588089  L 1.60714285714286 0.141439205955335  C 1.71718146718147 0.0471464019851111  1.84749034749035 0  1.9980694980695 0  C 2.14864864864865 0  2.27895752895753 0.0471464019851111  2.38899613899614 0.141439205955335  L 8.83494208494209 5.66501240694789  C 8.94498069498069 5.75930521091811  9 5.87096774193548  9 6  Z " fill-rule="nonzero" fill="#000000" stroke="none" transform="matrix(1 0 0 1 3650 259 )" />
  </g>
</svg>