<?xml version="1.0" encoding="utf-8"?>
<svg version="1.1" xmlns:xlink="http://www.w3.org/1999/xlink" width="21px" height="20px" xmlns="http://www.w3.org/2000/svg">
  <g transform="matrix(1 0 0 1 -1210 -435 )">
    <path d="M 14.84765625 12.5  C 14.84765625 12.6128472222222  14.80859375 12.7126736111111  14.73046875 12.7994791666667  L 13.01953125 14.7005208333333  C 12.94140625 14.7873263888889  12.8515625 14.8307291666667  12.75 14.8307291666667  C 12.6484375 14.8307291666667  12.55859375 14.7873263888889  12.48046875 14.7005208333333  L 10.5 12.5  L 8.51953125 14.7005208333333  C 8.44140625 14.7873263888889  8.3515625 14.8307291666667  8.25 14.8307291666667  C 8.1484375 14.8307291666667  8.05859375 14.7873263888889  7.98046875 14.7005208333333  L 6.26953125 12.7994791666667  C 6.19140625 12.7126736111111  6.15234375 12.6128472222222  6.15234375 12.5  C 6.15234375 12.3871527777778  6.19140625 12.2873263888889  6.26953125 12.2005208333333  L 8.25 10  L 6.26953125 7.79947916666667  C 6.19140625 7.71267361111111  6.15234375 7.61284722222222  6.15234375 7.5  C 6.15234375 7.38715277777778  6.19140625 7.28732638888889  6.26953125 7.20052083333333  L 7.98046875 5.29947916666667  C 8.05859375 5.21267361111111  8.1484375 5.16927083333333  8.25 5.16927083333333  C 8.3515625 5.16927083333333  8.44140625 5.21267361111111  8.51953125 5.29947916666667  L 10.5 7.5  L 12.48046875 5.29947916666667  C 12.55859375 5.21267361111111  12.6484375 5.16927083333333  12.75 5.16927083333333  C 12.8515625 5.16927083333333  12.94140625 5.21267361111111  13.01953125 5.29947916666667  L 14.73046875 7.20052083333333  C 14.80859375 7.28732638888889  14.84765625 7.38715277777778  14.84765625 7.5  C 14.84765625 7.61284722222222  14.80859375 7.71267361111111  14.73046875 7.79947916666667  L 12.75 10  L 14.73046875 12.2005208333333  C 14.80859375 12.2873263888889  14.84765625 12.3871527777778  14.84765625 12.5  Z M 3 3.33333333333333  L 3 16.6666666666667  L 18 16.6666666666667  L 18 3.33333333333333  L 3 3.33333333333333  Z M 20.44921875 0.611979166666667  C 20.81640625 1.01996527777778  21 1.51041666666667  21 2.08333333333333  L 21 17.9166666666667  C 21 18.4895833333333  20.81640625 18.9800347222222  20.44921875 19.3880208333333  C 20.08203125 19.7960069444444  19.640625 20  19.125 20  L 1.875 20  C 1.359375 20  0.91796875 19.7960069444444  0.55078125 19.3880208333333  C 0.18359375 18.9800347222222  0 18.4895833333333  0 17.9166666666667  L 0 2.08333333333333  C 0 1.51041666666667  0.18359375 1.01996527777778  0.55078125 0.611979166666667  C 0.91796875 0.203993055555554  1.359375 0  1.875 0  L 19.125 0  C 19.640625 0  20.08203125 0.203993055555554  20.44921875 0.611979166666667  Z " fill-rule="nonzero" fill="#000000" stroke="none" transform="matrix(1 0 0 1 1210 435 )" />
  </g>
</svg>