<?xml version="1.0" encoding="utf-8"?>
<svg version="1.1" xmlns:xlink="http://www.w3.org/1999/xlink" width="52px" height="49px" xmlns="http://www.w3.org/2000/svg">
  <g transform="matrix(1 0 0 1 -895 -612 )">
    <path d="M 895 612  L 947 612  L 947 661  L 895 661  L 895 612  " fill-rule="nonzero" fill="#cccccc" stroke="none" />
    <path d="M 898 615  L 944 615  L 944 658  L 898 658  L 898 615  " fill-rule="nonzero" fill="#ffffff" stroke="none" />
    <path d="M 925.715 626.7  C 923.657 626.7  922.04 625.083  922.04 623.025  C 922.04 620.967  923.657 619.35  925.715 619.35  C 927.773 619.35  929.39 620.967  929.39 623.025  C 929.39 625.083  927.773 626.7  925.715 626.7  " fill-rule="nonzero" fill="#cccccc" stroke="none" />
    <path d="M 899 657  L 899 634.45  L 910 624.2  L 925.4 633.819230769231  L 934.2 630.35  L 943 633.819230769231  L 943 657  L 899 657  " fill-rule="nonzero" fill="#169bd5" stroke="none" />
  </g>
</svg>