<?xml version="1.0" encoding="utf-8"?>
<svg version="1.1" xmlns:xlink="http://www.w3.org/1999/xlink" width="55px" height="58px" xmlns="http://www.w3.org/2000/svg">
  <g transform="matrix(1 0 0 1 -93 -365 )">
    <path d="M 93 365  L 148 365  L 148 423  L 93 423  L 93 365  " fill-rule="nonzero" fill="#cccccc" stroke="none" />
    <path d="M 97 369  L 144 369  L 144 419  L 97 419  L 97 369  " fill-rule="nonzero" fill="#ffffff" stroke="none" />
    <path d="M 125.725 381.95  C 123.415 381.95  121.6 380.135  121.6 377.825  C 121.6 375.515  123.415 373.7  125.725 373.7  C 128.035 373.7  129.85 375.515  129.85 377.825  C 129.85 380.135  128.035 381.95  125.725 381.95  " fill-rule="nonzero" fill="#cccccc" stroke="none" />
    <path d="M 99 418  L 99 392.15  L 110 380.4  L 125.4 389.8  L 134.2 387.45  L 143 389.8  L 143 418  L 99 418  " fill-rule="nonzero" fill="#169bd5" stroke="none" />
  </g>
</svg>