<?xml version="1.0" encoding="utf-8"?>
<svg version="1.1" xmlns:xlink="http://www.w3.org/1999/xlink" width="12px" height="12px" viewBox="1041 467  12 12" xmlns="http://www.w3.org/2000/svg">
  <path d="M 1047 467  C 1050.36 467  1053 469.64  1053 473  C 1053 476.36  1050.36 479  1047 479  C 1043.64 479  1041 476.36  1041 473  C 1041 469.64  1043.64 467  1047 467  Z " fill-rule="nonzero" fill="#ffffff" stroke="none" />
  <path d="M 1047 467.5  C 1050.08 467.5  1052.5 469.92  1052.5 473  C 1052.5 476.08  1050.08 478.5  1047 478.5  C 1043.92 478.5  1041.5 476.08  1041.5 473  C 1041.5 469.92  1043.92 467.5  1047 467.5  Z " stroke-width="1" stroke="#797979" fill="none" />
  <path d="M 1047 476  C 1045.32 476  1044 474.68  1044 473  C 1044 471.32  1045.32 470  1047 470  C 1048.68 470  1050 471.32  1050 473  C 1050 474.68  1048.68 476  1047 476  " fill-rule="nonzero" fill="#797979" stroke="none" />
</svg>