<?xml version="1.0" encoding="utf-8"?>
<svg version="1.1" xmlns:xlink="http://www.w3.org/1999/xlink" width="19px" height="24px" xmlns="http://www.w3.org/2000/svg">
  <g transform="matrix(1 0 0 1 -1041 -159 )">
    <path d="M 18.6735395189003 1.44288577154308  C 18.8911798396335 1.60320641282565  19 1.7875751503006  19 1.99599198396794  C 19 2.20440881763527  18.8911798396335 2.38877755511022  18.6735395189003 2.54909819639279  L 5.84364261168385 12  L 18.6735395189003 21.4509018036072  C 18.8911798396335 21.6112224448898  19 21.7955911823647  19 22.0040080160321  C 19 22.2124248496994  18.8911798396335 22.3967935871743  18.6735395189003 22.5571142284569  L 17.0412371134021 23.7595190380762  C 16.823596792669 23.9198396793587  16.5733104238259 24  16.2903780068729 24  C 16.0074455899198 24  15.7571592210767 23.9198396793587  15.5395189003436 23.7595190380762  L 0.326460481099656 12.5531062124248  C 0.108820160366552 12.3927855711423  0 12.2084168336673  0 12  C 0 11.7915831663327  0.108820160366552 11.6072144288577  0.326460481099656 11.4468937875752  L 15.5395189003436 0.240480961923848  C 15.7571592210767 0.0801603206412818  16.0074455899198 0  16.2903780068729 0  C 16.5733104238259 0  16.823596792669 0.0801603206412818  17.0412371134021 0.240480961923848  L 18.6735395189003 1.44288577154308  Z " fill-rule="nonzero" fill="#000000" stroke="none" transform="matrix(1 0 0 1 1041 159 )" />
  </g>
</svg>