<?xml version="1.0" encoding="utf-8"?>
<svg version="1.1" xmlns:xlink="http://www.w3.org/1999/xlink" width="75px" height="65px" xmlns="http://www.w3.org/2000/svg">
  <g transform="matrix(1 0 0 1 -168 -167 )">
    <path d="M 168 167  L 243 167  L 243 232  L 168 232  L 168 167  " fill-rule="nonzero" fill="#cccccc" stroke="none" />
    <path d="M 173 172  L 238 172  L 238 227  L 173 227  L 173 172  " fill-rule="nonzero" fill="#ffffff" stroke="none" />
    <path d="M 211.875 186.5  C 209.145 186.5  207 184.355  207 181.625  C 207 178.895  209.145 176.75  211.875 176.75  C 214.605 176.75  216.75 178.895  216.75 181.625  C 216.75 184.355  214.605 186.5  211.875 186.5  " fill-rule="nonzero" fill="#cccccc" stroke="none" />
    <path d="M 175 226  L 175 197.4  L 190.5 184.4  L 212.2 198.96  L 224.6 192.2  L 237 198.96  L 237 226  L 175 226  " fill-rule="nonzero" fill="#169bd5" stroke="none" />
  </g>
</svg>