<?xml version="1.0" encoding="utf-8"?>
<svg version="1.1" xmlns:xlink="http://www.w3.org/1999/xlink" width="140px" height="142px" xmlns="http://www.w3.org/2000/svg">
  <g transform="matrix(1 0 0 1 -154 -219 )">
    <path d="M 26 103  L 39 103  L 39 116  L 26 116  L 26 103  Z M 26 26  L 39 26  L 39 39  L 26 39  L 26 26  Z M 101 26  L 114 26  L 114 39  L 101 39  L 101 26  Z M 13 90  L 13 129  L 51 129  L 51 90  L 13 90  Z M 13 13  L 13 52  L 51 52  L 51 13  L 13 13  Z M 89 13  L 89 52  L 127 52  L 127 13  L 89 13  Z M 0 77  L 64 77  L 64 142  L 0 142  L 0 77  Z M 101 129  L 114 129  L 114 142  L 101 142  L 101 129  Z M 127 129  L 140 129  L 140 142  L 127 142  L 127 129  Z M 127 77  L 140 77  L 140 116  L 101 116  L 101 103  L 89 103  L 89 142  L 76 142  L 76 77  L 114 77  L 114 90  L 127 90  L 127 77  Z M 0 0  L 64 0  L 64 65  L 0 65  L 0 0  Z M 76 0  L 140 0  L 140 65  L 76 65  L 76 0  Z " fill-rule="nonzero" fill="#000000" stroke="none" transform="matrix(1 0 0 1 154 219 )" />
  </g>
</svg>