<?xml version="1.0" encoding="utf-8"?>
<svg version="1.1" xmlns:xlink="http://www.w3.org/1999/xlink" width="19px" height="16px" xmlns="http://www.w3.org/2000/svg">
  <g transform="matrix(1 0 0 1 -1736 -249 )">
    <path d="M 18.5521885521886 11.959595959596  C 18.8507295173962 12.2109988776655  19 12.5162738496072  19 12.8754208754209  C 19 13.2345679012346  18.8507295173962 13.5398428731762  18.5521885521886 13.7912457912458  L 16.3771043771044 15.6228956228956  C 16.0785634118967 15.8742985409652  15.716049382716 16  15.2895622895623 16  C 14.8630751964085 16  14.5005611672278 15.8742985409652  14.2020202020202 15.6228956228956  L 9.5 11.6632996632997  L 4.7979797979798 15.6228956228956  C 4.49943883277217 15.8742985409652  4.13692480359147 16  3.71043771043771 16  C 3.28395061728395 16  2.92143658810326 15.8742985409652  2.62289562289562 15.6228956228956  L 0.447811447811448 13.7912457912458  C 0.149270482603816 13.5398428731762  0 13.2345679012346  0 12.8754208754209  C 0 12.5162738496072  0.149270482603816 12.2109988776655  0.447811447811448 11.959595959596  L 5.14983164983165 8  L 0.447811447811448 4.04040404040404  C 0.149270482603816 3.78900112233445  0 3.48372615039282  0 3.12457912457912  C 0 2.76543209876543  0.149270482603816 2.46015712682379  0.447811447811448 2.20875420875421  L 2.62289562289562 0.377104377104377  C 2.92143658810326 0.125701459034792  3.28395061728395 0  3.71043771043771 0  C 4.13692480359147 0  4.49943883277217 0.125701459034792  4.7979797979798 0.377104377104377  L 9.5 4.33670033670034  L 14.2020202020202 0.377104377104377  C 14.5005611672278 0.125701459034792  14.8630751964085 0  15.2895622895623 0  C 15.716049382716 0  16.0785634118967 0.125701459034792  16.3771043771044 0.377104377104377  L 18.5521885521886 2.20875420875421  C 18.8507295173962 2.46015712682379  19 2.76543209876543  19 3.12457912457912  C 19 3.48372615039282  18.8507295173962 3.78900112233445  18.5521885521886 4.04040404040404  L 13.8501683501683 8  L 18.5521885521886 11.959595959596  Z " fill-rule="nonzero" fill="#000000" stroke="none" transform="matrix(1 0 0 1 1736 249 )" />
  </g>
</svg>