<?xml version="1.0" encoding="utf-8"?>
<svg version="1.1" xmlns:xlink="http://www.w3.org/1999/xlink" width="92px" height="97px" xmlns="http://www.w3.org/2000/svg">
  <g transform="matrix(1 0 0 1 -472 -740 )">
    <path d="M 472 740  L 564 740  L 564 837  L 472 837  L 472 740  " fill-rule="nonzero" fill="#cccccc" stroke="none" />
    <path d="M 478 746  L 558 746  L 558 831  L 478 831  L 478 746  " fill-rule="nonzero" fill="#ffffff" stroke="none" />
    <path d="M 526.74 768.35  C 522.876 768.35  519.84 765.314  519.84 761.45  C 519.84 757.586  522.876 754.55  526.74 754.55  C 530.604 754.55  533.64 757.586  533.64 761.45  C 533.64 765.314  530.604 768.35  526.74 768.35  " fill-rule="nonzero" fill="#cccccc" stroke="none" />
    <path d="M 481 829  L 481 785  L 499.75 765  L 526 781  L 541 777  L 556 781  L 556 829  L 481 829  " fill-rule="nonzero" fill="#169bd5" stroke="none" />
  </g>
</svg>