<?xml version="1.0" encoding="utf-8"?>
<svg version="1.1" xmlns:xlink="http://www.w3.org/1999/xlink" width="21px" height="22px" xmlns="http://www.w3.org/2000/svg">
  <g transform="matrix(1 0 0 1 -543 -740 )">
    <path d="M 7.50213068181818 18.2044270833333  C 7.59161931818182 18.1184895833333  7.63636363636364 18.0086805555556  8 17.875  L 8 7.79166666666667  C 7.63636363636364 7.65798611111111  7.59161931818182 7.54817708333333  7.50213068181818 7.46223958333333  C 7.41264204545454 7.37630208333333  7.29829545454546 7.33333333333333  7.15909090909091 7.33333333333333  L 6.20454545454546 7.33333333333333  C 6.06534090909091 7.33333333333333  5.95099431818182 7.37630208333333  5.86150568181818 7.46223958333333  C 5.77201704545454 7.54817708333333  5.72727272727273 7.65798611111111  6 7.79166666666667  L 6 17.875  C 5.72727272727273 18.0086805555556  5.77201704545454 18.1184895833333  5.86150568181818 18.2044270833333  C 5.95099431818182 18.2903645833333  6.06534090909091 18.3333333333333  6.20454545454546 18.3333333333333  L 7.15909090909091 18.3333333333333  C 7.29829545454546 18.3333333333333  7.41264204545454 18.2903645833333  7.50213068181818 18.2044270833333  Z M 11.3203125 18.2044270833333  C 11.4098011363636 18.1184895833333  11.4545454545455 18.0086805555556  11.4545454545455 17.875  L 11.4545454545455 7.79166666666667  C 11.4545454545455 7.65798611111111  11.4098011363636 7.54817708333333  11.3203125 7.46223958333333  C 11.2308238636364 7.37630208333333  11.1164772727273 7.33333333333333  10.9772727272727 7.33333333333333  L 10.0227272727273 7.33333333333333  C 9.88352272727273 7.33333333333333  9.76917613636364 7.37630208333333  9.6796875 7.46223958333333  C 9.59019886363636 7.54817708333333  9.54545454545454 7.65798611111111  9.54545454545454 7.79166666666667  L 9.54545454545454 17.875  C 9.54545454545454 18.0086805555556  9.59019886363636 18.1184895833333  9.6796875 18.2044270833333  C 9.76917613636364 18.2903645833333  9.88352272727273 18.3333333333333  10.0227272727273 18.3333333333333  L 10.9772727272727 18.3333333333333  C 11.1164772727273 18.3333333333333  11.2308238636364 18.2903645833333  11.3203125 18.2044270833333  Z M 15.1384943181818 18.2044270833333  C 15.2279829545455 18.1184895833333  15.2727272727273 18.0086805555556  15 17.875  L 15 7.79166666666667  C 15.2727272727273 7.65798611111111  15.2279829545455 7.54817708333333  15.1384943181818 7.46223958333333  C 15.0490056818182 7.37630208333333  14.9346590909091 7.33333333333333  14.7954545454545 7.33333333333333  L 13.8409090909091 7.33333333333333  C 13.7017045454545 7.33333333333333  13.5873579545455 7.37630208333333  13.4978693181818 7.46223958333333  C 13.4083806818182 7.54817708333333  13.3636363636364 7.65798611111111  13 7.79166666666667  L 13 17.875  C 13.3636363636364 18.0086805555556  13.4083806818182 18.1184895833333  13.4978693181818 18.2044270833333  C 13.5873579545455 18.2903645833333  13.7017045454545 18.3333333333333  13.8409090909091 18.3333333333333  L 14.7954545454545 18.3333333333333  C 14.9346590909091 18.3333333333333  15.0490056818182 18.2903645833333  15.1384943181818 18.2044270833333  Z M 7.88991477272727 1.99088541666667  L 7.15909090909091 3.66666666666667  L 13.8409090909091 3.66666666666667  L 13.125 1.99088541666667  C 13.0553977272727 1.90494791666667  12.9708806818182 1.85243055555555  12.8714488636364 1.83333333333333  L 8.14346590909091 1.83333333333333  C 8.04403409090909 1.85243055555555  7.95951704545455 1.90494791666667  7.88991477272727 1.99088541666667  Z M 20.8657670454545 3.79557291666667  C 20.9552556818182 3.88151041666667  21 3.99131944444444  21 4.125  L 21 5.04166666666667  C 21 5.17534722222222  20.9552556818182 5.28515625  20.8657670454545 5.37109375  C 20.7762784090909 5.45703125  20.6619318181818 5.5  20.5227272727273 5.5  L 19 5.5  L 19 19.078125  C 19.0909090909091 19.8706597222222  18.8572443181818 20.5557725694444  18.3899147727273 21.1334635416667  C 17.9225852272727 21.7111545138889  17.3607954545455 22  16.7045454545455 22  L 4.29545454545455 22  C 3.63920454545455 22  3.07741477272727 21.720703125  2.61008522727273 21.162109375  C 2.14275568181818 20.603515625  1.90909090909091 19.9279513888889  2 19.1354166666667  L 2 5.5  L 0.477272727272727 5.5  C 0.338068181818182 5.5  0.223721590909091 5.45703125  0.134232954545455 5.37109375  C 0.0447443181818182 5.28515625  0 5.17534722222222  0 5.04166666666667  L 0 4.125  C 0 3.99131944444444  0.0447443181818182 3.88151041666667  0.134232954545455 3.79557291666667  C 0.223721590909091 3.70963541666667  0.338068181818182 3.66666666666667  0.477272727272727 3.66666666666667  L 5.0859375 3.66666666666667  L 6.12997159090909 1.27473958333333  C 6.27911931818182 0.92144097222222  6.54758522727273 0.62065972222222  6.93536931818182 0.372395833333334  C 7.32315340909091 0.124131944444443  7.71590909090909 0  8.11363636363636 0  L 12.8863636363636 0  C 13.2840909090909 0  13.6768465909091 0.124131944444443  14.0646306818182 0.372395833333334  C 14.4524147727273 0.62065972222222  14.7208806818182 0.92144097222222  14.8700284090909 1.27473958333333  L 15.9140625 3.66666666666667  L 20.5227272727273 3.66666666666667  C 20.6619318181818 3.66666666666667  20.7762784090909 3.70963541666667  20.8657670454545 3.79557291666667  Z " fill-rule="nonzero" fill="#000000" stroke="none" transform="matrix(1 0 0 1 543 740 )" />
  </g>
</svg>