<?xml version="1.0" encoding="utf-8"?>
<svg version="1.1" xmlns:xlink="http://www.w3.org/1999/xlink" width="28px" height="25px" xmlns="http://www.w3.org/2000/svg">
  <g transform="matrix(1 0 0 1 -239 -120 )">
    <path d="M 5.09090909090909 18.1818181818182  L 7.63636363636364 18.1818181818182  L 7.63636363636364 20.4545454545455  L 5.09090909090909 20.4545454545455  L 5.09090909090909 18.1818181818182  Z M 5.09090909090909 4.54545454545454  L 7.63636363636364 4.54545454545454  L 7.63636363636364 6.81818181818182  L 5.09090909090909 6.81818181818182  L 5.09090909090909 4.54545454545454  Z M 20.3636363636364 4.54545454545454  L 22.9090909090909 4.54545454545454  L 22.9090909090909 6.81818181818182  L 20.3636363636364 6.81818181818182  L 20.3636363636364 4.54545454545454  Z M 2.54545454545455 15.9090909090909  L 2.54545454545455 22.7095170454545  L 10.1818181818182 22.7095170454545  L 10.1818181818182 15.9090909090909  L 2.54545454545455 15.9090909090909  Z M 2.54545454545455 2.27272727272727  L 2.54545454545455 9.09090909090909  L 10.1818181818182 9.09090909090909  L 10.1818181818182 2.27272727272727  L 2.54545454545455 2.27272727272727  Z M 17.8181818181818 2.27272727272727  L 17.8181818181818 9.09090909090909  L 25.4545454545455 9.09090909090909  L 25.4545454545455 2.27272727272727  L 17.8181818181818 2.27272727272727  Z M 0 13.6363636363636  L 13 13.6363636363636  L 13 25  L 0 25  L 0 13.6363636363636  Z M 20.3636363636364 22.7272727272727  L 22.9090909090909 22.7272727272727  L 22.9090909090909 25  L 20.3636363636364 25  L 20.3636363636364 22.7272727272727  Z M 25.4545454545455 22.7272727272727  L 28 22.7272727272727  L 28 25  L 25.4545454545455 25  L 25.4545454545455 22.7272727272727  Z M 25.4545454545455 13.6363636363636  L 28 13.6363636363636  L 28 20.4545454545455  L 20.3636363636364 20.4545454545455  L 20.3636363636364 18.1818181818182  L 17.8181818181818 18.1818181818182  L 17.8181818181818 25  L 15 25  L 15 13.6363636363636  L 22.9090909090909 13.6363636363636  L 22.9090909090909 15.9090909090909  L 25.4545454545455 15.9090909090909  L 25.4545454545455 13.6363636363636  Z M 0 0  L 13 0  L 13 11.3636363636364  L 0 11.3636363636364  L 0 0  Z M 15 0  L 28 0  L 28 11.3636363636364  L 15 11.3636363636364  L 15 0  Z " fill-rule="nonzero" fill="#000000" stroke="none" transform="matrix(1 0 0 1 239 120 )" />
  </g>
</svg>