<?xml version="1.0" encoding="utf-8"?>
<svg version="1.1" xmlns:xlink="http://www.w3.org/1999/xlink" width="25px" height="28px" xmlns="http://www.w3.org/2000/svg">
  <g transform="matrix(1 0 0 1 -435 -63 )">
    <path d="M 12.5 26.75  C 12.6602564102564 26.75  12.7403846153846 26.6666666666667  12.7403846153846 26.5  C 12.7403846153846 26.3333333333333  12.6602564102564 26.25  12.5 26.25  C 11.9090544871795 26.25  11.4007411858974 26.0286458333333  10.9750600961538 25.5859375  C 10.5493790064103 25.1432291666667  10.3365384615385 24.6145833333333  10.3365384615385 24  C 10.3365384615385 23.8333333333333  10.2564102564103 23.75  10.0961538461538 23.75  C 9.93589743589744 23.75  9.85576923076923 23.8333333333333  9.85576923076923 24  C 9.85576923076923 24.7604166666667  10.1136818910256 25.4088541666667  10.6295072115385 25.9453125  C 11.1453325320513 26.4817708333333  11.7688301282051 26.75  12.5 26.75  Z M 6.73076923076923 9  C 6.73076923076923 14.5416666666667  5.39863782051282 18.875  2.734375 22  L 22.265625 22  C 19.6013621794872 18.875  18.2692307692308 14.5416666666667  18.2692307692308 9  C 18.2692307692308 8.46875  18.1490384615385 7.921875  17.9086538461538 7.359375  C 17.6682692307692 6.796875  17.3227163461538 6.26041666666666  16.8719951923077 5.75  C 16.4212740384615 5.23958333333333  15.8128004807692 4.8203125  15.0465745192308 4.4921875  C 14.2803485576923 4.1640625  13.4314903846154 4  12.5 4  C 11.5685096153846 4  10.7196514423077 4.1640625  9.95342548076923 4.4921875  C 9.18719951923077 4.8203125  8.57872596153846 5.23958333333333  8.12800480769231 5.75  C 7.67728365384615 6.26041666666666  7.33173076923077 6.796875  7.09134615384615 7.359375  C 6.85096153846154 7.921875  6.73076923076923 8.46875  6.73076923076923 9  Z M 23.6328125 20.625  C 24.0434695512821 21.1041666666667  24.4991987179487 21.5625  25 22  C 25 22.5416666666667  24.8096955128205 23.0104166666667  24.4290865384615 23.40625  C 24.0484775641026 23.8020833333333  23.5977564102564 24  23.0769230769231 24  L 16.3461538461538 24  C 16.3461538461538 25.1041666666667  15.9705528846154 26.046875  15.2193509615385 26.828125  C 14.4681490384615 27.609375  13.5616987179487 28  12.5 28  C 11.4383012820513 28  10.5318509615385 27.609375  9.78064903846154 26.828125  C 9.02944711538462 26.046875  8.65384615384615 25.1041666666667  8.65384615384615 24  L 1.92307692307692 24  C 1.40224358974359 24  0.951522435897436 23.8020833333333  0.570913461538461 23.40625  C 0.190304487179487 23.0104166666667  0 22.5416666666667  0 22  C 0.500801282051282 21.5625  0.956530448717949 21.1041666666667  1.3671875 20.625  C 1.77784455128205 20.1458333333333  2.20352564102564 19.5234375  2.64423076923077 18.7578125  C 3.0849358974359 17.9921875  3.4580328525641 17.1666666666667  3.76352163461538 16.28125  C 4.06901041666667 15.3958333333333  4.31941105769231 14.3229166666667  4.51472355769231 13.0625  C 4.71003605769231 11.8020833333333  4.80769230769231 10.4479166666667  4.80769230769231 9  C 4.80769230769231 7.41666666666667  5.39362980769231 5.9453125  6.56550480769231 4.5859375  C 7.73737980769231 3.2265625  9.27483974358974 2.40104166666666  11.1778846153846 2.109375  C 11.0977564102564 1.91145833333333  11.0576923076923 1.70833333333333  11.0576923076923 1.5  C 11.0576923076923 1.08333333333333  11.1979166666667 0.729166666666666  11.4783653846154 0.4375  C 11.7588141025641 0.145833333333334  12.099358974359 0  12.5 0  C 12.900641025641 0  13.2411858974359 0.145833333333334  13.5216346153846 0.4375  C 13.8020833333333 0.729166666666666  13.9423076923077 1.08333333333333  13.9423076923077 1.5  C 13.9423076923077 1.70833333333333  13.9022435897436 1.91145833333333  13.8221153846154 2.109375  C 15.7251602564103 2.40104166666666  17.2626201923077 3.2265625  18.4344951923077 4.5859375  C 19.6063701923077 5.9453125  20.1923076923077 7.41666666666667  20.1923076923077 9  C 20.1923076923077 10.4479166666667  20.2899639423077 11.8020833333333  20.4852764423077 13.0625  C 20.6805889423077 14.3229166666667  20.9309895833333 15.3958333333333  21.2364783653846 16.28125  C 21.5419671474359 17.1666666666667  21.9150641025641 17.9921875  22.3557692307692 18.7578125  C 22.7964743589744 19.5234375  23.222155448718 20.1458333333333  23.6328125 20.625  Z " fill-rule="nonzero" fill="#000000" stroke="none" transform="matrix(1 0 0 1 435 63 )" />
  </g>
</svg>