<?xml version="1.0" encoding="utf-8"?>
<svg version="1.1" xmlns:xlink="http://www.w3.org/1999/xlink" width="17px" height="15px" xmlns="http://www.w3.org/2000/svg">
  <g transform="matrix(1 0 0 1 -574 -267 )">
    <path d="M 582.5 267  C 587.26 267  591 270.3  591 274.5  C 591 278.7  587.26 282  582.5 282  C 577.74 282  574 278.7  574 274.5  C 574 270.3  577.74 267  582.5 267  Z " fill-rule="nonzero" fill="#ffffff" stroke="none" />
    <path d="M 582.5 267.5  C 586.98 267.5  590.5 270.58  590.5 274.5  C 590.5 278.42  586.98 281.5  582.5 281.5  C 578.02 281.5  574.5 278.42  574.5 274.5  C 574.5 270.58  578.02 267.5  582.5 267.5  Z " stroke-width="1" stroke="#797979" fill="none" />
  </g>
</svg>