<?xml version="1.0" encoding="utf-8"?>
<svg version="1.1" xmlns:xlink="http://www.w3.org/1999/xlink" width="17px" height="15px" xmlns="http://www.w3.org/2000/svg">
  <g transform="matrix(1 0 0 1 -548 -267 )">
    <path d="M 556.5 267  C 561.26 267  565 270.3  565 274.5  C 565 278.7  561.26 282  556.5 282  C 551.74 282  548 278.7  548 274.5  C 548 270.3  551.74 267  556.5 267  Z " fill-rule="nonzero" fill="#000000" stroke="none" />
    <path d="M 556.5 267.5  C 560.98 267.5  564.5 270.58  564.5 274.5  C 564.5 278.42  560.98 281.5  556.5 281.5  C 552.02 281.5  548.5 278.42  548.5 274.5  C 548.5 270.58  552.02 267.5  556.5 267.5  Z " stroke-width="1" stroke="#797979" fill="none" />
  </g>
</svg>