<?xml version="1.0" encoding="utf-8"?>
<svg version="1.1" xmlns:xlink="http://www.w3.org/1999/xlink" width="47px" height="45px" xmlns="http://www.w3.org/2000/svg">
  <g transform="matrix(1 0 0 1 -31 -765 )">
    <path d="M 31 765  L 78 765  L 78 810  L 31 810  L 31 765  " fill-rule="nonzero" fill="#cccccc" stroke="none" />
    <path d="M 34 768  L 75 768  L 75 807  L 34 807  L 34 768  " fill-rule="nonzero" fill="#ffffff" stroke="none" />
    <path d="M 58.815 778.5  C 56.925 778.5  55.44 777.015  55.44 775.125  C 55.44 773.235  56.925 771.75  58.815 771.75  C 60.705 771.75  62.19 773.235  62.19 775.125  C 62.19 777.015  60.705 778.5  58.815 778.5  " fill-rule="nonzero" fill="#cccccc" stroke="none" />
    <path d="M 35 806  L 35 785.65  L 44.75 776.4  L 58.4 784.744680851064  L 66.2 781.95  L 74 784.744680851064  L 74 806  L 35 806  " fill-rule="nonzero" fill="#169bd5" stroke="none" />
  </g>
</svg>