<?xml version="1.0" encoding="utf-8"?>
<svg version="1.1" xmlns:xlink="http://www.w3.org/1999/xlink" width="47px" height="45px" xmlns="http://www.w3.org/2000/svg">
  <g transform="matrix(1 0 0 1 -34 -753 )">
    <path d="M 34 753  L 81 753  L 81 798  L 34 798  L 34 753  " fill-rule="nonzero" fill="#cccccc" stroke="none" />
    <path d="M 37 756  L 78 756  L 78 795  L 37 795  L 37 756  " fill-rule="nonzero" fill="#ffffff" stroke="none" />
    <path d="M 61.815 766.5  C 59.925 766.5  58.44 765.015  58.44 763.125  C 58.44 761.235  59.925 759.75  61.815 759.75  C 63.705 759.75  65.19 761.235  65.19 763.125  C 65.19 765.015  63.705 766.5  61.815 766.5  " fill-rule="nonzero" fill="#cccccc" stroke="none" />
    <path d="M 38 794  L 38 773.65  L 47.75 764.4  L 61.4 772.744680851064  L 69.2 769.95  L 77 772.744680851064  L 77 794  L 38 794  " fill-rule="nonzero" fill="#169bd5" stroke="none" />
  </g>
</svg>