<?xml version="1.0" encoding="utf-8"?>
<svg version="1.1" xmlns:xlink="http://www.w3.org/1999/xlink" width="15px" height="17px" xmlns="http://www.w3.org/2000/svg">
  <g transform="matrix(1 0 0 1 -396 -363 )">
    <path d="M 13.8490513392857 15.6955915178571  C 13.9020647321429 15.635509672619  13.9285714285714 15.5643601190476  14 15.4821428571429  L 14 5.16071428571429  C 13.9285714285714 5.07849702380952  13.9020647321429 5.00734747023809  13.8490513392857 4.947265625  C 13.7960379464286 4.8871837797619  13.7332589285714 4.85714285714286  13.6607142857143 4.85714285714286  L 4.55357142857143 4.85714285714286  C 4.48102678571429 4.85714285714286  4.41824776785714 4.8871837797619  4.365234375 4.947265625  C 4.31222098214286 5.00734747023809  4.28571428571429 5.07849702380952  4.28571428571429 5.16071428571429  L 4.28571428571429 15.4821428571429  C 4.28571428571429 15.5643601190476  4.31222098214286 15.635509672619  4.365234375 15.6955915178571  C 4.41824776785714 15.7556733630952  4.48102678571429 15.7857142857143  4.55357142857143 15.7857142857143  L 13.6607142857143 15.7857142857143  C 13.7332589285714 15.7857142857143  13.7960379464286 15.7556733630952  13.8490513392857 15.6955915178571  Z M 14.6065848214286 4.08872767857143  C 14.8688616071429 4.38597470238095  15 4.74330357142857  15 5.16071428571429  L 15 15.4821428571429  C 15 15.8995535714286  14.8688616071429 16.2568824404762  14.6065848214286 16.5541294642857  C 14.3443080357143 16.8513764880952  14.0290178571429 17  13.6607142857143 17  L 4.55357142857143 17  C 4.18526785714286 17  3.86997767857143 16.8513764880952  3.60770089285714 16.5541294642857  C 3.34542410714286 16.2568824404762  3.21428571428571 15.8995535714286  3.21428571428571 15.4821428571429  L 3.21428571428571 5.16071428571429  C 3.21428571428571 4.74330357142857  3.34542410714286 4.38597470238095  3.60770089285714 4.08872767857143  C 3.86997767857143 3.7914806547619  4.18526785714286 3.64285714285714  4.55357142857143 3.64285714285714  L 13.6607142857143 3.64285714285714  C 14.0290178571429 3.64285714285714  14.3443080357143 3.7914806547619  14.6065848214286 4.08872767857143  Z M 11.3922991071429 0.445870535714286  C 11.6545758928571 0.743117559523809  11.7857142857143 1.10044642857143  11.7857142857143 1.51785714285714  L 11.7857142857143 3.03571428571429  L 10.7142857142857 3.03571428571429  L 10.7142857142857 1.51785714285714  C 10.7142857142857 1.43563988095238  10.6877790178571 1.36449032738095  10.634765625 1.30440848214286  C 10.5817522321429 1.24432663690476  10.5189732142857 1.21428571428571  10.4464285714286 1.21428571428571  L 1.33928571428571 1.21428571428571  C 1.26674107142857 1.21428571428571  1.20396205357143 1.24432663690476  1.15094866071429 1.30440848214286  C 1.09793526785714 1.36449032738095  1.07142857142857 1.43563988095238  1 1.51785714285714  L 1 11.8392857142857  C 1.07142857142857 11.9215029761905  1.09793526785714 11.9926525297619  1.15094866071429 12.052734375  C 1.20396205357143 12.1128162202381  1.26674107142857 12.1428571428571  1.33928571428571 12.1428571428571  L 2.67857142857143 12.1428571428571  L 2.67857142857143 13.3571428571429  L 1.33928571428571 13.3571428571429  C 0.970982142857143 13.3571428571429  0.655691964285714 13.2085193452381  0.393415178571429 12.9112723214286  C 0.131138392857143 12.614025297619  0 12.2566964285714  0 11.8392857142857  L 0 1.51785714285714  C 0 1.10044642857143  0.131138392857143 0.743117559523809  0.393415178571429 0.445870535714286  C 0.655691964285714 0.148623511904762  0.970982142857143 0  1.33928571428571 0  L 10.4464285714286 0  C 10.8147321428571 0  11.1300223214286 0.148623511904762  11.3922991071429 0.445870535714286  Z " fill-rule="nonzero" fill="#000000" stroke="none" transform="matrix(1 0 0 1 396 363 )" />
  </g>
</svg>