<?xml version="1.0" encoding="utf-8"?>
<svg version="1.1" xmlns:xlink="http://www.w3.org/1999/xlink" width="23px" height="21px" xmlns="http://www.w3.org/2000/svg">
  <g transform="matrix(1 0 0 1 -208 -268 )">
    <path d="M 22.8780691964286 13.6484375  C 22.9593563988095 13.7473958333333  23 13.8645833333333  23 14  L 23 17  C 23 17.1354166666667  22.9593563988095 17.2526041666667  22.8780691964286 17.3515625  C 22.7967819940476 17.4505208333333  22.7005208333333 17.5  22.5892857142857 17.5  L 4.92857142857143 17.5  L 4.92857142857143 20.5  C 4.92857142857143 20.6354166666667  4.88792782738095 20.7526041666667  4.806640625 20.8515625  C 4.72535342261905 20.9505208333333  4.62909226190476 21  4.51785714285714 21  C 4.41517857142857 21  4.3125 20.9479166666667  4.20982142857143 20.84375  L 0.115513392857143 15.84375  C 0.0385044642857143 15.75  0 15.6354166666667  0 15.5  C 0 15.3541666666667  0.0385044642857143 15.234375  0.115513392857143 15.140625  L 4.22265625 10.140625  C 4.29966517857143 10.046875  4.39806547619048 10  4.51785714285714 10  C 4.62909226190476 10  4.72535342261905 10.0494791666667  4.806640625 10.1484375  C 4.88792782738095 10.2473958333333  4.92857142857143 10.3645833333333  4.92857142857143 10.5  L 4.92857142857143 13.5  L 22.5892857142857 13.5  C 22.7005208333333 13.5  22.7967819940476 13.5494791666667  22.8780691964286 13.6484375  Z M 22.8844866071429 5.140625  C 22.9614955357143 5.234375  23 5.35416666666667  23 5.5  C 23 5.64583333333333  22.9614955357143 5.765625  22.8844866071429 5.859375  L 18.77734375 10.859375  C 18.7003348214286 10.953125  18.6019345238095 11  18.4821428571429 11  C 18.3709077380952 11  18.274646577381 10.9505208333333  18.193359375 10.8515625  C 18.112072172619 10.7526041666667  18.0714285714286 10.6354166666667  18.0714285714286 10.5  L 18.0714285714286 7.5  L 0.410714285714286 7.5  C 0.299479166666667 7.5  0.203218005952381 7.45052083333333  0.121930803571429 7.3515625  C 0.0406436011904762 7.25260416666667  0 7.13541666666667  0 7  L 0 4  C 0 3.86458333333333  0.0406436011904762 3.74739583333333  0.121930803571429 3.6484375  C 0.203218005952381 3.54947916666666  0.299479166666667 3.5  0.410714285714286 3.5  L 18.0714285714286 3.5  L 18.0714285714286 0.500000000000001  C 18.0714285714286 0.354166666666665  18.1099330357143 0.234375  18.1869419642857 0.140625000000001  C 18.2639508928571 0.046875000000001  18.3623511904762 0  18.4821428571429 0  C 18.5848214285714 0  18.6875 0.0520833333333331  18.7901785714286 0.156249999999999  L 22.8844866071429 5.140625  Z " fill-rule="nonzero" fill="#000000" stroke="none" transform="matrix(1 0 0 1 208 268 )" />
  </g>
</svg>