<?xml version="1.0" encoding="utf-8"?>
<svg version="1.1" xmlns:xlink="http://www.w3.org/1999/xlink" width="22px" height="24px" xmlns="http://www.w3.org/2000/svg">
  <g transform="matrix(1 0 0 1 -333 -272 )">
    <path d="M 21.4814814814815 17.9393939393939  C 21.8271604938272 18.3164983164983  22 18.7744107744108  22 19.3131313131313  C 22 19.8518518518519  21.8271604938272 20.3097643097643  21.4814814814815 20.6868686868687  L 18.962962962963 23.4343434343434  C 18.6172839506173 23.8114478114478  18.1975308641975 24  17.7037037037037 24  C 17.2098765432099 24  16.7901234567901 23.8114478114478  16.4444444444444 23.4343434343434  L 11 17.4949494949495  L 5.55555555555556 23.4343434343434  C 5.20987654320988 23.8114478114478  4.79012345679012 24  4.2962962962963 24  C 3.80246913580247 24  3.38271604938272 23.8114478114478  3.03703703703704 23.4343434343434  L 0.518518518518518 20.6868686868687  C 0.17283950617284 20.3097643097643  0 19.8518518518519  0 19.3131313131313  C 0 18.7744107744108  0.17283950617284 18.3164983164983  0.518518518518518 17.9393939393939  L 5.96296296296296 12  L 0.518518518518518 6.06060606060606  C 0.17283950617284 5.68350168350168  0 5.22558922558923  0 4.68686868686869  C 0 4.14814814814815  0.17283950617284 3.69023569023569  0.518518518518518 3.31313131313131  L 3.03703703703704 0.565656565656566  C 3.38271604938272 0.188552188552188  3.80246913580247 0  4.2962962962963 0  C 4.79012345679012 0  5.20987654320988 0.188552188552188  5.55555555555556 0.565656565656566  L 11 6.50505050505051  L 16.4444444444444 0.565656565656566  C 16.7901234567901 0.188552188552188  17.2098765432099 0  17.7037037037037 0  C 18.1975308641975 0  18.6172839506173 0.188552188552188  18.962962962963 0.565656565656566  L 21.4814814814815 3.31313131313131  C 21.8271604938272 3.69023569023569  22 4.14814814814815  22 4.68686868686869  C 22 5.22558922558923  21.8271604938272 5.68350168350168  21.4814814814815 6.06060606060606  L 16.037037037037 12  L 21.4814814814815 17.9393939393939  Z " fill-rule="nonzero" fill="#000000" stroke="none" transform="matrix(1 0 0 1 333 272 )" />
  </g>
</svg>