<?xml version="1.0" encoding="utf-8"?>
<svg version="1.1" xmlns:xlink="http://www.w3.org/1999/xlink" width="20px" height="17px" xmlns="http://www.w3.org/2000/svg">
  <g transform="matrix(1 0 0 1 -367 -243 )">
    <path d="M 9.32735426008969 12.75  L 9.95515695067265 12.75  L 11.2556053811659 11.3494318181818  L 9.55156950672646 9.51420454545454  L 8.25112107623318 10.9147727272727  L 8.25112107623318 11.5909090909091  L 9.32735426008969 11.5909090909091  L 9.32735426008969 12.75  Z M 14.8766816143498 4.45525568181818  C 15.0037369207773 4.31841856060606  15.0074738415546 4.18560606060606  14.8878923766816 4.05681818181818  C 14.7683109118087 3.9280303030303  14.6449925261584 3.93205492424242  14.5179372197309 4.06889204545455  L 10.5941704035874 8.29474431818182  C 10.4671150971599 8.43158143939394  10.4633781763827 8.56439393939394  10.5829596412556 8.69318181818182  C 10.7025411061286 8.8219696969697  10.8258594917788 8.81794507575757  10.9529147982063 8.68110795454546  L 14.8766816143498 4.45525568181818  Z M 15.5605381165919 10.8785511363636  C 15.7100149476831 10.9429450757576  15.7847533632287 11.0596590909091  15.7847533632287 11.2286931818182  L 15.7847533632287 13.5227272727273  C 15.7847533632287 14.4805871212121  15.4689835575486 15.2995975378788  14.8374439461883 15.9797585227273  C 14.2059043348281 16.6599195075758  13.4454409566517 17  12.5560538116592 17  L 3.22869955156951 17  C 2.33931240657698 17  1.5788490284006 16.6599195075758  0.947309417040359 15.9797585227273  C 0.31576980568012 15.2995975378788  0 14.4805871212121  0 13.5227272727273  L 0 3.47727272727273  C 0 2.51941287878788  0.31576980568012 1.70040246212121  0.947309417040359 1.02024147727273  C 1.5788490284006 0.340080492424241  2.33931240657698 0  3.22869955156951 0  L 12.5560538116592 0  C 13.0269058295964 0  13.4641255605381 0.100615530303029  13.8677130044843 0.30184659090909  C 13.9798206278027 0.358191287878787  14.0470852017937 0.450757575757575  14.0695067264574 0.579545454545454  C 14.0919282511211 0.716382575757575  14.0582959641256 0.83309659090909  13.9686098654709 0.9296875  L 13.4192825112108 1.52130681818182  C 13.3146487294469 1.63399621212121  13.195067264574 1.66619318181818  13.0605381165919 1.61789772727273  C 12.8886397608371 1.56960227272727  12.7204783258595 1.54545454545455  12.5560538116592 1.54545454545455  L 3.22869955156951 1.54545454545455  C 2.73542600896861 1.54545454545455  2.31315396113602 1.73461174242424  1.96188340807175 2.11292613636364  C 1.61061285500747 2.49124053030303  1.43497757847534 2.94602272727273  1.43497757847534 3.47727272727273  L 1.43497757847534 13.5227272727273  C 1.43497757847534 14.0539772727273  1.61061285500747 14.508759469697  1.96188340807175 14.8870738636364  C 2.31315396113602 15.2653882575758  2.73542600896861 15.4545454545455  3.22869955156951 15.4545454545455  L 12.5560538116592 15.4545454545455  C 13.0493273542601 15.4545454545455  13.4715994020927 15.2653882575758  13.822869955157 14.8870738636364  C 14.1741405082212 14.508759469697  14.3497757847534 14.0539772727273  14.3497757847534 13.5227272727273  L 14.3497757847534 12.0014204545455  C 14.3497757847534 11.8967803030303  14.3834080717489 11.8082386363636  14.4506726457399 11.7357954545455  L 15.1681614349776 10.9630681818182  C 15.280269058296 10.8423295454545  15.4110612855007 10.8141571969697  15.5605381165919 10.8785511363636  Z M 7.17488789237668 10.4318181818182  L 14.7085201793722 2.31818181818182  L 17.9372197309417 5.79545454545455  L 10.4035874439462 13.9090909090909  L 7.17488789237668 13.9090909090909  L 7.17488789237668 10.4318181818182  Z M 20 3.09090909090909  C 20 3.41287878787879  19.8953662182362 3.68655303030303  19.6860986547085 3.91193181818182  L 18.6547085201794 5.02272727272727  L 15.4260089686099 1.54545454545455  L 16.457399103139 0.43465909090909  C 16.6666666666667 0.209280303030301  16.9207772795217 0.0965909090909099  17.219730941704 0.0965909090909099  C 17.5186846038864 0.0965909090909099  17.7727952167414 0.209280303030301  17.9820627802691 0.43465909090909  L 19.6860986547085 2.26988636363636  C 19.8953662182362 2.49526515151515  20 2.76893939393939  20 3.09090909090909  Z " fill-rule="nonzero" fill="#000000" stroke="none" transform="matrix(1 0 0 1 367 243 )" />
  </g>
</svg>