<?xml version="1.0" encoding="utf-8"?>
<svg version="1.1" xmlns:xlink="http://www.w3.org/1999/xlink" width="34px" height="22px" xmlns="http://www.w3.org/2000/svg">
  <defs>
    <mask fill="white" id="clip261">
      <path d="M 0 21  L 0 0  L 15.6233766233766 0  L 33 0  L 33 21  L 0 21  Z " fill-rule="evenodd" />
    </mask>
  </defs>
  <g transform="matrix(1 0 0 1 -361 -124 )">
    <path d="M 0 21  L 0 0  L 15.6233766233766 0  L 33 0  L 33 21  L 0 21  Z M 32.3371231167819 20.5781692561339  L 0.662876883218075 0.421830743866053  L 15.1422035480859 9.63594771241833  L 32.3371231167819 20.5781692561339  Z " fill-rule="nonzero" fill="#f2f2f2" stroke="none" transform="matrix(1 0 0 1 361 124 )" />
    <path d="M 0 21  L 0 0  L 15.6233766233766 0  L 33 0  L 33 21  L 0 21  Z " stroke-width="2" stroke="#797979" fill="none" transform="matrix(1 0 0 1 361 124 )" mask="url(#clip261)" />
    <path d="M 32.3371231167819 0.421830743866053  L 0.662876883218075 20.5781692561339  M 0.662876883218075 0.421830743866053  L 15.1422035480859 9.63594771241833  L 32.3371231167819 20.5781692561339  " stroke-width="1" stroke="#797979" fill="none" transform="matrix(1 0 0 1 361 124 )" />
  </g>
</svg>