<?xml version="1.0" encoding="utf-8"?>
<svg version="1.1" xmlns:xlink="http://www.w3.org/1999/xlink" width="16px" height="8px" xmlns="http://www.w3.org/2000/svg">
  <g transform="matrix(1 0 0 1 -174 -188 )">
    <path d="M 15.703125 0.263888888888889  C 15.9010416666667 0.439814814814813  16 0.648148148148146  16 0.888888888888889  C 16 1.12962962962963  15.9010416666667 1.33796296296296  15.703125 1.51388888888889  L 8.703125 7.73611111111111  C 8.50520833333333 7.91203703703703  8.27083333333333 8  8 8  C 7.72916666666667 8  7.49479166666667 7.91203703703703  7.296875 7.73611111111111  L 0.296875 1.51388888888889  C 0.0989583333333333 1.33796296296296  0 1.12962962962963  0 0.888888888888889  C 0 0.648148148148146  0.0989583333333333 0.439814814814813  0.296875 0.263888888888889  C 0.494791666666667 0.0879629629629619  0.729166666666667 0  1 0  L 15 0  C 15.2708333333333 0  15.5052083333333 0.0879629629629619  15.703125 0.263888888888889  Z " fill-rule="nonzero" fill="#000000" stroke="none" transform="matrix(1 0 0 1 174 188 )" />
  </g>
</svg>