<?xml version="1.0" encoding="utf-8"?>
<svg version="1.1" xmlns:xlink="http://www.w3.org/1999/xlink" width="27px" height="33px" xmlns="http://www.w3.org/2000/svg">
  <defs>
    <filter x="3px" y="6px" width="27px" height="33px" filterUnits="userSpaceOnUse" id="filter820">
      <feOffset dx="1" dy="1" in="SourceAlpha" result="shadowOffsetInner" />
      <feGaussianBlur stdDeviation="2.5" in="shadowOffsetInner" result="shadowGaussian" />
      <feComposite in2="shadowGaussian" operator="atop" in="SourceAlpha" result="shadowComposite" />
      <feColorMatrix type="matrix" values="0 0 0 0 0  0 0 0 0 0  0 0 0 0 0  0 0 0 0.698039215686274 0  " in="shadowComposite" />
    </filter>
    <g id="widget821">
      <path d="M 15.5 32.0273589976496  C 12.3 26.6514516908613  7.5 23.4259073067883  7.5 18.05  C 7.5 15.2457142857143  9.1 10.5  15.5 10.5  C 21.9 10.5  23.5 15.2457142857143  23.5 18.05  C 23.5 23.4259073067883  18.7 26.6514516908613  15.5 32.0273589976496  Z " fill-rule="nonzero" fill="#009dd9" stroke="none" />
      <path d="M 15.5 33  C 12.1 27.25  7 23.8  7 18.05  C 7 15.06  8.7 10  15.5 10  C 22.3 10  24 15.06  24 18.05  C 24 23.8  18.9 27.25  15.5 33  Z M 15.5 31.0547179952993  C 18.5 26.0529033817226  23 23.0518146135766  23 18.05  C 23 15.4314285714286  21.5 11  15.5 11  C 9.5 11  8 15.4314285714286  8 18.05  C 8 23.0518146135766  12.5 26.0529033817226  15.5 31.0547179952993  Z " fill-rule="nonzero" fill="#ffffff" stroke="none" />
    </g>
  </defs>
  <g transform="matrix(1 0 0 1 -3 -6 )">
    <use xlink:href="#widget821" filter="url(#filter820)" />
    <use xlink:href="#widget821" />
  </g>
</svg>