<?xml version="1.0" encoding="utf-8"?>
<svg version="1.1" xmlns:xlink="http://www.w3.org/1999/xlink" width="37px" height="35px" xmlns="http://www.w3.org/2000/svg">
  <g transform="matrix(1 0 0 1 -1705 -1037 )">
    <path d="M 1705 1037  L 1742 1037  L 1742 1072  L 1705 1072  L 1705 1037  " fill-rule="nonzero" fill="#cccccc" stroke="none" />
    <path d="M 1707 1039  L 1740 1039  L 1740 1070  L 1707 1070  L 1707 1039  " fill-rule="nonzero" fill="#ffffff" stroke="none" />
    <path d="M 1726.865 1047.5  C 1725.395 1047.5  1724.24 1046.345  1724.24 1044.875  C 1724.24 1043.405  1725.395 1042.25  1726.865 1042.25  C 1728.335 1042.25  1729.49 1043.405  1729.49 1044.875  C 1729.49 1046.345  1728.335 1047.5  1726.865 1047.5  " fill-rule="nonzero" fill="#cccccc" stroke="none" />
    <path d="M 1708 1069  L 1708 1053.05  L 1715.75 1045.8  L 1726.6 1052.54054054054  L 1732.8 1050.15  L 1739 1052.54054054054  L 1739 1069  L 1708 1069  " fill-rule="nonzero" fill="#169bd5" stroke="none" />
  </g>
</svg>