<?xml version="1.0" encoding="utf-8"?>
<svg version="1.1" xmlns:xlink="http://www.w3.org/1999/xlink" width="10px" height="19px" xmlns="http://www.w3.org/2000/svg">
  <g transform="matrix(1 0 0 1 -373 -262 )">
    <path d="M 10 2.71091811414392  C 10 2.91521918941274  9.93886743886744 3.0920181968569  9.81660231660232 3.24131513647643  L 4.69111969111969 9.5  L 9.81660231660232 15.7586848635236  C 9.93886743886744 15.9079818031431  10 16.0847808105873  10 16.2890818858561  C 10 16.4933829611249  9.93886743886744 16.6701819685691  9.81660231660232 16.8194789081886  L 8.21428571428571 18.7760545905707  C 8.09202059202059 18.9253515301902  7.94723294723295 19  7.77992277992278 19  C 7.61261261261261 19  7.46782496782497 18.9253515301902  7.34555984555985 18.7760545905707  L 0.183397683397683 10.0303970223325  C 0.0611325611325612 9.88110008271298  0 9.70430107526882  0 9.5  C 0 9.29569892473118  0.0611325611325612 9.11889991728701  0.183397683397683 8.9696029776675  L 7.34555984555985 0.22394540942928  C 7.46782496782497 0.0746484698097593  7.61261261261261 0  7.77992277992278 0  C 7.94723294723295 0  8.09202059202059 0.0746484698097593  8.21428571428571 0.22394540942928  L 9.81660231660232 2.18052109181141  C 9.93886743886744 2.32981803143093  10 2.5066170388751  10 2.71091811414392  Z " fill-rule="nonzero" fill="#555555" stroke="none" transform="matrix(1 0 0 1 373 262 )" />
  </g>
</svg>