<?xml version="1.0" encoding="utf-8"?>
<svg version="1.1" xmlns:xlink="http://www.w3.org/1999/xlink" width="38px" height="38px" xmlns="http://www.w3.org/2000/svg">
  <defs>
    <mask fill="white" id="clip129">
      <path d="M 875 188  C 864.455 188  856 179.545  856 169  L 856 169  C 856 158.455  864.455 150  875 150  L 875 150  C 885.545 150  894 158.455  894 169  L 894 169  C 894 179.545  885.545 188  875 188  " fill-rule="evenodd" />
    </mask>
  </defs>
  <g transform="matrix(1 0 0 1 -856 -150 )">
    <path d="M 856 150  L 894 150  L 894 188  L 856 188  L 856 150  " fill-rule="nonzero" fill="#cccccc" stroke="none" mask="url(#clip129)" />
    <path d="M 859 153  L 891 153  L 891 185  L 859 185  L 859 153  " fill-rule="nonzero" fill="#ffffff" stroke="none" mask="url(#clip129)" />
    <path d="M 878.61 161.4  C 877.014 161.4  875.76 160.146  875.76 158.55  C 875.76 156.954  877.014 155.7  878.61 155.7  C 880.206 155.7  881.46 156.954  881.46 158.55  C 881.46 160.146  880.206 161.4  878.61 161.4  " fill-rule="nonzero" fill="#cccccc" stroke="none" mask="url(#clip129)" />
    <path d="M 860 184  L 860 167.5  L 867.5 160  L 878 166  L 884 164.5  L 890 166  L 890 184  L 860 184  " fill-rule="nonzero" fill="#169bd5" stroke="none" mask="url(#clip129)" />
  </g>
</svg>