<?xml version="1.0" encoding="utf-8"?>
<svg version="1.1" xmlns:xlink="http://www.w3.org/1999/xlink" width="12px" height="12px" viewBox="33 438  12 12" xmlns="http://www.w3.org/2000/svg">
  <path d="M 39 438  C 42.36 438  45 440.64  45 444  C 45 447.36  42.36 450  39 450  C 35.64 450  33 447.36  33 444  C 33 440.64  35.64 438  39 438  Z " fill-rule="nonzero" fill="#f0f0f0" stroke="none" />
  <path d="M 39 438.5  C 42.08 438.5  44.5 440.92  44.5 444  C 44.5 447.08  42.08 449.5  39 449.5  C 35.92 449.5  33.5 447.08  33.5 444  C 33.5 440.92  35.92 438.5  39 438.5  Z " stroke-width="1" stroke="#797979" fill="none" />
  <path d="M 39 447  C 37.32 447  36 445.68  36 444  C 36 442.32  37.32 441  39 441  C 40.68 441  42 442.32  42 444  C 42 445.68  40.68 447  39 447  " fill-rule="nonzero" fill="#797979" stroke="none" />
</svg>