<?xml version="1.0" encoding="utf-8"?>
<svg version="1.1" xmlns:xlink="http://www.w3.org/1999/xlink" width="12px" height="12px" viewBox="434 539  12 12" xmlns="http://www.w3.org/2000/svg">
  <path d="M 440 539  C 443.36 539  446 541.64  446 545  C 446 548.36  443.36 551  440 551  C 436.64 551  434 548.36  434 545  C 434 541.64  436.64 539  440 539  Z " fill-rule="nonzero" fill="#f0f0f0" stroke="none" />
  <path d="M 440 539.5  C 443.08 539.5  445.5 541.92  445.5 545  C 445.5 548.08  443.08 550.5  440 550.5  C 436.92 550.5  434.5 548.08  434.5 545  C 434.5 541.92  436.92 539.5  440 539.5  Z " stroke-width="1" stroke="#797979" fill="none" />
  <path d="M 440 548  C 438.32 548  437 546.68  437 545  C 437 543.32  438.32 542  440 542  C 441.68 542  443 543.32  443 545  C 443 546.68  441.68 548  440 548  " fill-rule="nonzero" fill="#797979" stroke="none" />
</svg>