<?xml version="1.0" encoding="utf-8"?>
<svg version="1.1" xmlns:xlink="http://www.w3.org/1999/xlink" width="12px" height="12px" viewBox="434 581  12 12" xmlns="http://www.w3.org/2000/svg">
  <path d="M 440 581  C 443.36 581  446 583.64  446 587  C 446 590.36  443.36 593  440 593  C 436.64 593  434 590.36  434 587  C 434 583.64  436.64 581  440 581  Z " fill-rule="nonzero" fill="#f0f0f0" stroke="none" />
  <path d="M 440 581.5  C 443.08 581.5  445.5 583.92  445.5 587  C 445.5 590.08  443.08 592.5  440 592.5  C 436.92 592.5  434.5 590.08  434.5 587  C 434.5 583.92  436.92 581.5  440 581.5  Z " stroke-width="1" stroke="#797979" fill="none" />
  <path d="M 440 590  C 438.32 590  437 588.68  437 587  C 437 585.32  438.32 584  440 584  C 441.68 584  443 585.32  443 587  C 443 588.68  441.68 590  440 590  " fill-rule="nonzero" fill="#797979" stroke="none" />
</svg>