<?xml version="1.0" encoding="utf-8"?>
<svg version="1.1" xmlns:xlink="http://www.w3.org/1999/xlink" width="12px" height="12px" viewBox="28 539  12 12" xmlns="http://www.w3.org/2000/svg">
  <path d="M 34 539  C 37.36 539  40 541.64  40 545  C 40 548.36  37.36 551  34 551  C 30.64 551  28 548.36  28 545  C 28 541.64  30.64 539  34 539  Z " fill-rule="nonzero" fill="#f0f0f0" stroke="none" />
  <path d="M 34 539.5  C 37.08 539.5  39.5 541.92  39.5 545  C 39.5 548.08  37.08 550.5  34 550.5  C 30.92 550.5  28.5 548.08  28.5 545  C 28.5 541.92  30.92 539.5  34 539.5  Z " stroke-width="1" stroke="#797979" fill="none" />
  <path d="M 34 548  C 32.32 548  31 546.68  31 545  C 31 543.32  32.32 542  34 542  C 35.68 542  37 543.32  37 545  C 37 546.68  35.68 548  34 548  " fill-rule="nonzero" fill="#797979" stroke="none" />
</svg>