<?xml version="1.0" encoding="utf-8"?>
<svg version="1.1" xmlns:xlink="http://www.w3.org/1999/xlink" width="12px" height="12px" viewBox="28 367  12 12" xmlns="http://www.w3.org/2000/svg">
  <path d="M 34 367  C 37.36 367  40 369.64  40 373  C 40 376.36  37.36 379  34 379  C 30.64 379  28 376.36  28 373  C 28 369.64  30.64 367  34 367  Z " fill-rule="nonzero" fill="#f0f0f0" stroke="none" />
  <path d="M 34 367.5  C 37.08 367.5  39.5 369.92  39.5 373  C 39.5 376.08  37.08 378.5  34 378.5  C 30.92 378.5  28.5 376.08  28.5 373  C 28.5 369.92  30.92 367.5  34 367.5  Z " stroke-width="1" stroke="#797979" fill="none" />
  <path d="M 34 376  C 32.32 376  31 374.68  31 373  C 31 371.32  32.32 370  34 370  C 35.68 370  37 371.32  37 373  C 37 374.68  35.68 376  34 376  " fill-rule="nonzero" fill="#797979" stroke="none" />
</svg>