<?xml version="1.0" encoding="utf-8"?>
<svg version="1.1" xmlns:xlink="http://www.w3.org/1999/xlink" width="12px" height="12px" viewBox="439 277  12 12" xmlns="http://www.w3.org/2000/svg">
  <path d="M 445 277  C 448.36 277  451 279.64  451 283  C 451 286.36  448.36 289  445 289  C 441.64 289  439 286.36  439 283  C 439 279.64  441.64 277  445 277  Z " fill-rule="nonzero" fill="#ffffff" stroke="none" />
  <path d="M 445 277.5  C 448.08 277.5  450.5 279.92  450.5 283  C 450.5 286.08  448.08 288.5  445 288.5  C 441.92 288.5  439.5 286.08  439.5 283  C 439.5 279.92  441.92 277.5  445 277.5  Z " stroke-width="1" stroke="#797979" fill="none" />
  <path d="M 445 286  C 443.32 286  442 284.68  442 283  C 442 281.32  443.32 280  445 280  C 446.68 280  448 281.32  448 283  C 448 284.68  446.68 286  445 286  " fill-rule="nonzero" fill="#797979" stroke="none" />
</svg>