<?xml version="1.0" encoding="utf-8"?>
<svg version="1.1" xmlns:xlink="http://www.w3.org/1999/xlink" width="30px" height="17px" xmlns="http://www.w3.org/2000/svg">
  <g transform="matrix(1 0 0 1 -372 -169 )">
    <path d="M 0.7470703125 11.800390625  C 0.2490234375 10.751171875  0 9.65104166666667  0 8.5  C 0 7.34895833333333  0.2490234375 6.248828125  0.7470703125 5.199609375  C 1.2451171875 4.150390625  1.91162109375 3.247265625  2.74658203125 2.490234375  C 3.58154296875 1.733203125  4.57763671875 1.12890625  5.73486328125 0.677343749999999  C 6.89208984375 0.22578125  8.10546875 0  9.375 0  L 20.625 0  C 21.89453125 0  23.10791015625 0.22578125  24.26513671875 0.677343749999999  C 25.42236328125 1.12890625  26.41845703125 1.733203125  27.25341796875 2.490234375  C 28.08837890625 3.247265625  28.7548828125 4.150390625  29.2529296875 5.199609375  C 29.7509765625 6.248828125  30 7.34895833333333  30 8.5  C 30 9.65104166666667  29.7509765625 10.751171875  29.2529296875 11.800390625  C 28.7548828125 12.849609375  28.08837890625 13.752734375  27.25341796875 14.509765625  C 26.41845703125 15.266796875  25.42236328125 15.87109375  24.26513671875 16.32265625  C 23.10791015625 16.77421875  21.89453125 17  20.625 17  L 9.375 17  C 8.10546875 17  6.89208984375 16.77421875  5.73486328125 16.32265625  C 4.57763671875 15.87109375  3.58154296875 15.266796875  2.74658203125 14.509765625  C 1.91162109375 13.752734375  1.2451171875 12.849609375  0.7470703125 11.800390625  Z M 17.71728515625 14.762109375  C 18.64013671875 15.120703125  19.609375 15.3  20.625 15.3  C 21.640625 15.3  22.60986328125 15.120703125  23.53271484375 14.762109375  C 24.45556640625 14.403515625  25.25390625 13.91875  25.927734375 13.3078125  C 26.6015625 12.696875  27.13623046875 11.973046875  27.53173828125 11.136328125  C 27.92724609375 10.299609375  28.125 9.42083333333333  28.125 8.5  C 28.125 7.57916666666667  27.92724609375 6.700390625  27.53173828125 5.863671875  C 27.13623046875 5.026953125  26.6015625 4.303125  25.927734375 3.6921875  C 25.25390625 3.08125  24.45556640625 2.596484375  23.53271484375 2.237890625  C 22.60986328125 1.879296875  21.640625 1.7  20.625 1.7  C 19.609375 1.7  18.64013671875 1.879296875  17.71728515625 2.237890625  C 16.79443359375 2.596484375  15.99609375 3.08125  15.322265625 3.6921875  C 14.6484375 4.303125  14.11376953125 5.026953125  13.71826171875 5.863671875  C 13.32275390625 6.700390625  13.125 7.57916666666667  13.125 8.5  C 13.125 9.42083333333333  13.32275390625 10.299609375  13.71826171875 11.136328125  C 14.11376953125 11.973046875  14.6484375 12.696875  15.322265625 13.3078125  C 15.99609375 13.91875  16.79443359375 14.403515625  17.71728515625 14.762109375  Z " fill-rule="nonzero" fill="#000000" stroke="none" transform="matrix(1 0 0 1 372 169 )" />
  </g>
</svg>