<?xml version="1.0" encoding="utf-8"?>
<svg version="1.1" xmlns:xlink="http://www.w3.org/1999/xlink" width="28px" height="15px" xmlns="http://www.w3.org/2000/svg">
  <g transform="matrix(1 0 0 1 -371 -230 )">
    <path d="M 15.1962890625 9.826171875  C 15.5654296875 9.087890625  15.75 8.3125  15.75 7.5  C 15.75 6.6875  15.5654296875 5.912109375  15.1962890625 5.173828125  C 14.8271484375 4.435546875  14.328125 3.796875  13.69921875 3.2578125  C 13.0703125 2.71875  12.3251953125 2.291015625  11.4638671875 1.974609375  C 10.6025390625 1.658203125  9.69791666666667 1.5  8.75 1.5  C 7.80208333333333 1.5  6.8974609375 1.658203125  6.0361328125 1.974609375  C 5.1748046875 2.291015625  4.4296875 2.71875  3.80078125 3.2578125  C 3.171875 3.796875  2.6728515625 4.435546875  2.3037109375 5.173828125  C 1.9345703125 5.912109375  1.75 6.6875  1.75 7.5  C 1.75 8.3125  1.9345703125 9.087890625  2.3037109375 9.826171875  C 2.6728515625 10.564453125  3.171875 11.203125  3.80078125 11.7421875  C 4.4296875 12.28125  5.1748046875 12.708984375  6.0361328125 13.025390625  C 6.8974609375 13.341796875  7.80208333333333 13.5  8.75 13.5  C 9.69791666666667 13.5  10.6025390625 13.341796875  11.4638671875 13.025390625  C 12.3251953125 12.708984375  13.0703125 12.28125  13.69921875 11.7421875  C 14.328125 11.203125  14.8271484375 10.564453125  15.1962890625 9.826171875  Z M 25.6962890625 9.826171875  C 26.0654296875 9.087890625  26.25 8.3125  26.25 7.5  C 26.25 6.6875  26.0654296875 5.912109375  25.6962890625 5.173828125  C 25.3271484375 4.435546875  24.828125 3.796875  24.19921875 3.2578125  C 23.5703125 2.71875  22.8251953125 2.291015625  21.9638671875 1.974609375  C 21.1025390625 1.658203125  20.1979166666667 1.5  19.25 1.5  L 13.97265625 1.5  C 15.0572916666667 2.203125  15.9163411458333 3.078125  16.5498046875 4.125  C 17.1832682291667 5.171875  17.5 6.296875  17.5 7.5  C 17.5 8.703125  17.1832682291667 9.828125  16.5498046875 10.875  C 15.9163411458333 11.921875  15.0572916666667 12.796875  13.97265625 13.5  L 19.25 13.5  C 20.1979166666667 13.5  21.1025390625 13.341796875  21.9638671875 13.025390625  C 22.8251953125 12.708984375  23.5703125 12.28125  24.19921875 11.7421875  C 24.828125 11.203125  25.3271484375 10.564453125  25.6962890625 9.826171875  Z M 27.302734375 4.587890625  C 27.767578125 5.513671875  28 6.484375  28 7.5  C 28 8.515625  27.767578125 9.486328125  27.302734375 10.412109375  C 26.837890625 11.337890625  26.2158203125 12.134765625  25.4365234375 12.802734375  C 24.6572265625 13.470703125  23.7275390625 14.00390625  22.6474609375 14.40234375  C 21.5673828125 14.80078125  20.4348958333333 15  19.25 15  L 8.75 15  C 7.56510416666667 15  6.4326171875 14.80078125  5.3525390625 14.40234375  C 4.2724609375 14.00390625  3.3427734375 13.470703125  2.5634765625 12.802734375  C 1.7841796875 12.134765625  1.162109375 11.337890625  0.697265625 10.412109375  C 0.232421875 9.486328125  0 8.515625  0 7.5  C 0 6.484375  0.232421875 5.513671875  0.697265625 4.587890625  C 1.162109375 3.662109375  1.7841796875 2.865234375  2.5634765625 2.197265625  C 3.3427734375 1.529296875  4.2724609375 0.99609375  5.3525390625 0.597656249999999  C 6.4326171875 0.19921875  7.56510416666667 0  8.75 0  L 19.25 0  C 20.4348958333333 0  21.5673828125 0.19921875  22.6474609375 0.597656249999999  C 23.7275390625 0.99609375  24.6572265625 1.529296875  25.4365234375 2.197265625  C 26.2158203125 2.865234375  26.837890625 3.662109375  27.302734375 4.587890625  Z " fill-rule="nonzero" fill="#000000" stroke="none" transform="matrix(1 0 0 1 371 230 )" />
  </g>
</svg>