<?xml version="1.0" encoding="utf-8"?>
<svg version="1.1" xmlns:xlink="http://www.w3.org/1999/xlink" width="14px" height="17px" xmlns="http://www.w3.org/2000/svg">
  <g transform="matrix(1 0 0 1 -441 -500 )">
    <path d="M 12.92578125 15.6955915178571  C 12.9752604166667 15.635509672619  13 15.5643601190476  13 15.4821428571429  L 13 5.16071428571429  C 13 5.07849702380952  12.9752604166667 5.00734747023809  12.92578125 4.947265625  C 12.8763020833333 4.8871837797619  12.8177083333333 4.85714285714286  12.75 4.85714285714286  L 4.25 4.85714285714286  C 4.18229166666667 4.85714285714286  4.12369791666667 4.8871837797619  4.07421875 4.947265625  C 4.02473958333333 5.00734747023809  4 5.07849702380952  4 5.16071428571429  L 4 15.4821428571429  C 4 15.5643601190476  4.02473958333333 15.635509672619  4.07421875 15.6955915178571  C 4.12369791666667 15.7556733630952  4.18229166666667 15.7857142857143  4.25 15.7857142857143  L 12.75 15.7857142857143  C 12.8177083333333 15.7857142857143  12.8763020833333 15.7556733630952  12.92578125 15.6955915178571  Z M 13.6328125 4.08872767857143  C 13.8776041666667 4.38597470238095  14 4.74330357142857  14 5.16071428571429  L 14 15.4821428571429  C 14 15.8995535714286  13.8776041666667 16.2568824404762  13.6328125 16.5541294642857  C 13.3880208333333 16.8513764880952  13.09375 17  12.75 17  L 4.25 17  C 3.90625 17  3.61197916666667 16.8513764880952  3.3671875 16.5541294642857  C 3.12239583333333 16.2568824404762  3 15.8995535714286  3 15.4821428571429  L 3 5.16071428571429  C 3 4.74330357142857  3.12239583333333 4.38597470238095  3.3671875 4.08872767857143  C 3.61197916666667 3.7914806547619  3.90625 3.64285714285714  4.25 3.64285714285714  L 12.75 3.64285714285714  C 13.09375 3.64285714285714  13.3880208333333 3.7914806547619  13.6328125 4.08872767857143  Z M 10.6328125 0.445870535714286  C 10.8776041666667 0.743117559523809  11 1.10044642857143  11 1.51785714285714  L 11 3.03571428571429  L 10 3.03571428571429  L 10 1.51785714285714  C 10 1.43563988095238  9.97526041666667 1.36449032738095  9.92578125 1.30440848214286  C 9.87630208333333 1.24432663690476  9.81770833333333 1.21428571428571  9.75 1.21428571428571  L 1.25 1.21428571428571  C 1.18229166666667 1.21428571428571  1.12369791666667 1.24432663690476  1.07421875 1.30440848214286  C 1.02473958333333 1.36449032738095  1 1.43563988095238  1 1.51785714285714  L 1 11.8392857142857  C 1 11.9215029761905  1.02473958333333 11.9926525297619  1.07421875 12.052734375  C 1.12369791666667 12.1128162202381  1.18229166666667 12.1428571428571  1.25 12.1428571428571  L 2.5 12.1428571428571  L 2.5 13.3571428571429  L 1.25 13.3571428571429  C 0.90625 13.3571428571429  0.611979166666667 13.2085193452381  0.3671875 12.9112723214286  C 0.122395833333333 12.614025297619  0 12.2566964285714  0 11.8392857142857  L 0 1.51785714285714  C 0 1.10044642857143  0.122395833333333 0.743117559523809  0.3671875 0.445870535714286  C 0.611979166666667 0.148623511904762  0.90625 0  1.25 0  L 9.75 0  C 10.09375 0  10.3880208333333 0.148623511904762  10.6328125 0.445870535714286  Z " fill-rule="nonzero" fill="#000000" stroke="none" transform="matrix(1 0 0 1 441 500 )" />
  </g>
</svg>