<?xml version="1.0" encoding="utf-8"?>
<svg version="1.1" xmlns:xlink="http://www.w3.org/1999/xlink" width="21px" height="18px" xmlns="http://www.w3.org/2000/svg">
  <g transform="matrix(1 0 0 1 -320 -2550 )">
    <path d="M 19.388671875 16.6188616071429  C 19.462890625 16.5552455357143  19.5 16.4799107142857  19.5 16.3928571428571  L 19.5 5.46428571428572  C 19.5 5.37723214285714  19.462890625 5.30189732142857  19.388671875 5.23828125  C 19.314453125 5.17466517857143  19.2265625 5.14285714285714  19.125 5.14285714285714  L 6.375 5.14285714285714  C 6.2734375 5.14285714285714  6.185546875 5.17466517857143  6.111328125 5.23828125  C 6.037109375 5.30189732142857  6 5.37723214285714  6 5.46428571428572  L 6 16.3928571428571  C 6 16.4799107142857  6.037109375 16.5552455357143  6.111328125 16.6188616071429  C 6.185546875 16.6824776785714  6.2734375 16.7142857142857  6.375 16.7142857142857  L 19.125 16.7142857142857  C 19.2265625 16.7142857142857  19.314453125 16.6824776785714  19.388671875 16.6188616071429  Z M 20.44921875 4.32924107142857  C 20.81640625 4.64397321428571  21 5.02232142857143  21 5.46428571428572  L 21 16.3928571428571  C 21 16.8348214285714  20.81640625 17.2131696428571  20.44921875 17.5279017857143  C 20.08203125 17.8426339285714  19.640625 18  19.125 18  L 6.375 18  C 5.859375 18  5.41796875 17.8426339285714  5.05078125 17.5279017857143  C 4.68359375 17.2131696428571  4.5 16.8348214285714  4.5 16.3928571428571  L 4.5 5.46428571428572  C 4.5 5.02232142857143  4.68359375 4.64397321428571  5.05078125 4.32924107142857  C 5.41796875 4.01450892857143  5.859375 3.85714285714286  6.375 4  L 19.125 4  C 19.640625 3.85714285714286  20.08203125 4.01450892857143  20.44921875 4.32924107142857  Z M 15.94921875 0.472098214285715  C 16.31640625 0.786830357142856  16.5 1.16517857142857  16.5 1.60714285714286  L 16.5 3.21428571428571  L 15 3.21428571428571  L 15 1.60714285714286  C 15 1.52008928571429  14.962890625 1.44475446428571  14.888671875 1.38113839285714  C 14.814453125 1.31752232142857  14.7265625 1.28571428571429  14.625 1.28571428571429  L 1.875 1.28571428571429  C 1.7734375 1.28571428571429  1.685546875 1.31752232142857  1.611328125 1.38113839285714  C 1.537109375 1.44475446428571  1.5 1.52008928571429  1.5 1.60714285714286  L 1.5 12.5357142857143  C 1.5 12.6227678571429  1.537109375 12.6981026785714  1.611328125 12.76171875  C 1.685546875 12.8253348214286  1.7734375 12.8571428571429  1.875 12.8571428571429  L 3.75 12.8571428571429  L 3.75 14.1428571428571  L 1.875 14.1428571428571  C 1.359375 14.1428571428571  0.91796875 13.9854910714286  0.55078125 13.6707589285714  C 0.18359375 13.3560267857143  0 12.9776785714286  0 12.5357142857143  L 0 1.60714285714286  C 0 1.16517857142857  0.18359375 0.786830357142856  0.55078125 0.472098214285715  C 0.91796875 0.157366071428572  1.359375 0  1.875 0  L 14.625 0  C 15.140625 0  15.58203125 0.157366071428572  15.94921875 0.472098214285715  Z " fill-rule="nonzero" fill="#000000" stroke="none" transform="matrix(1 0 0 1 320 2550 )" />
  </g>
</svg>