<?xml version="1.0" encoding="utf-8"?>
<svg version="1.1" xmlns:xlink="http://www.w3.org/1999/xlink" width="21px" height="18px" xmlns="http://www.w3.org/2000/svg">
  <g transform="matrix(1 0 0 1 -367 -216 )">
    <path d="M 377.5 216  C 383.38 216  388 219.96  388 225  C 388 230.04  383.38 234  377.5 234  C 371.62 234  367 230.04  367 225  C 367 219.96  371.62 216  377.5 216  Z " fill-rule="nonzero" fill="#d9001b" stroke="none" />
    <path d="M 377.5 216.5  C 383.1 216.5  387.5 220.24  387.5 225  C 387.5 229.76  383.1 233.5  377.5 233.5  C 371.9 233.5  367.5 229.76  367.5 225  C 367.5 220.24  371.9 216.5  377.5 216.5  Z " stroke-width="1" stroke="#797979" fill="none" />
  </g>
</svg>