<?xml version="1.0" encoding="utf-8"?>
<svg version="1.1" xmlns:xlink="http://www.w3.org/1999/xlink" width="133px" height="103px" xmlns="http://www.w3.org/2000/svg">
  <g transform="matrix(1 0 0 1 -1193 -327 )">
    <path d="M 1193 327  L 1326 327  L 1326 430  L 1193 430  L 1193 327  " fill-rule="nonzero" fill="#cccccc" stroke="none" />
    <path d="M 1200 334  L 1319 334  L 1319 423  L 1200 423  L 1200 334  " fill-rule="nonzero" fill="#ffffff" stroke="none" />
    <path d="M 1269.885 357.9  C 1265.559 357.9  1262.16 354.501  1262.16 350.175  C 1262.16 345.849  1265.559 342.45  1269.885 342.45  C 1274.211 342.45  1277.61 345.849  1277.61 350.175  C 1277.61 354.501  1274.211 357.9  1269.885 357.9  " fill-rule="nonzero" fill="#cccccc" stroke="none" />
    <path d="M 1203 421  L 1203 374.8  L 1231.5 353.8  L 1271.4 381.968421052632  L 1294.2 366.4  L 1317 381.968421052632  L 1317 421  L 1203 421  " fill-rule="nonzero" fill="#169bd5" stroke="none" />
  </g>
</svg>