<?xml version="1.0" encoding="utf-8"?>
<svg version="1.1" xmlns:xlink="http://www.w3.org/1999/xlink" width="10px" height="9px" xmlns="http://www.w3.org/2000/svg">
  <g transform="matrix(1 0 0 1 -321 -100 )">
    <path d="M 326 100  C 328.8 100  331 101.98  331 104.5  C 331 107.02  328.8 109  326 109  C 323.2 109  321 107.02  321 104.5  C 321 101.98  323.2 100  326 100  Z " fill-rule="nonzero" fill="#d9001b" stroke="none" />
    <path d="M 326 100.5  C 328.52 100.5  330.5 102.26  330.5 104.5  C 330.5 106.74  328.52 108.5  326 108.5  C 323.48 108.5  321.5 106.74  321.5 104.5  C 321.5 102.26  323.48 100.5  326 100.5  Z " stroke-width="1" stroke="#797979" fill="none" />
  </g>
</svg>