<?xml version="1.0" encoding="utf-8"?>
<svg version="1.1" xmlns:xlink="http://www.w3.org/1999/xlink" width="19px" height="20px" xmlns="http://www.w3.org/2000/svg">
  <g transform="matrix(1 0 0 1 -380 -99 )">
    <path d="M 14.806640625 11.4192708333333  C 14.9633246527778 11.2543402777778  15.0416666666667 11.0590277777778  15.0416666666667 10.8333333333333  L 15.0416666666667 9.16666666666667  C 15.0416666666667 8.94097222222222  14.9633246527778 8.74565972222222  14.806640625 8.58072916666667  C 14.6499565972222 8.41579861111111  14.4644097222222 8.33333333333333  14.25 8.33333333333333  L 11.0833333333333 8.33333333333333  L 11.0833333333333 5  C 11.0833333333333 4.77430555555555  11.0049913194444 4.57899305555555  10.8483072916667 4.4140625  C 10.6916232638889 4.24913194444444  10.5060763888889 4.16666666666667  10.2916666666667 4.16666666666667  L 8.70833333333333 4.16666666666667  C 8.49392361111111 4.16666666666667  8.30837673611111 4.24913194444444  8.15169270833333 4.4140625  C 7.99500868055556 4.57899305555555  7.91666666666667 4.77430555555555  7.91666666666667 5  L 7.91666666666667 8.33333333333333  L 4.75 8.33333333333333  C 4.53559027777778 8.33333333333333  4.35004340277778 8.41579861111111  4.193359375 8.58072916666667  C 4.03667534722222 8.74565972222222  3.95833333333333 8.94097222222222  3.95833333333333 9.16666666666667  L 3.95833333333333 10.8333333333333  C 3.95833333333333 11.0590277777778  4.03667534722222 11.2543402777778  4.193359375 11.4192708333333  C 4.35004340277778 11.5842013888889  4.53559027777778 11.6666666666667  4.75 11.6666666666667  L 7.91666666666667 11.6666666666667  L 7.91666666666667 15  C 7.91666666666667 15.2256944444444  7.99500868055556 15.4210069444444  8.15169270833333 15.5859375  C 8.30837673611111 15.7508680555556  8.49392361111111 15.8333333333333  8.70833333333333 15.8333333333333  L 10.2916666666667 15.8333333333333  C 10.5060763888889 15.8333333333333  10.6916232638889 15.7508680555556  10.8483072916667 15.5859375  C 11.0049913194444 15.4210069444444  11.0833333333333 15.2256944444444  11.0833333333333 15  L 11.0833333333333 11.6666666666667  L 14.25 11.6666666666667  C 14.4644097222222 11.6666666666667  14.6499565972222 11.5842013888889  14.806640625 11.4192708333333  Z M 17.7259114583333 4.98046875  C 18.5753038194444 6.51258680555555  19 8.18576388888889  19 10  C 19 11.8142361111111  18.5753038194444 13.4874131944444  17.7259114583333 15.01953125  C 16.8765190972222 16.5516493055556  15.7240668402778 17.7647569444444  14.2685546875 18.6588541666667  C 12.8130425347222 19.5529513888889  11.2235243055556 20  9.5 20  C 7.77647569444444 20  6.18695746527778 19.5529513888889  4.7314453125 18.6588541666667  C 3.27593315972222 17.7647569444444  2.12348090277778 16.5516493055556  1.27408854166667 15.01953125  C 0.424696180555555 13.4874131944444  0 11.8142361111111  0 10  C 0 8.18576388888889  0.424696180555555 6.51258680555555  1.27408854166667 4.98046875  C 2.12348090277778 3.44835069444444  3.27593315972222 2.23524305555555  4.7314453125 1.34114583333333  C 6.18695746527778 0.447048611111109  7.77647569444444 0  9.5 0  C 11.2235243055556 0  12.8130425347222 0.447048611111109  14.2685546875 1.34114583333333  C 15.7240668402778 2.23524305555555  16.8765190972222 3.44835069444444  17.7259114583333 4.98046875  Z " fill-rule="nonzero" fill="#000000" stroke="none" transform="matrix(1 0 0 1 380 99 )" />
  </g>
</svg>