<?xml version="1.0" encoding="utf-8"?>
<svg version="1.1" xmlns:xlink="http://www.w3.org/1999/xlink" width="18px" height="17px" xmlns="http://www.w3.org/2000/svg">
  <g transform="matrix(1 0 0 1 -237 -2 )">
    <path d="M 246 2  C 251.04 2  255 5.74  255 10.5  C 255 15.26  251.04 19  246 19  C 240.96 19  237 15.26  237 10.5  C 237 5.74  240.96 2  246 2  Z " fill-rule="nonzero" fill="#d9001b" stroke="none" />
    <path d="M 246 2.5  C 250.76 2.5  254.5 6.02  254.5 10.5  C 254.5 14.98  250.76 18.5  246 18.5  C 241.24 18.5  237.5 14.98  237.5 10.5  C 237.5 6.02  241.24 2.5  246 2.5  Z " stroke-width="1" stroke="#797979" fill="none" />
  </g>
</svg>