<?xml version="1.0" encoding="utf-8"?>
<svg version="1.1" xmlns:xlink="http://www.w3.org/1999/xlink" width="42px" height="42px" xmlns="http://www.w3.org/2000/svg">
  <defs>
    <mask fill="white" id="clip12">
      <path d="M 79 227  C 67.345 227  58 217.655  58 206  L 58 206  C 58 194.345  67.345 185  79 185  L 79 185  C 90.655 185  100 194.345  100 206  L 100 206  C 100 217.655  90.655 227  79 227  " fill-rule="evenodd" />
    </mask>
  </defs>
  <g transform="matrix(1 0 0 1 -58 -185 )">
    <path d="M 58 185  L 100 185  L 100 227  L 58 227  L 58 185  " fill-rule="nonzero" fill="#cccccc" stroke="none" mask="url(#clip12)" />
    <path d="M 61 188  L 97 188  L 97 224  L 61 224  L 61 188  " fill-rule="nonzero" fill="#ffffff" stroke="none" mask="url(#clip12)" />
    <path d="M 82.99 197.6  C 81.226 197.6  79.84 196.214  79.84 194.45  C 79.84 192.686  81.226 191.3  82.99 191.3  C 84.754 191.3  86.14 192.686  86.14 194.45  C 86.14 196.214  84.754 197.6  82.99 197.6  " fill-rule="nonzero" fill="#cccccc" stroke="none" mask="url(#clip12)" />
    <path d="M 62 223  L 62 204.3  L 70.5 195.8  L 82.4 202.6  L 89.2 200.9  L 96 202.6  L 96 223  L 62 223  " fill-rule="nonzero" fill="#169bd5" stroke="none" mask="url(#clip12)" />
  </g>
</svg>