<?xml version="1.0" encoding="utf-8"?>
<svg version="1.1" xmlns:xlink="http://www.w3.org/1999/xlink" width="22px" height="22px" xmlns="http://www.w3.org/2000/svg">
  <g transform="matrix(1 0 0 1 -68 -2598 )">
    <path d="M 5.86666666666667 7.85714285714286  C 5.86666666666667 8.99479166666667  6.17604166666667 10.0424107142857  6.79479166666667 11  C 5.55729166666667 11.0409226190476  4.54513888888889 11.5647321428571  3.75833333333333 12.5714285714286  L 2.22291666666667 12.5714285714286  C 1.59652777777778 12.5714285714286  1.06944444444444 12.4056919642857  0.641666666666667 12.07421875  C 0.213888888888889 11.7427455357143  0 11.2578125  0 10.6194196428571  C 0 7.73028273809524  0.473611111111111 6.28571428571429  1.42083333333333 6.28571428571429  C 1.46666666666667 6.28571428571429  1.6328125 6.37165178571429  1.91927083333333 6.54352678571429  C 2.20572916666667 6.71540178571429  2.578125 6.88932291666667  3.03645833333333 7.06529017857143  C 3.49479166666667 7.24125744047619  3.94930555555556 7.32924107142857  4.4 7.32924107142857  C 4.91180555555556 7.32924107142857  5.41979166666667 7.23511904761905  5.92395833333333 7.046875  C 5.88576388888889 7.34970238095238  5.86666666666667 7.61979166666667  5.86666666666667 7.85714285714286  Z M 19.0265625 17.5496651785714  C 19.0532986111111 17.9629836309524  19.0666666666667 18.3865327380952  19.0666666666667 18.8203125  C 19.0666666666667 19.8024553571429  18.7878472222222 20.5779389880952  18.2302083333333 21.1467633928571  C 17.6725694444444 21.715587797619  16.9315972222222 22  16.0072916666667 22  L 5.99270833333333 22  C 5.06840277777778 22  4.32743055555556 21.715587797619  3.76979166666667 21.1467633928571  C 3.21215277777778 20.5779389880952  2.93333333333333 19.8024553571429  2.93333333333333 18.8203125  C 2.93333333333333 18.3865327380952  2.94670138888889 17.9629836309524  2.9734375 17.5496651785714  C 3.00017361111111 17.1363467261905  3.05364583333333 16.6902901785714  3.13385416666667 16.2114955357143  C 3.2140625 15.7327008928571  3.31527777777778 15.2886904761905  3.4375 14.8794642857143  C 3.55972222222222 14.4702380952381  3.72395833333333 14.0712425595238  3.93020833333333 13.6824776785714  C 4.13645833333333 13.293712797619  4.37326388888889 12.9622395833333  4.640625 12.6880580357143  C 4.90798611111111 12.4138764880952  5.23454861111111 12.1949404761905  5.6203125 12.03125  C 6.00607638888889 11.8675595238095  6.43194444444444 11.7857142857143  6.89791666666667 11.7857142857143  C 6.97430555555556 11.7857142857143  7.13854166666667 11.8736979166667  7.390625 12.0496651785714  C 7.64270833333333 12.2256324404762  7.92152777777778 12.4220610119048  8.22708333333333 12.6389508928571  C 8.53263888888889 12.8558407738095  8.94131944444445 13.0522693452381  9.453125 13.2282366071429  C 9.96493055555556 13.4042038690476  10.4805555555556 13.4921875  11 13.4921875  C 11.5194444444444 13.4921875  12.0350694444444 13.4042038690476  12.546875 13.2282366071429  C 13.0586805555556 13.0522693452381  13.4673611111111 12.8558407738095  13.7729166666667 12.6389508928571  C 14.0784722222222 12.4220610119048  14.3572916666667 12.2256324404762  14.609375 12.0496651785714  C 14.8614583333333 11.8736979166667  15.0256944444444 11.7857142857143  15.1020833333333 11.7857142857143  C 15.5680555555556 11.7857142857143  15.9939236111111 11.8675595238095  16.3796875 12.03125  C 16.7654513888889 12.1949404761905  17.0920138888889 12.4138764880952  17.359375 12.6880580357143  C 17.6267361111111 12.9622395833333  17.8635416666667 13.293712797619  18.0697916666667 13.6824776785714  C 18.2760416666667 14.0712425595238  18.4402777777778 14.4702380952381  18.5625 14.8794642857143  C 18.6847222222222 15.2886904761905  18.7859375 15.7327008928571  18.8661458333333 16.2114955357143  C 18.9463541666667 16.6902901785714  18.9998263888889 17.1363467261905  19.0265625 17.5496651785714  Z M 6.47395833333333 0.920758928571429  C 7.046875 1.53459821428571  7.33333333333333 2.27529761904762  7.33333333333333 3.14285714285714  C 7.33333333333333 4.01041666666667  7.046875 4.75111607142857  6.47395833333333 5.36495535714286  C 5.90104166666667 5.97879464285714  5.20972222222222 6.28571428571429  4.4 6.28571428571429  C 3.59027777777778 6.28571428571429  2.89895833333333 5.97879464285714  2.32604166666667 5.36495535714286  C 1.753125 4.75111607142857  1.46666666666667 4.01041666666667  1.46666666666667 3.14285714285714  C 1.46666666666667 2.27529761904762  1.753125 1.53459821428571  2.32604166666667 0.920758928571429  C 2.89895833333333 0.306919642857144  3.59027777777778 0  4.4 0  C 5.20972222222222 0  5.90104166666667 0.306919642857144  6.47395833333333 0.920758928571429  Z M 14.1109375 4.52399553571429  C 14.9703125 5.44475446428571  15.4 6.55580357142857  15.4 7.85714285714286  C 15.4 9.15848214285714  14.9703125 10.26953125  14.1109375 11.1902901785714  C 13.2515625 12.1110491071429  12.2145833333333 12.5714285714286  11 12.5714285714286  C 9.78541666666667 12.5714285714286  8.7484375 12.1110491071429  7.8890625 11.1902901785714  C 7.0296875 10.26953125  6.6 9.15848214285714  6.6 7.85714285714286  C 6.6 6.55580357142857  7.0296875 5.44475446428571  7.8890625 4.52399553571429  C 8.7484375 3.60323660714286  9.78541666666667 3.14285714285714  11 3.14285714285714  C 12.2145833333333 3.14285714285714  13.2515625 3.60323660714286  14.1109375 4.52399553571429  Z M 20.5791666666667 6.28571428571429  C 21.5263888888889 6.28571428571429  22 7.73028273809524  22 10.6194196428571  C 22 11.2578125  21.7861111111111 11.7427455357143  21.3583333333333 12.07421875  C 20.9305555555556 12.4056919642857  20.4034722222222 12.5714285714286  19.7770833333333 12.5714285714286  L 18.2416666666667 12.5714285714286  C 17.4548611111111 11.5647321428571  16.4427083333333 11.0409226190476  15.2052083333333 11  C 15.8239583333333 10.0424107142857  16.1333333333333 8.99479166666667  16.1333333333333 7.85714285714286  C 16.1333333333333 7.61979166666667  16.1142361111111 7.34970238095238  16.0760416666667 7.046875  C 16.5802083333333 7.23511904761905  17.0881944444444 7.32924107142857  17.6 7.32924107142857  C 18.0506944444444 7.32924107142857  18.5052083333333 7.24125744047619  18.9635416666667 7.06529017857143  C 19.421875 6.88932291666667  19.7942708333333 6.71540178571429  20.0807291666667 6.54352678571429  C 20.3671875 6.37165178571429  20.5333333333333 6.28571428571429  20.5791666666667 6.28571428571429  Z M 19.6739583333333 0.920758928571429  C 20.246875 1.53459821428571  20.5333333333333 2.27529761904762  20.5333333333333 3.14285714285714  C 20.5333333333333 4.01041666666667  20.246875 4.75111607142857  19.6739583333333 5.36495535714286  C 19.1010416666667 5.97879464285714  18.4097222222222 6.28571428571429  17.6 6.28571428571429  C 16.7902777777778 6.28571428571429  16.0989583333333 5.97879464285714  15.5260416666667 5.36495535714286  C 14.953125 4.75111607142857  14.6666666666667 4.01041666666667  14.6666666666667 3.14285714285714  C 14.6666666666667 2.27529761904762  14.953125 1.53459821428571  15.5260416666667 0.920758928571429  C 16.0989583333333 0.306919642857144  16.7902777777778 0  17.6 0  C 18.4097222222222 0  19.1010416666667 0.306919642857144  19.6739583333333 0.920758928571429  Z " fill-rule="nonzero" fill="#000000" stroke="none" transform="matrix(1 0 0 1 68 2598 )" />
  </g>
</svg>