<?xml version="1.0" encoding="utf-8"?>
<svg version="1.1" xmlns:xlink="http://www.w3.org/1999/xlink" width="220px" height="189px" xmlns="http://www.w3.org/2000/svg">
  <g transform="matrix(1 0 0 1 -103 -226 )">
    <path d="M 40 137  L 60 137  L 60 154  L 40 154  L 40 137  Z M 40 35  L 60 35  L 60 52  L 40 52  L 40 35  Z M 160 35  L 180 35  L 180 52  L 160 52  L 160 35  Z M 20 120  L 20 171  L 80 171  L 80 120  L 20 120  Z M 20 18  L 20 69  L 80 69  L 80 18  L 20 18  Z M 140 18  L 140 69  L 200 69  L 200 18  L 140 18  Z M 0 103  L 100 103  L 100 189  L 0 189  L 0 103  Z M 160 171  L 180 171  L 180 189  L 160 189  L 160 171  Z M 200 171  L 220 171  L 220 189  L 200 189  L 200 171  Z M 200 103  L 220 103  L 220 154  L 160 154  L 160 137  L 140 137  L 140 189  L 120 189  L 120 103  L 180 103  L 180 120  L 200 120  L 200 103  Z M 0 0  L 100 0  L 100 86  L 0 86  L 0 0  Z M 120 0  L 220 0  L 220 86  L 120 86  L 120 0  Z " fill-rule="nonzero" fill="#000000" stroke="none" transform="matrix(1 0 0 1 103 226 )" />
  </g>
</svg>