<?xml version="1.0" encoding="utf-8"?>
<svg version="1.1" xmlns:xlink="http://www.w3.org/1999/xlink" width="40px" height="42px" xmlns="http://www.w3.org/2000/svg">
  <g transform="matrix(1 0 0 1 -199 -257 )">
    <path d="M 219 257  C 230.2 257  239 266.24  239 278  C 239 289.76  230.2 299  219 299  C 207.8 299  199 289.76  199 278  C 199 266.24  207.8 257  219 257  Z " fill-rule="nonzero" fill="#ffffff" stroke="none" />
    <path d="M 219 257.5  C 229.92 257.5  238.5 266.52  238.5 278  C 238.5 289.48  229.92 298.5  219 298.5  C 208.08 298.5  199.5 289.48  199.5 278  C 199.5 266.52  208.08 257.5  219 257.5  Z " stroke-width="1" stroke="#797979" fill="none" />
  </g>
</svg>