<?xml version="1.0" encoding="utf-8"?>
<svg version="1.1" xmlns:xlink="http://www.w3.org/1999/xlink" width="29px" height="27px" xmlns="http://www.w3.org/2000/svg">
  <g transform="matrix(1 0 0 1 -942 -341 )">
    <path d="M 28.3164983164983 20.1818181818182  C 28.7721661054994 20.6060606060606  29 21.1212121212121  29 21.7272727272727  C 29 22.3333333333333  28.7721661054994 22.8484848484848  28.3164983164983 23.2727272727273  L 24.996632996633 26.3636363636364  C 24.5409652076319 26.7878787878788  23.9876543209877 27  23.3367003367003 27  C 22.685746352413 27  22.1324354657688 26.7878787878788  21.6767676767677 26.3636363636364  L 14.5 19.6818181818182  L 7.32323232323232 26.3636363636364  C 6.8675645342312 26.7878787878788  6.31425364758698 27  5.66329966329966 27  C 5.01234567901235 27  4.45903479236813 26.7878787878788  4.003367003367 26.3636363636364  L 0.683501683501683 23.2727272727273  C 0.227833894500561 22.8484848484848  0 22.3333333333333  0 21.7272727272727  C 0 21.1212121212121  0.227833894500561 20.6060606060606  0.683501683501683 20.1818181818182  L 7.86026936026936 13.5  L 0.683501683501683 6.81818181818182  C 0.227833894500561 6.39393939393939  0 5.87878787878788  0 5.27272727272727  C 0 4.66666666666667  0.227833894500561 4.15151515151515  0.683501683501683 3.72727272727273  L 4.003367003367 0.636363636363636  C 4.45903479236813 0.212121212121211  5.01234567901235 0  5.66329966329966 0  C 6.31425364758698 0  6.8675645342312 0.212121212121211  7.32323232323232 0.636363636363636  L 14.5 7.31818181818182  L 21.6767676767677 0.636363636363636  C 22.1324354657688 0.212121212121211  22.685746352413 0  23.3367003367003 0  C 23.9876543209877 0  24.5409652076319 0.212121212121211  24.996632996633 0.636363636363636  L 28.3164983164983 3.72727272727273  C 28.7721661054994 4.15151515151515  29 4.66666666666667  29 5.27272727272727  C 29 5.87878787878788  28.7721661054994 6.39393939393939  28.3164983164983 6.81818181818182  L 21.1397306397306 13.5  L 28.3164983164983 20.1818181818182  Z " fill-rule="nonzero" fill="#000000" stroke="none" transform="matrix(1 0 0 1 942 341 )" />
  </g>
</svg>