<?xml version="1.0" encoding="utf-8"?>
<svg version="1.1" xmlns:xlink="http://www.w3.org/1999/xlink" width="12px" height="12px" viewBox="47 2231  12 12" xmlns="http://www.w3.org/2000/svg">
  <path d="M 53 2231  C 56.36 2231  59 2233.64  59 2237  C 59 2240.36  56.36 2243  53 2243  C 49.64 2243  47 2240.36  47 2237  C 47 2233.64  49.64 2231  53 2231  Z " fill-rule="nonzero" fill="#f0f0f0" stroke="none" />
  <path d="M 53 2231.5  C 56.08 2231.5  58.5 2233.92  58.5 2237  C 58.5 2240.08  56.08 2242.5  53 2242.5  C 49.92 2242.5  47.5 2240.08  47.5 2237  C 47.5 2233.92  49.92 2231.5  53 2231.5  Z " stroke-width="1" stroke="#797979" fill="none" />
  <path d="M 53 2240  C 51.32 2240  50 2238.68  50 2237  C 50 2235.32  51.32 2234  53 2234  C 54.68 2234  56 2235.32  56 2237  C 56 2238.68  54.68 2240  53 2240  " fill-rule="nonzero" fill="#797979" stroke="none" />
</svg>