<?xml version="1.0" encoding="utf-8"?>
<svg version="1.1" xmlns:xlink="http://www.w3.org/1999/xlink" width="12px" height="12px" viewBox="47 1323  12 12" xmlns="http://www.w3.org/2000/svg">
  <path d="M 53 1323  C 56.36 1323  59 1325.64  59 1329  C 59 1332.36  56.36 1335  53 1335  C 49.64 1335  47 1332.36  47 1329  C 47 1325.64  49.64 1323  53 1323  Z " fill-rule="nonzero" fill="#ffffff" stroke="none" />
  <path d="M 53 1323.5  C 56.08 1323.5  58.5 1325.92  58.5 1329  C 58.5 1332.08  56.08 1334.5  53 1334.5  C 49.92 1334.5  47.5 1332.08  47.5 1329  C 47.5 1325.92  49.92 1323.5  53 1323.5  Z " stroke-width="1" stroke="#797979" fill="none" />
  <path d="M 53 1332  C 51.32 1332  50 1330.68  50 1329  C 50 1327.32  51.32 1326  53 1326  C 54.68 1326  56 1327.32  56 1329  C 56 1330.68  54.68 1332  53 1332  " fill-rule="nonzero" fill="#797979" stroke="none" />
</svg>