<?xml version="1.0" encoding="utf-8"?>
<svg version="1.1" xmlns:xlink="http://www.w3.org/1999/xlink" width="12px" height="12px" viewBox="55 3124  12 12" xmlns="http://www.w3.org/2000/svg">
  <path d="M 61 3124  C 64.36 3124  67 3126.64  67 3130  C 67 3133.36  64.36 3136  61 3136  C 57.64 3136  55 3133.36  55 3130  C 55 3126.64  57.64 3124  61 3124  Z " fill-rule="nonzero" fill="#ffffff" stroke="none" />
  <path d="M 61 3124.5  C 64.08 3124.5  66.5 3126.92  66.5 3130  C 66.5 3133.08  64.08 3135.5  61 3135.5  C 57.92 3135.5  55.5 3133.08  55.5 3130  C 55.5 3126.92  57.92 3124.5  61 3124.5  Z " stroke-width="1" stroke="#797979" fill="none" />
  <path d="M 61 3133  C 59.32 3133  58 3131.68  58 3130  C 58 3128.32  59.32 3127  61 3127  C 62.68 3127  64 3128.32  64 3130  C 64 3131.68  62.68 3133  61 3133  " fill-rule="nonzero" fill="#797979" stroke="none" />
</svg>