<?xml version="1.0" encoding="utf-8"?>
<svg version="1.1" xmlns:xlink="http://www.w3.org/1999/xlink" width="12px" height="12px" viewBox="47 427  12 12" xmlns="http://www.w3.org/2000/svg">
  <path d="M 53 427  C 56.36 427  59 429.64  59 433  C 59 436.36  56.36 439  53 439  C 49.64 439  47 436.36  47 433  C 47 429.64  49.64 427  53 427  Z " fill-rule="nonzero" fill="#f0f0f0" stroke="none" />
  <path d="M 53 427.5  C 56.08 427.5  58.5 429.92  58.5 433  C 58.5 436.08  56.08 438.5  53 438.5  C 49.92 438.5  47.5 436.08  47.5 433  C 47.5 429.92  49.92 427.5  53 427.5  Z " stroke-width="1" stroke="#797979" fill="none" />
  <path d="M 53 436  C 51.32 436  50 434.68  50 433  C 50 431.32  51.32 430  53 430  C 54.68 430  56 431.32  56 433  C 56 434.68  54.68 436  53 436  " fill-rule="nonzero" fill="#797979" stroke="none" />
</svg>