<?xml version="1.0" encoding="utf-8"?>
<svg version="1.1" xmlns:xlink="http://www.w3.org/1999/xlink" width="27px" height="25px" xmlns="http://www.w3.org/2000/svg">
  <g transform="matrix(1 0 0 1 -32 -136 )">
    <path d="M 16.55859375 15.33203125  C 17.9810697115385 14.0149238782051  18.6923076923077 12.4298878205128  18.6923076923077 10.5769230769231  C 18.6923076923077 8.72395833333333  17.9810697115385 7.13892227564102  16.55859375 5.82181490384615  C 15.1361177884615 4.50470753205128  13.4242788461538 3.84615384615385  11.4230769230769 3.84615384615385  C 9.421875 3.84615384615385  7.71003605769231 4.50470753205128  6.28756009615385 5.82181490384615  C 4.86508413461539 7.13892227564102  4.15384615384615 8.72395833333333  4.15384615384615 10.5769230769231  C 4.15384615384615 12.4298878205128  4.86508413461539 14.0149238782051  6.28756009615385 15.33203125  C 7.71003605769231 16.6491386217949  9.421875 17.3076923076923  11.4230769230769 17.3076923076923  C 13.4242788461538 17.3076923076923  15.1361177884615 16.6491386217949  16.55859375 15.33203125  Z M 26.3996394230769 21.7247596153846  C 26.7998798076923 22.0953525641026  27 22.5460737179487  27 23.0769230769231  C 27 23.5977564102564  26.7944711538462 24.0484775641026  26.3834134615385 24.4290865384615  C 25.9723557692308 24.8096955128205  25.4855769230769 25  24.9230769230769 25  C 24.3389423076923 25  23.8521634615385 24.8096955128205  23.4627403846154 24.4290865384615  L 17.8972355769231 19.2908653846154  C 15.9609375 20.5328525641026  13.8028846153846 21.1538461538462  11.4230769230769 21.1538461538462  C 9.87620192307692 21.1538461538462  8.39693509615385 20.8759014423077  6.98527644230769 20.3200120192308  C 5.57361778846154 19.7641225961538  4.35667067307692 19.0129206730769  3.33443509615385 18.06640625  C 2.31219951923077 17.1198918269231  1.50090144230769 15.9930889423077  0.900540865384615 14.6859975961538  C 0.300180288461538 13.37890625  0 12.0092147435897  0 10.5769230769231  C 0 9.14463141025641  0.300180288461538 7.77493990384615  0.900540865384615 6.46784855769231  C 1.50090144230769 5.16075721153846  2.31219951923077 4.03395432692308  3.33443509615385 3.08743990384615  C 4.35667067307692 2.14092548076923  5.57361778846154 1.38972355769231  6.98527644230769 0.833834134615385  C 8.39693509615385 0.277944711538461  9.87620192307692 0  11.4230769230769 0  C 12.9699519230769 0  14.44921875 0.277944711538461  15.8608774038462 0.833834134615385  C 17.2725360576923 1.38972355769231  18.4894831730769 2.14092548076923  19.51171875 3.08743990384615  C 20.5339543269231 4.03395432692308  21.3452524038462 5.16075721153846  21.9456129807692 6.46784855769231  C 22.5459735576923 7.77493990384615  22.8461538461538 9.14463141025641  22.8461538461538 10.5769230769231  C 22.8461538461538 12.7804487179487  22.1754807692308 14.7786458333333  20.8341346153846 16.5715144230769  L 26.3996394230769 21.7247596153846  Z " fill-rule="nonzero" fill="#000000" stroke="none" transform="matrix(1 0 0 1 32 136 )" />
  </g>
</svg>