<?xml version="1.0" encoding="utf-8"?>
<svg version="1.1" xmlns:xlink="http://www.w3.org/1999/xlink" width="14px" height="7px" xmlns="http://www.w3.org/2000/svg">
  <g transform="matrix(1 0 0 1 -2005 -453 )">
    <path d="M 13.9270833333333 2.41222366710013  C 13.9756944444444 2.4668400520156  14 2.53662765496316  14 2.62158647594278  L 14 4.36931079323797  C 14 4.4542696142176  13.9756944444444 4.52405721716515  13.9270833333333 4.57867360208062  C 13.8784722222222 4.6332899869961  13.8163580246914 4.66059817945384  13.7407407407407 4.66059817945384  L 3.62962962962963 4.66059817945384  L 3.62962962962963 6.69960988296489  C 3.62962962962963 6.82704811443433  3.57831790123457 6.91504117902037  3.47569444444444 6.96358907672302  C 3.37307098765432 7.01213697442566  3.27854938271605 6.99696575639359  3.19212962962963 6.91807542262679  L 0.0810185185185185 3.73211963589077  C 0.0270061728395063 3.67143476376246  0 3.60164716081491  0 3.52275682704811  C 0 3.43779800606849  0.0270061728395063 3.36497615951452  0.0810185185185185 3.30429128738622  L 3.19212962962963 0.0819245773732121  C 3.27854938271605 -0.00303424360641702  3.37307098765432 -0.0212397052449083  3.47569444444444 0.0273081924577376  C 3.57831790123457 0.0819245773732121  3.62962962962963 0.169917641959254  3.62962962962963 0.291287386215864  L 3.62962962962963 2.33029908972692  L 13.7407407407407 2.33029908972692  C 13.8163580246914 2.33029908972692  13.8784722222222 2.35760728218466  13.9270833333333 2.41222366710013  Z " fill-rule="nonzero" fill="#000000" stroke="none" transform="matrix(1 0 0 1 2005 453 )" />
  </g>
</svg>