<?xml version="1.0" encoding="utf-8"?>
<svg version="1.1" xmlns:xlink="http://www.w3.org/1999/xlink" width="16px" height="14px" xmlns="http://www.w3.org/2000/svg">
  <g transform="matrix(1 0 0 1 -2007 -537 )">
    <path d="M 14.7723214285714 12.92578125  C 14.828869047619 12.8763020833333  14.8571428571429 12.8177083333333  14.8571428571429 12.75  L 14.8571428571429 4.25  C 14.8571428571429 4.18229166666667  14.828869047619 4.12369791666667  14.7723214285714 4.07421875  C 14.7157738095238 4.02473958333333  14.6488095238095 4  14.5714285714286 4  L 4.85714285714286 4  C 4.77976190476191 4  4.71279761904762 4.02473958333333  4.65625 4.07421875  C 4.59970238095238 4.12369791666667  4.57142857142857 4.18229166666667  4.57142857142857 4.25  L 4.57142857142857 12.75  C 4.57142857142857 12.8177083333333  4.59970238095238 12.8763020833333  4.65625 12.92578125  C 4.71279761904762 12.9752604166667  4.77976190476191 13  4.85714285714286 13  L 14.5714285714286 13  C 14.6488095238095 13  14.7157738095238 12.9752604166667  14.7723214285714 12.92578125  Z M 15.5803571428571 3.3671875  C 15.860119047619 3.61197916666667  16 3.90625  16 4.25  L 16 12.75  C 16 13.09375  15.860119047619 13.3880208333333  15.5803571428571 13.6328125  C 15.3005952380952 13.8776041666667  14.9642857142857 14  14.5714285714286 14  L 4.85714285714286 14  C 4.46428571428571 14  4.12797619047619 13.8776041666667  3.84821428571429 13.6328125  C 3.56845238095238 13.3880208333333  3.42857142857143 13.09375  3.42857142857143 12.75  L 3.42857142857143 4.25  C 3.42857142857143 3.90625  3.56845238095238 3.61197916666667  3.84821428571429 3.3671875  C 4.12797619047619 3.12239583333333  4.46428571428571 3  4.85714285714286 3  L 14.5714285714286 3  C 14.9642857142857 3  15.3005952380952 3.12239583333333  15.5803571428571 3.3671875  Z M 12.1517857142857 0.3671875  C 12.4315476190476 0.611979166666666  12.5714285714286 0.906250000000001  12.5714285714286 1.25  L 12.5714285714286 2.5  L 11.4285714285714 2.5  L 11.4285714285714 1.25  C 11.4285714285714 1.18229166666667  11.4002976190476 1.12369791666667  11.34375 1.07421875  C 11.2872023809524 1.02473958333333  11.2202380952381 1  11.1428571428571 1  L 1.42857142857143 1  C 1.35119047619048 1  1.28422619047619 1.02473958333333  1.22767857142857 1.07421875  C 1.17113095238095 1.12369791666667  1.14285714285714 1.18229166666667  1.14285714285714 1.25  L 1.14285714285714 9.75  C 1.14285714285714 9.81770833333333  1.17113095238095 9.87630208333333  1.22767857142857 9.92578125  C 1.28422619047619 9.97526041666667  1.35119047619048 10  1.42857142857143 10  L 2.85714285714286 10  L 2.85714285714286 11  L 1.42857142857143 11  C 1.03571428571429 11  0.699404761904762 10.8776041666667  0.419642857142857 10.6328125  C 0.139880952380952 10.3880208333333  0 10.09375  0 9.75  L 0 1.25  C 0 0.906250000000001  0.139880952380952 0.611979166666666  0.419642857142857 0.3671875  C 0.699404761904762 0.122395833333333  1.03571428571429 0  1.42857142857143 0  L 11.1428571428571 0  C 11.5357142857143 0  11.8720238095238 0.122395833333333  12.1517857142857 0.3671875  Z " fill-rule="nonzero" fill="#000000" stroke="none" transform="matrix(1 0 0 1 2007 537 )" />
  </g>
</svg>