<?xml version="1.0" encoding="utf-8"?>
<svg version="1.1" xmlns:xlink="http://www.w3.org/1999/xlink" width="56px" height="57px" xmlns="http://www.w3.org/2000/svg">
  <g transform="matrix(1 0 0 1 -2563 -573 )">
    <path d="M 2563 573  L 2619 573  L 2619 630  L 2563 630  L 2563 573  " fill-rule="nonzero" fill="#cccccc" stroke="none" />
    <path d="M 2567 577  L 2615 577  L 2615 626  L 2567 626  L 2567 577  " fill-rule="nonzero" fill="#ffffff" stroke="none" />
    <path d="M 2596.32 589.95  C 2593.968 589.95  2592.12 588.102  2592.12 585.75  C 2592.12 583.398  2593.968 581.55  2596.32 581.55  C 2598.672 581.55  2600.52 583.398  2600.52 585.75  C 2600.52 588.102  2598.672 589.95  2596.32 589.95  " fill-rule="nonzero" fill="#cccccc" stroke="none" />
    <path d="M 2569 625  L 2569 599.7  L 2580.25 588.2  L 2596 597.4  L 2605 595.1  L 2614 597.4  L 2614 625  L 2569 625  " fill-rule="nonzero" fill="#169bd5" stroke="none" />
  </g>
</svg>