<?xml version="1.0" encoding="utf-8"?>
<svg version="1.1" xmlns:xlink="http://www.w3.org/1999/xlink" width="19px" height="10px" xmlns="http://www.w3.org/2000/svg">
  <g transform="matrix(1 0 0 1 -1613 -230 )">
    <path d="M 18.6474609375 0.329861111111112  C 18.8824869791667 0.549768518518516  19 0.810185185185183  19 1.11111111111111  C 19 1.41203703703704  18.8824869791667 1.6724537037037  18.6474609375 1.89236111111111  L 10.3349609375 9.67013888888889  C 10.0999348958333 9.89004629629629  9.82161458333333 10  9.5 10  C 9.17838541666667 10  8.90006510416667 9.89004629629629  8.6650390625 9.67013888888889  L 0.3525390625 1.89236111111111  C 0.117513020833333 1.6724537037037  0 1.41203703703704  0 1.11111111111111  C 0 0.810185185185183  0.117513020833333 0.549768518518516  0.3525390625 0.329861111111112  C 0.587565104166667 0.109953703703702  0.865885416666667 0  1.1875 0  L 17.8125 0  C 18.1341145833333 0  18.4124348958333 0.109953703703702  18.6474609375 0.329861111111112  Z " fill-rule="nonzero" fill="#7f7f7f" stroke="none" transform="matrix(1 0 0 1 1613 230 )" />
  </g>
</svg>