<?xml version="1.0" encoding="utf-8"?>
<svg version="1.1" xmlns:xlink="http://www.w3.org/1999/xlink" width="19px" height="19px" xmlns="http://www.w3.org/2000/svg">
  <g transform="matrix(1 0 0 1 -1190 -197 )">
    <path d="M 18.873828125 13.7366536458333  C 18.9579427083333 14.3592664930556  19 15.0210503472222  19 15.7220052083333  C 19 16.6208767361111  18.6907552083333 17.3919270833333  18.072265625 18.03515625  C 17.4537760416667 18.6783854166667  16.7091145833333 19  15.83828125 19  L 3.16171875 19  C 2.29088541666667 19  1.54622395833333 18.6783854166667  0.927734375 18.03515625  C 0.309244791666667 17.3919270833333  0 16.6208767361111  0 15.7220052083333  C 0 15.0210503472222  0.0420572916666668 14.3592664930556  0.126171875 13.7366536458333  C 0.210286458333333 13.1140407986111  0.366145833333333 12.4873046875  0.59375 11.8564453125  C 0.821354166666667 11.2255859375  1.11080729166667 10.6854383680556  1.462109375 10.2360026041667  C 1.81341145833333 9.78656684027778  2.278515625 9.41959635416667  2.857421875 9.13509114583333  C 3.436328125 8.8505859375  4.10182291666667 8.70833333333333  4.85390625 8.70833333333333  C 6.15026041666667 9.76388888888889  7.69895833333333 10.2916666666667  9.5 10.2916666666667  C 11.3010416666667 10.2916666666667  12.8497395833333 9.76388888888889  14.14609375 8.70833333333333  C 14.8981770833333 8.70833333333333  15.563671875 8.8505859375  16.142578125 9.13509114583333  C 16.721484375 9.41959635416667  17.1865885416667 9.78656684027778  17.537890625 10.2360026041667  C 17.8891927083333 10.6854383680556  18.1786458333333 11.2255859375  18.40625 11.8564453125  C 18.6338541666667 12.4873046875  18.7897135416667 13.1140407986111  18.873828125 13.7366536458333  Z M 13.530078125 1.3916015625  C 14.643359375 2.3193359375  15.2 3.43880208333333  15.2 4.75  C 15.2 6.06119791666667  14.643359375 7.1806640625  13.530078125 8.1083984375  C 12.416796875 9.0361328125  11.0734375 9.5  9.5 9.5  C 7.9265625 9.5  6.583203125 9.0361328125  5.469921875 8.1083984375  C 4.356640625 7.1806640625  3.8 6.06119791666667  3.8 4.75  C 3.8 3.43880208333333  4.356640625 2.3193359375  5.469921875 1.3916015625  C 6.583203125 0.4638671875  7.9265625 0  9.5 0  C 11.0734375 0  12.416796875 0.4638671875  13.530078125 1.3916015625  Z " fill-rule="nonzero" fill="#000000" stroke="none" transform="matrix(1 0 0 1 1190 197 )" />
  </g>
</svg>