<?xml version="1.0" encoding="utf-8"?>
<svg version="1.1" xmlns:xlink="http://www.w3.org/1999/xlink" width="31px" height="27px" xmlns="http://www.w3.org/2000/svg">
  <g transform="matrix(1 0 0 1 -2787 -530 )">
    <path d="M 30.2693602693603 20.1818181818182  C 30.7564534231201 20.6060606060606  31 21.1212121212121  31 21.7272727272727  C 31 22.3333333333333  30.7564534231201 22.8484848484848  30.2693602693603 23.2727272727273  L 26.7205387205387 26.3636363636364  C 26.2334455667789 26.7878787878788  25.641975308642 27  24.9461279461279 27  C 24.2502805836139 27  23.658810325477 26.7878787878788  23.1717171717172 26.3636363636364  L 15.5 19.6818181818182  L 7.82828282828283 26.3636363636364  C 7.34118967452301 26.7878787878788  6.74971941638608 27  6.05387205387205 27  C 5.35802469135803 27  4.7665544332211 26.7878787878788  4.27946127946128 26.3636363636364  L 0.730639730639731 23.2727272727273  C 0.24354657687991 22.8484848484848  0 22.3333333333333  0 21.7272727272727  C 0 21.1212121212121  0.24354657687991 20.6060606060606  0.730639730639731 20.1818181818182  L 8.4023569023569 13.5  L 0.730639730639731 6.81818181818182  C 0.24354657687991 6.39393939393939  0 5.87878787878788  0 5.27272727272727  C 0 4.66666666666667  0.24354657687991 4.15151515151515  0.730639730639731 3.72727272727273  L 4.27946127946128 0.636363636363636  C 4.7665544332211 0.212121212121211  5.35802469135803 0  6.05387205387205 0  C 6.74971941638608 0  7.34118967452301 0.212121212121211  7.82828282828283 0.636363636363636  L 15.5 7.31818181818182  L 23.1717171717172 0.636363636363636  C 23.658810325477 0.212121212121211  24.2502805836139 0  24.9461279461279 0  C 25.641975308642 0  26.2334455667789 0.212121212121211  26.7205387205387 0.636363636363636  L 30.2693602693603 3.72727272727273  C 30.7564534231201 4.15151515151515  31 4.66666666666667  31 5.27272727272727  C 31 5.87878787878788  30.7564534231201 6.39393939393939  30.2693602693603 6.81818181818182  L 22.5976430976431 13.5  L 30.2693602693603 20.1818181818182  Z " fill-rule="nonzero" fill="#000000" stroke="none" transform="matrix(1 0 0 1 2787 530 )" />
  </g>
</svg>