<?xml version="1.0" encoding="utf-8"?>
<svg version="1.1" xmlns:xlink="http://www.w3.org/1999/xlink" width="140px" height="127px" xmlns="http://www.w3.org/2000/svg">
  <g transform="matrix(1 0 0 1 -551 -213 )">
    <path d="M 26 92  L 39 92  L 39 104  L 26 104  L 26 92  Z M 26 23  L 39 23  L 39 35  L 26 35  L 26 23  Z M 101 23  L 114 23  L 114 35  L 101 35  L 101 23  Z M 13 80  L 13 115  L 51 115  L 51 80  L 13 80  Z M 13 12  L 13 47  L 51 47  L 51 12  L 13 12  Z M 89 12  L 89 47  L 127 47  L 127 12  L 89 12  Z M 0 69  L 64 69  L 64 127  L 0 127  L 0 69  Z M 101 115  L 114 115  L 114 127  L 101 127  L 101 115  Z M 127 115  L 140 115  L 140 127  L 127 127  L 127 115  Z M 127 69  L 140 69  L 140 104  L 101 104  L 101 92  L 89 92  L 89 127  L 76 127  L 76 69  L 114 69  L 114 80  L 127 80  L 127 69  Z M 0 0  L 64 0  L 64 58  L 0 58  L 0 0  Z M 76 0  L 140 0  L 140 58  L 76 58  L 76 0  Z " fill-rule="nonzero" fill="#000000" stroke="none" transform="matrix(1 0 0 1 551 213 )" />
  </g>
</svg>