<?xml version="1.0" encoding="utf-8"?>
<svg version="1.1" xmlns:xlink="http://www.w3.org/1999/xlink" width="32px" height="31px" xmlns="http://www.w3.org/2000/svg">
  <g transform="matrix(1 0 0 1 -350 -1036 )">
    <path d="M 31.2457912457912 23.1717171717172  C 31.7485970819304 23.658810325477  32 24.2502805836139  32 24.9461279461279  C 32 25.641975308642  31.7485970819304 26.2334455667789  31.2457912457912 26.7205387205387  L 27.5824915824916 30.2693602693603  C 27.0796857463524 30.7564534231201  26.4691358024691 31  25.7508417508418 31  C 25.0325476992144 31  24.4219977553311 30.7564534231201  23.9191919191919 30.2693602693603  L 16 22.5976430976431  L 8.08080808080808 30.2693602693603  C 7.57800224466891 30.7564534231201  6.96745230078563 31  6.24915824915825 31  C 5.53086419753086 31  4.92031425364759 30.7564534231201  4.41750841750842 30.2693602693603  L 0.754208754208754 26.7205387205387  C 0.251402918069585 26.2334455667789  0 25.641975308642  0 24.9461279461279  C 0 24.2502805836139  0.251402918069585 23.658810325477  0.754208754208754 23.1717171717172  L 8.67340067340067 15.5  L 0.754208754208754 7.82828282828283  C 0.251402918069585 7.34118967452301  0 6.74971941638608  0 6.05387205387205  C 0 5.35802469135802  0.251402918069585 4.7665544332211  0.754208754208754 4.27946127946128  L 4.41750841750842 0.730639730639731  C 4.92031425364759 0.243546576879909  5.53086419753086 0  6.24915824915825 0  C 6.96745230078563 0  7.57800224466891 0.243546576879909  8.08080808080808 0.730639730639731  L 16 8.4023569023569  L 23.9191919191919 0.730639730639731  C 24.4219977553311 0.243546576879909  25.0325476992144 0  25.7508417508418 0  C 26.4691358024691 0  27.0796857463524 0.243546576879909  27.5824915824916 0.730639730639731  L 31.2457912457912 4.27946127946128  C 31.7485970819304 4.7665544332211  32 5.35802469135802  32 6.05387205387205  C 32 6.74971941638608  31.7485970819304 7.34118967452301  31.2457912457912 7.82828282828283  L 23.3265993265993 15.5  L 31.2457912457912 23.1717171717172  Z " fill-rule="nonzero" fill="#000000" stroke="none" transform="matrix(1 0 0 1 350 1036 )" />
  </g>
</svg>