<?xml version="1.0" encoding="utf-8"?>
<svg version="1.1" xmlns:xlink="http://www.w3.org/1999/xlink" width="217px" height="196px" xmlns="http://www.w3.org/2000/svg">
  <g transform="matrix(1 0 0 1 -107 -1172 )">
    <path d="M 40 142  L 60 142  L 60 160  L 40 160  L 40 142  Z M 40 36  L 60 36  L 60 54  L 40 54  L 40 36  Z M 157 36  L 177 36  L 177 54  L 157 54  L 157 36  Z M 20 124  L 20 178  L 79 178  L 79 124  L 20 124  Z M 20 18  L 20 72  L 79 72  L 79 18  L 20 18  Z M 138 18  L 138 72  L 197 72  L 197 18  L 138 18  Z M 0 107  L 99 107  L 99 196  L 0 196  L 0 107  Z M 157 178  L 177 178  L 177 196  L 157 196  L 157 178  Z M 197 178  L 217 178  L 217 196  L 197 196  L 197 178  Z M 197 107  L 217 107  L 217 160  L 157 160  L 157 142  L 138 142  L 138 196  L 118 196  L 118 107  L 177 107  L 177 124  L 197 124  L 197 107  Z M 0 0  L 99 0  L 99 89  L 0 89  L 0 0  Z M 118 0  L 217 0  L 217 89  L 118 89  L 118 0  Z " fill-rule="nonzero" fill="#000000" stroke="none" transform="matrix(1 0 0 1 107 1172 )" />
  </g>
</svg>