<?xml version="1.0" encoding="utf-8"?>
<svg version="1.1" xmlns:xlink="http://www.w3.org/1999/xlink" width="25px" height="12px" xmlns="http://www.w3.org/2000/svg">
  <g transform="matrix(1 0 0 1 -1618 -368 )">
    <path d="M 24.5361328125 0.395833333333334  C 24.8453776041667 0.65972222222222  25 0.972222222222219  25 1.33333333333333  C 25 1.69444444444444  24.8453776041667 2.00694444444444  24.5361328125 2.27083333333333  L 13.5986328125 11.6041666666667  C 13.2893880208333 11.8680555555556  12.9231770833333 12  12.5 12  C 12.0768229166667 12  11.7106119791667 11.8680555555556  11.4013671875 11.6041666666667  L 0.4638671875 2.27083333333333  C 0.154622395833333 2.00694444444444  0 1.69444444444444  0 1.33333333333333  C 0 0.972222222222219  0.154622395833333 0.65972222222222  0.4638671875 0.395833333333334  C 0.773111979166667 0.131944444444443  1.13932291666667 0  1.5625 0  L 23.4375 0  C 23.8606770833333 0  24.2268880208333 0.131944444444443  24.5361328125 0.395833333333334  Z " fill-rule="nonzero" fill="#000000" stroke="none" transform="matrix(1 0 0 1 1618 368 )" />
  </g>
</svg>