<?xml version="1.0" encoding="utf-8"?>
<svg version="1.1" xmlns:xlink="http://www.w3.org/1999/xlink" width="26px" height="16px" xmlns="http://www.w3.org/2000/svg">
  <g transform="matrix(1 0 0 1 -408 -390 )">
    <path d="M 25.517578125 0.527777777777779  C 25.8391927083333 0.879629629629626  26 1.29629629629629  26 1.77777777777778  C 26 2.25925925925926  25.8391927083333 2.67592592592592  25.517578125 3.02777777777778  L 14.142578125 15.4722222222222  C 13.8209635416667 15.8240740740741  13.4401041666667 16  13 16  C 12.5598958333333 16  12.1790364583333 15.8240740740741  11.857421875 15.4722222222222  L 0.482421875 3.02777777777778  C 0.160807291666667 2.67592592592592  0 2.25925925925926  0 1.77777777777778  C 0 1.29629629629629  0.160807291666667 0.879629629629626  0.482421875 0.527777777777779  C 0.804036458333333 0.175925925925924  1.18489583333333 0  1.625 0  L 24.375 0  C 24.8151041666667 0  25.1959635416667 0.175925925925924  25.517578125 0.527777777777779  Z " fill-rule="nonzero" fill="#000000" stroke="none" transform="matrix(1 0 0 1 408 390 )" />
  </g>
</svg>