<?xml version="1.0" encoding="utf-8"?>
<svg version="1.1" xmlns:xlink="http://www.w3.org/1999/xlink" width="30px" height="27px" xmlns="http://www.w3.org/2000/svg">
  <g transform="matrix(1 0 0 1 -345 -266 )">
    <path d="M 29.2929292929293 20.1818181818182  C 29.7643097643098 20.6060606060606  30 21.1212121212121  30 21.7272727272727  C 30 22.3333333333333  29.7643097643098 22.8484848484848  29.2929292929293 23.2727272727273  L 25.8585858585859 26.3636363636364  C 25.3872053872054 26.7878787878788  24.8148148148148 27  24.1414141414141 27  C 23.4680134680135 27  22.8956228956229 26.7878787878788  22.4242424242424 26.3636363636364  L 15 19.6818181818182  L 7.57575757575758 26.3636363636364  C 7.10437710437711 26.7878787878788  6.53198653198653 27  5.85858585858586 27  C 5.18518518518519 27  4.61279461279461 26.7878787878788  4.14141414141414 26.3636363636364  L 0.707070707070707 23.2727272727273  C 0.235690235690236 22.8484848484848  0 22.3333333333333  0 21.7272727272727  C 0 21.1212121212121  0.235690235690236 20.6060606060606  0.707070707070707 20.1818181818182  L 8.13131313131313 13.5  L 0.707070707070707 6.81818181818182  C 0.235690235690236 6.39393939393939  0 5.87878787878788  0 5.27272727272727  C 0 4.66666666666667  0.235690235690236 4.15151515151515  0.707070707070707 3.72727272727273  L 4.14141414141414 0.636363636363636  C 4.61279461279461 0.212121212121211  5.18518518518519 0  5.85858585858586 0  C 6.53198653198653 0  7.10437710437711 0.212121212121211  7.57575757575758 0.636363636363636  L 15 7.31818181818182  L 22.4242424242424 0.636363636363636  C 22.8956228956229 0.212121212121211  23.4680134680135 0  24.1414141414141 0  C 24.8148148148148 0  25.3872053872054 0.212121212121211  25.8585858585859 0.636363636363636  L 29.2929292929293 3.72727272727273  C 29.7643097643098 4.15151515151515  30 4.66666666666667  30 5.27272727272727  C 30 5.87878787878788  29.7643097643098 6.39393939393939  29.2929292929293 6.81818181818182  L 21.8686868686869 13.5  L 29.2929292929293 20.1818181818182  Z " fill-rule="nonzero" fill="#000000" stroke="none" transform="matrix(1 0 0 1 345 266 )" />
  </g>
</svg>