<?xml version="1.0" encoding="utf-8"?>
<svg version="1.1" xmlns:xlink="http://www.w3.org/1999/xlink" width="17px" height="23px" xmlns="http://www.w3.org/2000/svg">
  <g transform="matrix(1 0 0 1 -376 -190 )">
    <path d="M 16.4392361111111 10.4892578125  C 16.8130787037037 10.7737630208333  17 11.1106770833333  17 11.5  C 17 11.8893229166667  16.8130787037037 12.2262369791667  16.4392361111111 12.5107421875  L 3.21701388888889 22.5732421875  C 2.8431712962963 22.8577473958333  2.40046296296296 23  1.88888888888889 23  C 1.37731481481482 23  0.934606481481482 22.8577473958333  0.560763888888889 22.5732421875  C 0.186921296296296 22.2887369791667  0 21.9518229166667  0 21.5625  L 0 1.4375  C 0 1.04817708333333  0.186921296296296 0.71126302083333  0.560763888888889 0.4267578125  C 0.934606481481482 0.142252604166665  1.37731481481482 0  1.88888888888889 0  C 2.40046296296296 0  2.8431712962963 0.142252604166665  3.21701388888889 0.4267578125  L 16.4392361111111 10.4892578125  Z " fill-rule="nonzero" fill="#000000" stroke="none" transform="matrix(1 0 0 1 376 190 )" />
  </g>
</svg>