<?xml version="1.0" encoding="utf-8"?>
<svg version="1.1" xmlns:xlink="http://www.w3.org/1999/xlink" width="133px" height="103px" xmlns="http://www.w3.org/2000/svg">
  <g transform="matrix(1 0 0 1 -243 -350 )">
    <path d="M 243 350  L 376 350  L 376 453  L 243 453  L 243 350  " fill-rule="nonzero" fill="#cccccc" stroke="none" />
    <path d="M 250 357  L 369 357  L 369 446  L 250 446  L 250 357  " fill-rule="nonzero" fill="#ffffff" stroke="none" />
    <path d="M 319.885 380.9  C 315.559 380.9  312.16 377.501  312.16 373.175  C 312.16 368.849  315.559 365.45  319.885 365.45  C 324.211 365.45  327.61 368.849  327.61 373.175  C 327.61 377.501  324.211 380.9  319.885 380.9  " fill-rule="nonzero" fill="#cccccc" stroke="none" />
    <path d="M 253 444  L 253 397.8  L 281.5 376.8  L 321.4 404.968421052632  L 344.2 389.4  L 367 404.968421052632  L 367 444  L 253 444  " fill-rule="nonzero" fill="#169bd5" stroke="none" />
  </g>
</svg>