<?xml version="1.0" encoding="utf-8"?>
<svg version="1.1" xmlns:xlink="http://www.w3.org/1999/xlink" width="11px" height="13px" xmlns="http://www.w3.org/2000/svg">
  <g transform="matrix(1 0 0 1 -817 -351 )">
    <path d="M 10.8109965635739 6.20040080160321  C 10.9369988545246 6.2872411489646  11 6.38710754843019  11 6.5  C 11 6.61289245156981  10.9369988545246 6.7127588510354  10.8109965635739 6.79959919839679  L 2.00343642611684 12.8697394789579  C 1.87743413516609 12.9565798263193  1.73253150057274 13  1.56872852233677 13  C 1.4049255441008 13  1.26002290950745 12.9565798263193  1.1340206185567 12.8697394789579  L 0.189003436426117 12.2184368737475  C 0.0630011454753723 12.1315965263861  0 12.0317301269205  0 11.9188376753507  C 0 11.8059452237809  0.0630011454753723 11.7060788243153  0.189003436426117 11.6192384769539  L 7.61683848797251 6.5  L 0.189003436426117 1.38076152304609  C 0.0630011454753723 1.2939211756847  0 1.1940547762191  0 1.0811623246493  C 0 0.968269873079491  0.0630011454753723 0.868403473613893  0.189003436426117 0.781563126252504  L 1.1340206185567 0.130260521042084  C 1.26002290950745 0.0434201736806943  1.4049255441008 0  1.56872852233677 0  C 1.73253150057274 0  1.87743413516609 0.0434201736806943  2.00343642611684 0.130260521042084  L 10.8109965635739 6.20040080160321  Z " fill-rule="nonzero" fill="#000000" stroke="none" transform="matrix(1 0 0 1 817 351 )" />
  </g>
</svg>