<?xml version="1.0" encoding="utf-8"?>
<svg version="1.1" xmlns:xlink="http://www.w3.org/1999/xlink" width="52px" height="44px" xmlns="http://www.w3.org/2000/svg">
  <g transform="matrix(1 0 0 1 -314 -145 )">
    <path d="M 314 145  L 366 145  L 366 189  L 314 189  L 314 145  " fill-rule="nonzero" fill="#cccccc" stroke="none" />
    <path d="M 317 148  L 363 148  L 363 186  L 317 186  L 317 148  " fill-rule="nonzero" fill="#ffffff" stroke="none" />
    <path d="M 344.34 158.2  C 342.492 158.2  341.04 156.748  341.04 154.9  C 341.04 153.052  342.492 151.6  344.34 151.6  C 346.188 151.6  347.64 153.052  347.64 154.9  C 347.64 156.748  346.188 158.2  344.34 158.2  " fill-rule="nonzero" fill="#cccccc" stroke="none" />
    <path d="M 318 185  L 318 165.2  L 329 156.2  L 344.4 166.723076923077  L 353.2 161.6  L 362 166.723076923077  L 362 185  L 318 185  " fill-rule="nonzero" fill="#169bd5" stroke="none" />
  </g>
</svg>