<?xml version="1.0" encoding="utf-8"?>
<svg version="1.1" xmlns:xlink="http://www.w3.org/1999/xlink" width="37px" height="25px" xmlns="http://www.w3.org/2000/svg">
  <g transform="matrix(1 0 0 1 -272 -2642 )">
    <path d="M 2.64285714285714 12.5  C 4.94159226190476 15.6994047619048  7.8803943452381 18.0245535714286  11.4592633928571 19.4754464285714  L 13.0697544642857 16.8526785714286  C 11.8722098214286 16.0714285714286  10.9361979166667 15.0855654761905  10.26171875 13.8950892857143  C 9.58723958333333 12.7046130952381  9.25 11.4459325396825  9.25 10.1190476190476  C 9.25 8.61855158730159  9.66982886904762 7.2234623015873  10.5094866071429 5.93377976190476  C 7.35732886904762 7.38467261904762  4.73511904761905 9.5734126984127  2.64285714285714 12.5  Z M 19.2020089285714 5.98958333333333  C 19.3947172619048 5.81597222222222  19.4910714285714 5.60515873015873  19.4910714285714 5.35714285714286  C 19.4910714285714 5.10912698412698  19.3947172619048 4.89831349206349  19.2020089285714 4.72470238095238  C 19.0093005952381 4.55109126984127  18.7752976190476 4.46428571428572  18.5 4.46428571428572  C 16.7793898809524 4.46428571428572  15.3031063988095 5.01922123015873  14.0711495535714 6.12909226190476  C 12.8391927083333 7.23896329365079  12.2232142857143 8.56894841269841  12.2232142857143 10.1190476190476  C 12.2232142857143 10.3670634920635  12.319568452381 10.577876984127  12.5122767857143 10.7514880952381  C 12.7049851190476 10.9250992063492  12.9389880952381 11.0119047619048  13.2142857142857 11.0119047619048  C 13.4895833333333 11.0119047619048  13.7235863095238 10.9250992063492  13.9162946428571 10.7514880952381  C 14.1090029761905 10.577876984127  14.2053571428571 10.3670634920635  14.2053571428571 10.1190476190476  C 14.2053571428571 9.05257936507936  14.6251860119048 8.14112103174603  15.46484375 7.38467261904762  C 16.3045014880952 6.6282242063492  17.3162202380952 6.25  18.5 6.25  C 18.7752976190476 6.25  19.0093005952381 6.16319444444444  19.2020089285714 5.98958333333333  Z M 26.6556919642857 1.30208333333333  C 26.8759300595238 1.42609126984127  26.9860491071429 1.59350198412698  26.9860491071429 1.80431547619048  C 26.9860491071429 1.89112103174603  26.9791666666667 1.9469246031746  26.9654017857143 1.97172619047619  C 25.5063244047619 4.31547619047619  23.3314732142857 7.83110119047619  20.4408482142857 12.5186011904762  C 17.5502232142857 17.2061011904762  15.3822544642857 20.7155257936508  13.9369419642857 23.046875  L 12.9252232142857 24.702380952381  C 12.7875744047619 24.9007936507937  12.5948660714286 25  12.3470982142857 25  C 12.1819196428571 25  11.2596726190476 24.5659722222222  9.58035714285714 23.6979166666667  C 9.36011904761905 23.5739087301587  9.25 23.4002976190476  9.25 23.1770833333333  C 9.25 23.0282738095238  9.55282738095238 22.4888392857143  10.1584821428571 21.5587797619048  C 8.19010416666667 20.7527281746032  6.37658110119048 19.6800595238095  4.71791294642857 18.3407738095238  C 3.05924479166667 17.0014880952381  1.62425595238095 15.4823908730159  0.412946428571429 13.7834821428571  C 0.13764880952381 13.3990575396825  0 12.9712301587302  0 12.5  C 0 12.0287698412698  0.13764880952381 11.6009424603175  0.412946428571429 11.2165178571429  C 2.51897321428571 8.30233134920635  5.1343005952381 6.00198412698412  8.25892857142857 4.31547619047619  C 11.383556547619 2.62896825396825  14.7972470238095 1.78571428571428  18.5 1.78571428571428  C 19.7250744047619 1.78571428571428  20.9639136904762 1.89112103174603  22.2165178571429 2.10193452380952  L 23.3314732142857 0.297619047619047  C 23.4691220238095 0.0992063492063489  23.6618303571429 0  23.9095982142857 0  C 23.9784226190476 0  24.1023065476191 0.0372023809523808  24.28125 0.111607142857142  C 24.460193452381 0.186011904761904  24.6735491071429 0.282118055555552  24.9213169642857 0.399925595238096  C 25.1690848214286 0.517733134920634  25.3962053571429 0.632440476190477  25.6026785714286 0.744047619047619  C 25.8091517857143 0.855654761904762  26.0259486607143 0.970362103174599  26.2530691964286 1.08816964285714  C 26.4801897321429 1.20597718253968  26.6143973214286 1.27728174603174  26.6556919642857 1.30208333333333  Z M 27.5848214285714 8.55654761904762  C 27.6949404761905 9.11458333333333  27.75 9.63541666666667  27.75 10.1190476190476  C 27.75 11.8427579365079  27.206287202381 13.414558531746  26.1188616071429 14.8344494047619  C 25.0314360119048 16.2543402777778  23.593005952381 17.2743055555556  21.8035714285714 17.8943452380952  L 27.5848214285714 8.55654761904762  Z M 36.5870535714286 11.2165178571429  C 36.8623511904762 11.6381448412698  37 12.0659722222222  37 12.5  C 37 12.9340277777778  36.8623511904762 13.3618551587302  36.5870535714286 13.7834821428571  C 36.0502232142857 14.5771329365079  35.300037202381 15.4761904761905  34.3364955357143 16.4806547619048  C 32.2717633928571 18.6135912698413  29.880115327381 20.2690972222222  27.1615513392857 21.4471726190476  C 24.4429873511905 22.625248015873  21.5558035714286 23.2142857142857  18.5 23.2142857142857  L 20.0279017857143 20.7589285714286  C 22.9460565476191 20.5357142857143  25.6474144345238 19.6862599206349  28.1319754464286 18.2105654761905  C 30.6165364583333 16.734871031746  32.6915922619048 14.8313492063492  34.3571428571429 12.5  C 32.7741815476191 10.2802579365079  30.8333333333333 8.45734126984127  28.5345982142857 7.03125  L 29.8353794642857 4.94791666666667  C 31.1430431547619 5.74156746031746  32.3990885416667 6.69022817460317  33.603515625 7.79389880952381  C 34.8079427083333 8.89756944444444  35.8024553571429 10.0384424603175  36.5870535714286 11.2165178571429  Z " fill-rule="nonzero" fill="#000000" stroke="none" transform="matrix(1 0 0 1 272 2642 )" />
  </g>
</svg>