<?xml version="1.0" encoding="utf-8"?>
<svg version="1.1" xmlns:xlink="http://www.w3.org/1999/xlink" width="39px" height="26px" xmlns="http://www.w3.org/2000/svg">
  <g transform="matrix(1 0 0 1 -699 -2641 )">
    <path d="M 28.9561941964286 20.3689236111111  C 31.865234375 18.5407986111111  34.2845982142857 16.0844907407407  36.2142857142857 13  C 34.0089285714286 9.44907407407407  31.2449776785714 6.79340277777778  27.9224330357143 5.03298611111111  C 28.8074776785714 6.59780092592592  29.25 8.29050925925926  29.25 10.1111111111111  C 29.25 12.8946759259259  28.2960379464286 15.2757523148148  26.3881138392857 17.2543402777778  C 24.4801897321429 19.2329282407407  22.1841517857143 20.2222222222222  19.5 20.2222222222222  C 16.8158482142857 20.2222222222222  14.5198102678571 19.2329282407407  12.6118861607143 17.2543402777778  C 10.7039620535714 15.2757523148148  9.75 12.8946759259259  9.75 10.1111111111111  C 9.75 8.29050925925926  10.1925223214286 6.59780092592592  11.0775669642857 5.03298611111111  C 7.75502232142857 6.79340277777778  4.99107142857143 9.44907407407407  2.78571428571429 13  C 4.71540178571429 16.0844907407407  7.134765625 18.5407986111111  10.0438058035714 20.3689236111111  C 12.9528459821429 22.1970486111111  16.1049107142857 23.1111111111111  19.5 23.1111111111111  C 22.8950892857143 23.1111111111111  26.0471540178571 22.1970486111111  28.9561941964286 20.3689236111111  Z M 20.2399553571429 5.10069444444444  C 20.4430803571429 4.8900462962963  20.5446428571429 4.63425925925926  20.5446428571429 4.33333333333333  C 20.5446428571429 4.03240740740741  20.4430803571429 3.77662037037037  20.2399553571429 3.56597222222222  C 20.0368303571429 3.35532407407407  19.7901785714286 3.25  19.5 3.25  C 17.6863839285714 3.25  16.1303013392857 3.92332175925926  14.8317522321429 5.26996527777778  C 13.533203125 6.6166087962963  12.8839285714286 8.23032407407407  12.8839285714286 10.1111111111111  C 12.8839285714286 10.412037037037  12.9854910714286 10.6678240740741  13.1886160714286 10.8784722222222  C 13.3917410714286 11.0891203703704  13.6383928571429 11.1944444444444  13.9285714285714 11.1944444444444  C 14.21875 11.1944444444444  14.4654017857143 11.0891203703704  14.6685267857143 10.8784722222222  C 14.8716517857143 10.6678240740741  14.9732142857143 10.412037037037  14.9732142857143 10.1111111111111  C 14.9732142857143 8.81712962962963  15.4157366071429 7.71122685185185  16.30078125 6.79340277777778  C 17.1858258928571 5.8755787037037  18.2522321428571 5.41666666666666  19.5 5.41666666666667  C 19.7901785714286 5.41666666666666  20.0368303571429 5.31134259259259  20.2399553571429 5.10069444444444  Z M 38.5647321428571 11.4427083333333  C 38.8549107142857 11.9693287037037  39 12.4884259259259  39 13  C 39 13.5115740740741  38.8549107142857 14.0306712962963  38.5647321428571 14.5572916666667  C 36.5334821428572 18.0179398148148  33.8021763392857 20.7902199074074  30.3708147321429 22.8741319444444  C 26.939453125 24.9580439814815  23.3158482142857 26  19.5 26  C 15.6841517857143 26  12.060546875 24.9542824074074  8.62918526785714 22.8628472222222  C 5.19782366071429 20.771412037037  2.46651785714286 18.0028935185185  0.435267857142857 14.5572916666667  C 0.145089285714286 14.0306712962963  0 13.5115740740741  0 13  C 0 12.4884259259259  0.145089285714286 11.9693287037037  0.435267857142857 11.4427083333333  C 2.46651785714286 7.99710648148148  5.19782366071429 5.22858796296296  8.62918526785714 3.13715277777778  C 12.060546875 1.04571759259259  15.6841517857143 0  19.5 0  C 23.3158482142857 0  26.939453125 1.04571759259259  30.3708147321429 3.13715277777778  C 33.8021763392857 5.22858796296296  36.5334821428572 7.99710648148148  38.5647321428571 11.4427083333333  Z " fill-rule="nonzero" fill="#000000" stroke="none" transform="matrix(1 0 0 1 699 2641 )" />
  </g>
</svg>