<?xml version="1.0" encoding="utf-8"?>
<svg version="1.1" xmlns:xlink="http://www.w3.org/1999/xlink" width="28px" height="24px" xmlns="http://www.w3.org/2000/svg">
  <g transform="matrix(1 0 0 1 -349 -1696 )">
    <path d="M 18 18.796875  C 18.1354166666667 18.796875  18.2552083333333 18.7447916666667  18.359375 18.640625  L 20.640625 16.359375  C 20.7447916666667 16.2552083333333  20.796875 16.1354166666667  20.796875 16  C 20.796875 15.8645833333333  20.7447916666667 15.7447916666667  20.640625 15.640625  L 17 12  L 20.640625 8.359375  C 20.7447916666667 8.25520833333333  20.796875 8.13541666666667  20.796875 8  C 20.796875 7.86458333333333  20.7447916666667 7.74479166666666  20.640625 7.640625  L 18.359375 5.359375  C 18.2552083333333 5.25520833333333  18.1354166666667 5.203125  18 5.203125  C 17.8645833333333 5.203125  17.7447916666667 5.25520833333333  17.640625 5.359375  L 14 9  L 10.359375 5.359375  C 10.2552083333333 5.25520833333333  10.1354166666667 5.203125  10 5.203125  C 9.86458333333333 5.203125  9.74479166666667 5.25520833333333  9.640625 5.359375  L 7.359375 7.640625  C 7.25520833333333 7.74479166666666  7.203125 7.86458333333333  7.203125 8  C 7.203125 8.13541666666667  7.25520833333333 8.25520833333333  7.359375 8.359375  L 11 12  L 7.359375 15.640625  C 7.25520833333333 15.7447916666667  7.203125 15.8645833333333  7.203125 16  C 7.203125 16.1354166666667  7.25520833333333 16.2552083333333  7.359375 16.359375  L 9.640625 18.640625  C 9.74479166666667 18.7447916666667  9.86458333333333 18.796875  10 18.796875  C 10.1354166666667 18.796875  10.2552083333333 18.7447916666667  10.359375 18.640625  L 14 15  L 17.640625 18.640625  C 17.7447916666667 18.7447916666667  17.8645833333333 18.796875  18 18.796875  Z M 27.265625 0.734375000000001  C 27.7552083333333 1.22395833333333  28 1.8125  28 2.5  L 28 21.5  C 28 22.1875  27.7552083333333 22.7760416666667  27.265625 23.265625  C 26.7760416666667 23.7552083333333  26.1875 24  25.5 24  L 2.5 24  C 1.8125 24  1.22395833333333 23.7552083333333  0.734375 23.265625  C 0.244791666666667 22.7760416666667  0 22.1875  0 21.5  L 0 2.5  C 0 1.8125  0.244791666666667 1.22395833333333  0.734375 0.734375000000001  C 1.22395833333333 0.244791666666664  1.8125 0  2.5 0  L 25.5 0  C 26.1875 0  26.7760416666667 0.244791666666664  27.265625 0.734375000000001  Z " fill-rule="nonzero" fill="#000000" stroke="none" transform="matrix(1 0 0 1 349 1696 )" />
  </g>
</svg>