<?xml version="1.0" encoding="utf-8"?>
<svg version="1.1" xmlns:xlink="http://www.w3.org/1999/xlink" width="15px" height="16px" xmlns="http://www.w3.org/2000/svg">
  <g transform="matrix(1 0 0 1 -453 -1047 )">
    <path d="M 460.5 1047  C 464.7 1047  468 1050.52  468 1055  C 468 1059.48  464.7 1063  460.5 1063  C 456.3 1063  453 1059.48  453 1055  C 453 1050.52  456.3 1047  460.5 1047  Z " fill-rule="nonzero" fill="#ffffff" stroke="none" />
    <path d="M 460.5 1047.5  C 464.42 1047.5  467.5 1050.8  467.5 1055  C 467.5 1059.2  464.42 1062.5  460.5 1062.5  C 456.58 1062.5  453.5 1059.2  453.5 1055  C 453.5 1050.8  456.58 1047.5  460.5 1047.5  Z " stroke-width="1" stroke="#797979" fill="none" />
  </g>
</svg>