<?xml version="1.0" encoding="utf-8"?>
<svg version="1.1" xmlns:xlink="http://www.w3.org/1999/xlink" width="83px" height="89px" xmlns="http://www.w3.org/2000/svg">
  <g transform="matrix(1 0 0 1 -479 -1144 )">
    <path d="M 479 1144  L 562 1144  L 562 1233  L 479 1233  L 479 1144  " fill-rule="nonzero" fill="#cccccc" stroke="none" />
    <path d="M 485 1150  L 556 1150  L 556 1227  L 485 1227  L 485 1150  " fill-rule="nonzero" fill="#ffffff" stroke="none" />
    <path d="M 528.385 1169.8  C 524.899 1169.8  522.16 1167.061  522.16 1163.575  C 522.16 1160.089  524.899 1157.35  528.385 1157.35  C 531.871 1157.35  534.61 1160.089  534.61 1163.575  C 534.61 1167.061  531.871 1169.8  528.385 1169.8  " fill-rule="nonzero" fill="#cccccc" stroke="none" />
    <path d="M 487 1225  L 487 1184.85  L 503.75 1166.6  L 527.2 1181.2  L 540.6 1177.55  L 554 1181.2  L 554 1225  L 487 1225  " fill-rule="nonzero" fill="#169bd5" stroke="none" />
  </g>
</svg>