<?xml version="1.0" encoding="utf-8"?>
<svg version="1.1" xmlns:xlink="http://www.w3.org/1999/xlink" width="15px" height="16px" xmlns="http://www.w3.org/2000/svg">
  <g transform="matrix(1 0 0 1 -1412 -1047 )">
    <path d="M 1419.5 1047  C 1423.7 1047  1427 1050.52  1427 1055  C 1427 1059.48  1423.7 1063  1419.5 1063  C 1415.3 1063  1412 1059.48  1412 1055  C 1412 1050.52  1415.3 1047  1419.5 1047  Z " fill-rule="nonzero" fill="#ffffff" stroke="none" />
    <path d="M 1419.5 1047.5  C 1423.42 1047.5  1426.5 1050.8  1426.5 1055  C 1426.5 1059.2  1423.42 1062.5  1419.5 1062.5  C 1415.58 1062.5  1412.5 1059.2  1412.5 1055  C 1412.5 1050.8  1415.58 1047.5  1419.5 1047.5  Z " stroke-width="1" stroke="#797979" fill="none" />
  </g>
</svg>