<?xml version="1.0" encoding="utf-8"?>
<svg version="1.1" xmlns:xlink="http://www.w3.org/1999/xlink" width="83px" height="89px" xmlns="http://www.w3.org/2000/svg">
  <g transform="matrix(1 0 0 1 -1438 -1144 )">
    <path d="M 1438 1144  L 1521 1144  L 1521 1233  L 1438 1233  L 1438 1144  " fill-rule="nonzero" fill="#cccccc" stroke="none" />
    <path d="M 1444 1150  L 1515 1150  L 1515 1227  L 1444 1227  L 1444 1150  " fill-rule="nonzero" fill="#ffffff" stroke="none" />
    <path d="M 1487.385 1169.8  C 1483.899 1169.8  1481.16 1167.061  1481.16 1163.575  C 1481.16 1160.089  1483.899 1157.35  1487.385 1157.35  C 1490.871 1157.35  1493.61 1160.089  1493.61 1163.575  C 1493.61 1167.061  1490.871 1169.8  1487.385 1169.8  " fill-rule="nonzero" fill="#cccccc" stroke="none" />
    <path d="M 1446 1225  L 1446 1184.85  L 1462.75 1166.6  L 1486.2 1181.2  L 1499.6 1177.55  L 1513 1181.2  L 1513 1225  L 1446 1225  " fill-rule="nonzero" fill="#169bd5" stroke="none" />
  </g>
</svg>