<?xml version="1.0" encoding="utf-8"?>
<svg version="1.1" xmlns:xlink="http://www.w3.org/1999/xlink" width="65px" height="64px" xmlns="http://www.w3.org/2000/svg">
  <g transform="matrix(1 0 0 1 -14 -58 )">
    <path d="M 14 58  L 79 58  L 79 122  L 14 122  L 14 58  " fill-rule="nonzero" fill="#cccccc" stroke="none" />
    <path d="M 18 62  L 75 62  L 75 118  L 18 118  L 18 62  " fill-rule="nonzero" fill="#ffffff" stroke="none" />
    <path d="M 52.6 77.2  C 49.912 77.2  47.8 75.088  47.8 72.4  C 47.8 69.712  49.912 67.6  52.6 67.6  C 55.288 67.6  57.4 69.712  57.4 72.4  C 57.4 75.088  55.288 77.2  52.6 77.2  " fill-rule="nonzero" fill="#cccccc" stroke="none" />
    <path d="M 20 117  L 20 87.85  L 33.5 74.6  L 52.4 85.6892307692308  L 63.2 82.55  L 74 85.6892307692308  L 74 117  L 20 117  " fill-rule="nonzero" fill="#169bd5" stroke="none" />
  </g>
</svg>