<?xml version="1.0" encoding="utf-8"?>
<svg version="1.1" xmlns:xlink="http://www.w3.org/1999/xlink" width="14px" height="12px" xmlns="http://www.w3.org/2000/svg">
  <g transform="matrix(1 0 0 1 -162 -101 )">
    <path d="M 12.92578125 11.0792410714286  C 12.9752604166667 11.0368303571429  13 10.9866071428571  13 10.9285714285714  L 13 3.64285714285714  C 13 3.58482142857143  12.9752604166667 3.53459821428571  12.92578125 3.4921875  C 12.8763020833333 3.44977678571428  12.8177083333333 3.42857142857143  12.75 3.42857142857143  L 4.25 3.42857142857143  C 4.18229166666667 3.42857142857143  4.12369791666667 3.44977678571428  4.07421875 3.4921875  C 4.02473958333333 3.53459821428571  4 3.58482142857143  4 3.64285714285714  L 4 10.9285714285714  C 4 10.9866071428571  4.02473958333333 11.0368303571429  4.07421875 11.0792410714286  C 4.12369791666667 11.1216517857143  4.18229166666667 11.1428571428571  4.25 11.1428571428571  L 12.75 11.1428571428571  C 12.8177083333333 11.1428571428571  12.8763020833333 11.1216517857143  12.92578125 11.0792410714286  Z M 13.6328125 2.88616071428571  C 13.8776041666667 3.09598214285714  14 3.34821428571429  14 3.64285714285714  L 14 10.9285714285714  C 14 11.2232142857143  13.8776041666667 11.4754464285714  13.6328125 11.6852678571429  C 13.3880208333333 11.8950892857143  13.09375 12  12.75 12  L 4.25 12  C 3.90625 12  3.61197916666667 11.8950892857143  3.3671875 11.6852678571429  C 3.12239583333333 11.4754464285714  3 11.2232142857143  3 10.9285714285714  L 3 3.64285714285714  C 3 3.34821428571429  3.12239583333333 3.09598214285714  3.3671875 2.88616071428571  C 3.61197916666667 2.67633928571428  3.90625 2.57142857142857  4.25 2.57142857142857  L 12.75 2.57142857142857  C 13.09375 2.57142857142857  13.3880208333333 2.67633928571428  13.6328125 2.88616071428571  Z M 10.6328125 0.314732142857143  C 10.8776041666667 0.524553571428571  11 0.776785714285715  11 1.07142857142857  L 11 2.14285714285714  L 10 2.14285714285714  L 10 1.07142857142857  C 10 1.01339285714286  9.97526041666667 0.963169642857142  9.92578125 0.920758928571428  C 9.87630208333333 0.878348214285713  9.81770833333333 0.857142857142857  9.75 0.857142857142857  L 1.25 0.857142857142857  C 1.18229166666667 0.857142857142857  1.12369791666667 0.878348214285713  1.07421875 0.920758928571428  C 1.02473958333333 0.963169642857142  1 1.01339285714286  1 1.07142857142857  L 1 8.35714285714286  C 1 8.41517857142857  1.02473958333333 8.46540178571428  1.07421875 8.5078125  C 1.12369791666667 8.55022321428571  1.18229166666667 8.57142857142857  1.25 8.57142857142857  L 2.5 8.57142857142857  L 2.5 9.42857142857143  L 1.25 9.42857142857143  C 0.90625 9.42857142857143  0.611979166666667 9.32366071428571  0.3671875 9.11383928571429  C 0.122395833333333 8.90401785714286  0 8.65178571428571  0 8.35714285714286  L 0 1.07142857142857  C 0 0.776785714285715  0.122395833333333 0.524553571428571  0.3671875 0.314732142857143  C 0.611979166666667 0.104910714285714  0.90625 0  1.25 0  L 9.75 0  C 10.09375 0  10.3880208333333 0.104910714285714  10.6328125 0.314732142857143  Z " fill-rule="nonzero" fill="#000000" stroke="none" transform="matrix(1 0 0 1 162 101 )" />
  </g>
</svg>