<?xml version="1.0" encoding="utf-8"?>
<svg version="1.1" xmlns:xlink="http://www.w3.org/1999/xlink" width="27px" height="16px" xmlns="http://www.w3.org/2000/svg">
  <g transform="matrix(1 0 0 1 -84 -135 )">
    <path d="M 20.0465959821429 12.5347222222222  C 22.060546875 11.4097222222222  23.7354910714286 9.89814814814815  25.0714285714286 8  C 23.5446428571429 5.81481481481481  21.6311383928571 4.18055555555556  19.3309151785714 3.09722222222222  C 19.9436383928571 4.06018518518518  20.25 5.10185185185185  20.25 6.22222222222222  C 20.25 7.93518518518518  19.5895647321429 9.40046296296296  18.2686941964286 10.6180555555556  C 16.9478236607143 11.8356481481481  15.3582589285714 12.4444444444444  13.5 12.4444444444444  C 11.6417410714286 12.4444444444444  10.0521763392857 11.8356481481481  8.73130580357143 10.6180555555556  C 7.41043526785714 9.40046296296296  6.75 7.93518518518518  6.75 6.22222222222222  C 6.75 5.10185185185185  7.05636160714286 4.06018518518518  7.66908482142857 3.09722222222222  C 5.36886160714286 4.18055555555556  3.45535714285714 5.81481481481481  1.92857142857143 8  C 3.26450892857143 9.89814814814815  4.939453125 11.4097222222222  6.95340401785714 12.5347222222222  C 8.96735491071429 13.6597222222222  11.1495535714286 14.2222222222222  13.5 14.2222222222222  C 15.8504464285714 14.2222222222222  18.0326450892857 13.6597222222222  20.0465959821429 12.5347222222222  Z M 14.0122767857143 3.13888888888889  C 14.1529017857143 3.00925925925926  14.2232142857143 2.85185185185185  14.2232142857143 2.66666666666667  C 14.2232142857143 2.48148148148148  14.1529017857143 2.32407407407407  14.0122767857143 2.19444444444444  C 13.8716517857143 2.06481481481481  13.7008928571429 2  13.5 2  C 12.2444196428571 2  11.1671316964286 2.41435185185185  10.2681361607143 3.24305555555556  C 9.369140625 4.07175925925926  8.91964285714286 5.06481481481481  8.91964285714286 6.22222222222222  C 8.91964285714286 6.40740740740741  8.98995535714286 6.56481481481481  9.13058035714286 6.69444444444444  C 9.27120535714286 6.82407407407407  9.44196428571429 6.88888888888889  9.64285714285714 6.88888888888889  C 9.84375 6.88888888888889  10.0145089285714 6.82407407407407  10.1551339285714 6.69444444444444  C 10.2957589285714 6.56481481481481  10.3660714285714 6.40740740740741  10.3660714285714 6.22222222222222  C 10.3660714285714 5.42592592592593  10.6724330357143 4.74537037037037  11.28515625 4.18055555555556  C 11.8978794642857 3.61574074074074  12.6361607142857 3.33333333333333  13.5 3.33333333333333  C 13.7008928571429 3.33333333333333  13.8716517857143 3.26851851851852  14.0122767857143 3.13888888888889  Z M 26.6986607142857 7.04166666666667  C 26.8995535714286 7.36574074074074  27 7.68518518518518  27 8  C 27 8.31481481481481  26.8995535714286 8.63425925925926  26.6986607142857 8.95833333333333  C 25.2924107142857 11.087962962963  23.4015066964286 12.7939814814815  21.0259486607143 14.0763888888889  C 18.650390625 15.3587962962963  16.1417410714286 16  13.5 16  C 10.8582589285714 16  8.349609375 15.3564814814815  5.97405133928571 14.0694444444444  C 3.59849330357143 12.7824074074074  1.70758928571429 11.0787037037037  0.301339285714286 8.95833333333333  C 0.100446428571429 8.63425925925926  0 8.31481481481481  0 8  C 0 7.68518518518518  0.100446428571429 7.36574074074074  0.301339285714286 7.04166666666667  C 1.70758928571429 4.9212962962963  3.59849330357143 3.21759259259259  5.97405133928571 1.93055555555556  C 8.349609375 0.643518518518517  10.8582589285714 0  13.5 0  C 16.1417410714286 0  18.650390625 0.643518518518517  21.0259486607143 1.93055555555556  C 23.4015066964286 3.21759259259259  25.2924107142857 4.9212962962963  26.6986607142857 7.04166666666667  Z " fill-rule="nonzero" fill="#000000" stroke="none" transform="matrix(1 0 0 1 84 135 )" />
  </g>
</svg>