<?xml version="1.0" encoding="utf-8"?>
<svg version="1.1" xmlns:xlink="http://www.w3.org/1999/xlink" width="22px" height="13px" xmlns="http://www.w3.org/2000/svg">
  <g transform="matrix(1 0 0 1 -108 -210 )">
    <path d="M 16.3342633928571 10.1844618055556  C 17.9752604166667 9.27039930555556  19.3400297619048 8.04224537037037  20.4285714285714 6.5  C 19.1845238095238 4.72453703703704  17.6253720238095 3.39670138888889  15.7511160714286 2.51649305555555  C 16.2503720238095 3.29890046296296  16.5 4.14525462962963  16.5 5.05555555555556  C 16.5 6.44733796296296  15.9618675595238 7.63787615740741  14.8856026785714 8.62717013888889  C 13.809337797619 9.61646412037037  12.5141369047619 10.1111111111111  11 10.1111111111111  C 9.4858630952381 10.1111111111111  8.19066220238095 9.61646412037037  7.11439732142857 8.62717013888889  C 6.03813244047619 7.63787615740741  5.5 6.44733796296296  5.5 5.05555555555556  C 5.5 4.14525462962963  5.74962797619048 3.29890046296296  6.24888392857143 2.51649305555555  C 4.37462797619048 3.39670138888889  2.81547619047619 4.72453703703704  1.57142857142857 6.5  C 2.65997023809524 8.04224537037037  4.02473958333333 9.27039930555556  5.66573660714286 10.1844618055556  C 7.30673363095238 11.0985243055556  9.08482142857143 11.5555555555556  11 11.5555555555556  C 12.9151785714286 11.5555555555556  14.6932663690476 11.0985243055556  16.3342633928571 10.1844618055556  Z M 11.4174107142857 2.55034722222222  C 11.531994047619 2.44502314814815  11.5892857142857 2.31712962962963  11.5892857142857 2.16666666666667  C 11.5892857142857 2.0162037037037  11.531994047619 1.88831018518518  11.4174107142857 1.78298611111111  C 11.3028273809524 1.67766203703704  11.1636904761905 1.625  11 1.625  C 9.97693452380952 1.625  9.0991443452381 1.96166087962963  8.36662946428572 2.63498263888889  C 7.63411458333333 3.30830439814815  7.26785714285714 4.11516203703704  7.26785714285714 5.05555555555556  C 7.26785714285714 5.20601851851852  7.32514880952381 5.33391203703704  7.43973214285714 5.43923611111111  C 7.55431547619048 5.54456018518518  7.69345238095238 5.59722222222222  7.85714285714286 5.59722222222222  C 8.02083333333333 5.59722222222222  8.15997023809524 5.54456018518518  8.27455357142857 5.43923611111111  C 8.38913690476191 5.33391203703704  8.44642857142857 5.20601851851852  8.44642857142857 5.05555555555556  C 8.44642857142857 4.40856481481481  8.69605654761905 3.85561342592593  9.1953125 3.39670138888889  C 9.69456845238095 2.93778935185185  10.296130952381 2.70833333333333  11 2.70833333333333  C 11.1636904761905 2.70833333333333  11.3028273809524 2.6556712962963  11.4174107142857 2.55034722222222  Z M 21.7544642857143 5.72135416666667  C 21.9181547619048 5.98466435185185  22 6.24421296296296  22 6.5  C 22 6.75578703703704  21.9181547619048 7.01533564814815  21.7544642857143 7.27864583333333  C 20.608630952381 9.00896990740741  19.0678943452381 10.3951099537037  17.1322544642857 11.4370659722222  C 15.1966145833333 12.4790219907407  13.1525297619048 13  11 13  C 8.84747023809524 13  6.80338541666667 12.4771412037037  4.86774553571429 11.4314236111111  C 2.93210565476191 10.3857060185185  1.39136904761905 9.00144675925926  0.245535714285714 7.27864583333333  C 0.0818452380952381 7.01533564814815  0 6.75578703703704  0 6.5  C 0 6.24421296296296  0.0818452380952381 5.98466435185185  0.245535714285714 5.72135416666667  C 1.39136904761905 3.99855324074074  2.93210565476191 2.61429398148148  4.86774553571429 1.56857638888889  C 6.80338541666667 0.522858796296295  8.84747023809524 0  11 0  C 13.1525297619048 0  15.1966145833333 0.522858796296295  17.1322544642857 1.56857638888889  C 19.0678943452381 2.61429398148148  20.608630952381 3.99855324074074  21.7544642857143 5.72135416666667  Z " fill-rule="nonzero" fill="#000000" stroke="none" transform="matrix(1 0 0 1 108 210 )" />
  </g>
</svg>