<?xml version="1.0" encoding="utf-8"?>
<svg version="1.1" xmlns:xlink="http://www.w3.org/1999/xlink" width="10px" height="12px" xmlns="http://www.w3.org/2000/svg">
  <g transform="matrix(1 0 0 1 -369 -240 )">
    <path d="M 9.82817869415807 5.72344689378758  C 9.94272623138603 5.80360721442886  10 5.89579158316633  10 6  C 10 6.10420841683367  9.94272623138603 6.19639278557114  9.82817869415807 6.27655310621242  L 1.8213058419244 11.8797595190381  C 1.70675830469645 11.9599198396794  1.57502863688431 12  1.42611683848797 12  C 1.27720504009164 12  1.1454753722795 11.9599198396794  1.03092783505155 11.8797595190381  L 0.171821305841924 11.2785571142285  C 0.0572737686139748 11.1983967935872  0 11.1062124248497  0 11.002004008016  C 0 10.8977955911824  0.0572737686139748 10.8056112224449  0.171821305841924 10.7254509018036  L 6.92439862542955 6  L 0.171821305841924 1.27454909819639  C 0.0572737686139748 1.19438877755511  0 1.10220440881763  0 0.997995991983968  C 0 0.893787575150299  0.0572737686139748 0.801603206412824  0.171821305841924 0.721442885771542  L 1.03092783505155 0.120240480961924  C 1.1454753722795 0.0400801603206409  1.27720504009164 0  1.42611683848797 0  C 1.57502863688431 0  1.70675830469645 0.0400801603206409  1.8213058419244 0.120240480961924  L 9.82817869415807 5.72344689378758  Z " fill-rule="nonzero" fill="#000000" stroke="none" transform="matrix(1 0 0 1 369 240 )" />
  </g>
</svg>