<?xml version="1.0" encoding="utf-8"?>
<svg version="1.1" xmlns:xlink="http://www.w3.org/1999/xlink" width="16px" height="16px" xmlns="http://www.w3.org/2000/svg">
  <g transform="matrix(1 0 0 1 -346 -423 )">
    <path d="M 15.7109677419355 2.20875420875421  C 15.9036559139785 2.46015712682379  16 2.76543209876543  16 3.12457912457912  C 16 3.48372615039282  15.9036559139785 3.78900112233445  15.7109677419355 4.04040404040404  L 8.23741935483871 13.7912457912458  L 6.83354838709677 15.6228956228956  C 6.64086021505376 15.8742985409652  6.40688172043011 16  6.13161290322581 16  C 5.85634408602151 16  5.62236559139785 15.8742985409652  5.42967741935484 15.6228956228956  L 4.0258064516129 13.7912457912458  L 0.289032258064516 8.91582491582492  C 0.0963440860215055 8.66442199775533  0 8.35914702581369  0 8  C 0 7.64085297418631  0.0963440860215055 7.33557800224467  0.289032258064516 7.08417508417508  L 1.69290322580645 5.25252525252525  C 1.88559139784946 5.00112233445567  2.11956989247312 4.87542087542087  2.39483870967742 4.87542087542088  C 2.67010752688172 4.87542087542087  2.90408602150538 5.00112233445567  3.09677419354839 5.25252525252525  L 6.13161290322581 9.22558922558922  L 12.9032258064516 0.377104377104377  C 13.0959139784946 0.125701459034792  13.3298924731183 0  13.6051612903226 0  C 13.8804301075269 0  14.1144086021505 0.125701459034792  14.3070967741935 0.377104377104377  L 15.7109677419355 2.20875420875421  Z " fill-rule="nonzero" fill="#00bfbf" stroke="none" transform="matrix(1 0 0 1 346 423 )" />
  </g>
</svg>