<?xml version="1.0" encoding="utf-8"?>
<svg version="1.1" xmlns:xlink="http://www.w3.org/1999/xlink" width="65px" height="64px" xmlns="http://www.w3.org/2000/svg">
  <g transform="matrix(1 0 0 1 -29 -123 )">
    <path d="M 29 123  L 94 123  L 94 187  L 29 187  L 29 123  " fill-rule="nonzero" fill="#cccccc" stroke="none" />
    <path d="M 33 127  L 90 127  L 90 183  L 33 183  L 33 127  " fill-rule="nonzero" fill="#ffffff" stroke="none" />
    <path d="M 67.6 142.2  C 64.912 142.2  62.8 140.088  62.8 137.4  C 62.8 134.712  64.912 132.6  67.6 132.6  C 70.288 132.6  72.4 134.712  72.4 137.4  C 72.4 140.088  70.288 142.2  67.6 142.2  " fill-rule="nonzero" fill="#cccccc" stroke="none" />
    <path d="M 35 182  L 35 152.85  L 48.5 139.6  L 67.4 150.689230769231  L 78.2 147.55  L 89 150.689230769231  L 89 182  L 35 182  " fill-rule="nonzero" fill="#169bd5" stroke="none" />
  </g>
</svg>