<?xml version="1.0" encoding="utf-8"?>
<svg version="1.1" xmlns:xlink="http://www.w3.org/1999/xlink" width="17px" height="10px" xmlns="http://www.w3.org/2000/svg">
  <g transform="matrix(1 0 0 1 -106 -208 )">
    <path d="M 12.6219308035714 7.83420138888889  C 13.8899739583333 7.13107638888889  14.944568452381 6.18634259259259  15.7857142857143 5  C 14.8244047619048 3.63425925925926  13.6196056547619 2.61284722222222  12.1713169642857 1.93576388888889  C 12.5571056547619 2.53761574074074  12.75 3.18865740740741  12.75 3.88888888888889  C 12.75 4.95949074074074  12.3341703869048 5.87528935185185  11.5025111607143 6.63628472222222  C 10.6708519345238 7.39728009259259  9.67001488095238 7.77777777777778  8.5 7.77777777777778  C 7.32998511904762 7.77777777777778  6.32914806547619 7.39728009259259  5.49748883928571 6.63628472222222  C 4.66582961309524 5.87528935185185  4.25 4.95949074074074  4.25 3.88888888888889  C 4.25 3.18865740740741  4.4428943452381 2.53761574074074  4.82868303571429 1.93576388888889  C 3.3803943452381 2.61284722222222  2.17559523809524 3.63425925925926  1.21428571428571 5  C 2.05543154761905 6.18634259259259  3.11002604166667 7.13107638888889  4.37806919642857 7.83420138888889  C 5.64611235119048 8.53732638888889  7.02008928571429 8.88888888888889  8.5 8.88888888888889  C 9.97991071428571 8.88888888888889  11.3538876488095 8.53732638888889  12.6219308035714 7.83420138888889  Z M 8.82254464285714 1.96180555555556  C 8.91108630952381 1.88078703703704  8.95535714285714 1.78240740740741  8.95535714285714 1.66666666666667  C 8.95535714285714 1.55092592592593  8.91108630952381 1.4525462962963  8.82254464285714 1.37152777777778  C 8.73400297619048 1.29050925925926  8.62648809523809 1.25  8.5 1.25  C 7.70944940476191 1.25  7.03115699404762 1.50896990740741  6.46512276785714 2.02690972222222  C 5.89908854166667 2.54484953703704  5.61607142857143 3.16550925925926  5.61607142857143 3.88888888888889  C 5.61607142857143 4.00462962962963  5.66034226190476 4.10300925925926  5.74888392857143 4.18402777777778  C 5.8374255952381 4.2650462962963  5.94494047619048 4.30555555555556  6.07142857142857 4.30555555555556  C 6.19791666666667 4.30555555555556  6.30543154761905 4.2650462962963  6.39397321428571 4.18402777777778  C 6.48251488095238 4.10300925925926  6.52678571428571 4.00462962962963  6.52678571428571 3.88888888888889  C 6.52678571428571 3.3912037037037  6.71968005952381 2.96585648148148  7.10546875 2.61284722222222  C 7.49125744047619 2.25983796296296  7.95610119047619 2.08333333333333  8.5 2.08333333333333  C 8.62648809523809 2.08333333333333  8.73400297619048 2.04282407407407  8.82254464285714 1.96180555555556  Z M 16.8102678571429 4.40104166666667  C 16.936755952381 4.60358796296296  17 4.80324074074074  17 5  C 17 5.19675925925926  16.936755952381 5.39641203703704  16.8102678571429 5.59895833333333  C 15.9248511904762 6.92997685185185  14.7342819940476 7.99623842592593  13.2385602678571 8.79774305555556  C 11.7428385416667 9.59924768518519  10.163318452381 10  8.5 10  C 6.83668154761905 10  5.25716145833333 9.59780092592593  3.76143973214286 8.79340277777778  C 2.26571800595238 7.98900462962963  1.07514880952381 6.92418981481481  0.189732142857143 5.59895833333333  C 0.0632440476190476 5.39641203703704  0 5.19675925925926  0 5  C 0 4.80324074074074  0.0632440476190476 4.60358796296296  0.189732142857143 4.40104166666667  C 1.07514880952381 3.07581018518519  2.26571800595238 2.01099537037037  3.76143973214286 1.20659722222222  C 5.25716145833333 0.402199074074073  6.83668154761905 0  8.5 0  C 10.163318452381 0  11.7428385416667 0.402199074074073  13.2385602678571 1.20659722222222  C 14.7342819940476 2.01099537037037  15.9248511904762 3.07581018518519  16.8102678571429 4.40104166666667  Z " fill-rule="nonzero" fill="#000000" stroke="none" transform="matrix(1 0 0 1 106 208 )" />
  </g>
</svg>