<?xml version="1.0" encoding="utf-8"?>
<svg version="1.1" xmlns:xlink="http://www.w3.org/1999/xlink" width="14px" height="12px" xmlns="http://www.w3.org/2000/svg">
  <g transform="matrix(1 0 0 1 -162 -130 )">
    <path d="M 6.52914798206278 9  L 6.96860986547085 9  L 7.87892376681614 8.01136363636364  L 6.68609865470852 6.71590909090909  L 5.77578475336323 7.70454545454546  L 5.77578475336323 8.18181818181818  L 6.52914798206278 8.18181818181818  L 6.52914798206278 9  Z M 10.4136771300448 3.14488636363636  C 10.5026158445441 3.04829545454545  10.5052316890882 2.95454545454545  10.4215246636771 2.86363636363636  C 10.3378176382661 2.77272727272727  10.2514947683109 2.77556818181818  10.1625560538117 2.87215909090909  L 7.41591928251121 5.85511363636364  C 7.32698056801196 5.95170454545454  7.32436472346786 6.04545454545454  7.40807174887892 6.13636363636364  C 7.49177877428999 6.22727272727273  7.57810164424514 6.22443181818182  7.6670403587444 6.12784090909091  L 10.4136771300448 3.14488636363636  Z M 10.8923766816143 7.67897727272727  C 10.9970104633782 7.72443181818182  11.0493273542601 7.80681818181818  11.0493273542601 7.92613636363636  L 11.0493273542601 9.54545454545454  C 11.0493273542601 10.2215909090909  10.828288490284 10.7997159090909  10.3862107623318 11.2798295454545  C 9.94413303437967 11.7599431818182  9.4118086696562 12  8.78923766816144 12  L 2.26008968609865 12  C 1.63751868460389 12  1.10519431988042 11.7599431818182  0.663116591928251 11.2798295454545  C 0.221038863976084 10.7997159090909  0 10.2215909090909  0 9.54545454545454  L 0 2.45454545454546  C 0 1.77840909090909  0.221038863976084 1.20028409090909  0.663116591928251 0.720170454545455  C 1.10519431988042 0.240056818181817  1.63751868460389 0  2.26008968609865 0  L 8.78923766816144 0  C 9.11883408071749 0  9.42488789237668 0.0710227272727266  9.70739910313901 0.213068181818181  C 9.78587443946188 0.252840909090908  9.8329596412556 0.318181818181818  9.84865470852018 0.409090909090909  C 9.86434977578475 0.505681818181818  9.84080717488789 0.588068181818181  9.77802690582959 0.65625  L 9.39349775784753 1.07386363636364  C 9.32025411061286 1.15340909090909  9.23654708520179 1.17613636363636  9.14237668161435 1.14204545454546  C 9.02204783258595 1.10795454545454  8.90433482810164 1.09090909090909  8.78923766816144 1.09090909090909  L 2.26008968609865 1.09090909090909  C 1.91479820627803 1.09090909090909  1.61920777279522 1.22443181818182  1.37331838565022 1.49147727272727  C 1.12742899850523 1.75852272727273  1.00448430493274 2.07954545454546  1.00448430493274 2.45454545454546  L 1.00448430493274 9.54545454545454  C 1.00448430493274 9.92045454545454  1.12742899850523 10.2414772727273  1.37331838565022 10.5085227272727  C 1.61920777279522 10.7755681818182  1.91479820627803 10.9090909090909  2.26008968609865 10.9090909090909  L 8.78923766816144 10.9090909090909  C 9.13452914798206 10.9090909090909  9.43011958146487 10.7755681818182  9.67600896860987 10.5085227272727  C 9.92189835575486 10.2414772727273  10.0448430493274 9.92045454545454  10.0448430493274 9.54545454545454  L 10.0448430493274 8.47159090909091  C 10.0448430493274 8.39772727272727  10.0683856502242 8.33522727272727  10.1154708520179 8.28409090909091  L 10.6177130044843 7.73863636363636  C 10.6961883408072 7.65340909090909  10.7877428998505 7.63352272727273  10.8923766816143 7.67897727272727  Z M 5.02242152466368 7.36363636363636  L 10.2959641255605 1.63636363636364  L 12.5560538116592 4.09090909090909  L 7.28251121076233 9.81818181818182  L 5.02242152466368 9.81818181818182  L 5.02242152466368 7.36363636363636  Z M 14 2.18181818181818  C 14 2.40909090909091  13.9267563527653 2.60227272727273  13.780269058296 2.76136363636364  L 13.0582959641256 3.54545454545454  L 10.7982062780269 1.09090909090909  L 11.5201793721973 0.306818181818181  C 11.6666666666667 0.147727272727272  11.8445440956652 0.0681818181818188  12.0538116591928 0.0681818181818188  C 12.2630792227205 0.0681818181818188  12.440956651719 0.147727272727272  12.5874439461883 0.306818181818181  L 13.780269058296 1.60227272727273  C 13.9267563527653 1.76136363636363  14 1.95454545454545  14 2.18181818181818  Z " fill-rule="nonzero" fill="#000000" stroke="none" transform="matrix(1 0 0 1 162 130 )" />
  </g>
</svg>