<?xml version="1.0" encoding="utf-8"?>
<svg version="1.1" xmlns:xlink="http://www.w3.org/1999/xlink" width="31px" height="39px" xmlns="http://www.w3.org/2000/svg">
  <defs>
    <filter x="27px" y="1169px" width="31px" height="39px" filterUnits="userSpaceOnUse" id="filter1017">
      <feOffset dx="1" dy="1" in="SourceAlpha" result="shadowOffsetInner" />
      <feGaussianBlur stdDeviation="2.5" in="shadowOffsetInner" result="shadowGaussian" />
      <feComposite in2="shadowGaussian" operator="atop" in="SourceAlpha" result="shadowComposite" />
      <feColorMatrix type="matrix" values="0 0 0 0 0  0 0 0 0 0  0 0 0 0 0  0 0 0 0.698039215686274 0  " in="shadowComposite" />
    </filter>
    <g id="widget1018">
      <path d="M 41.5 1201.01368832522  C 37.5 1194.14303896936  31.5 1190.02064935585  31.5 1183.15  C 31.5 1179.56571428571  33.5 1173.5  41.5 1173.5  C 49.5 1173.5  51.5 1179.56571428571  51.5 1183.15  C 51.5 1190.02064935585  45.5 1194.14303896936  41.5 1201.01368832522  Z " fill-rule="nonzero" fill="#009dd9" stroke="none" />
      <path d="M 41.5 1202  C 37.3 1194.75  31 1190.4  31 1183.15  C 31 1179.38  33.1 1173  41.5 1173  C 49.9 1173  52 1179.38  52 1183.15  C 52 1190.4  45.7 1194.75  41.5 1202  Z M 41.5 1200.02737665043  C 45.3 1193.53607793873  51 1189.6412987117  51 1183.15  C 51 1179.75142857143  49.1 1174  41.5 1174  C 33.9 1174  32 1179.75142857143  32 1183.15  C 32 1189.6412987117  37.7 1193.53607793873  41.5 1200.02737665043  Z " fill-rule="nonzero" fill="#ffffff" stroke="none" />
    </g>
  </defs>
  <g transform="matrix(1 0 0 1 -27 -1169 )">
    <use xlink:href="#widget1018" filter="url(#filter1017)" />
    <use xlink:href="#widget1018" />
  </g>
</svg>