<?xml version="1.0" encoding="utf-8"?>
<svg version="1.1" xmlns:xlink="http://www.w3.org/1999/xlink" width="52px" height="49px" xmlns="http://www.w3.org/2000/svg">
  <g transform="matrix(1 0 0 1 -473 -618 )">
    <path d="M 473 618  L 525 618  L 525 667  L 473 667  L 473 618  " fill-rule="nonzero" fill="#cccccc" stroke="none" />
    <path d="M 476 621  L 522 621  L 522 664  L 476 664  L 476 621  " fill-rule="nonzero" fill="#ffffff" stroke="none" />
    <path d="M 503.715 632.7  C 501.657 632.7  500.04 631.083  500.04 629.025  C 500.04 626.967  501.657 625.35  503.715 625.35  C 505.773 625.35  507.39 626.967  507.39 629.025  C 507.39 631.083  505.773 632.7  503.715 632.7  " fill-rule="nonzero" fill="#cccccc" stroke="none" />
    <path d="M 477 663  L 477 640.45  L 488 630.2  L 503.4 639.819230769231  L 512.2 636.35  L 521 639.819230769231  L 521 663  L 477 663  " fill-rule="nonzero" fill="#169bd5" stroke="none" />
  </g>
</svg>