<?xml version="1.0" encoding="utf-8"?>
<svg version="1.1" xmlns:xlink="http://www.w3.org/1999/xlink" width="111px" height="104px" xmlns="http://www.w3.org/2000/svg">
  <g transform="matrix(1 0 0 1 -459 -310 )">
    <path d="M 21 75  L 31 75  L 31 85  L 21 85  L 21 75  Z M 21 19  L 30.2727272727273 19  L 30.2727272727273 29  L 21 29  L 21 19  Z M 80 19  L 90.8181818181818 19  L 90.8181818181818 29  L 80 29  L 80 19  Z M 10 66  L 10 94  L 41 94  L 41 66  L 10 66  Z M 10 10  L 10 38  L 41 38  L 41 10  L 10 10  Z M 70 10  L 70 38  L 101 38  L 101 10  L 70 10  Z M 0 56  L 51 56  L 51 104  L 0 104  L 0 56  Z M 80 94  L 90 94  L 90 104  L 80 104  L 80 94  Z M 101 94  L 111 94  L 111 104  L 101 104  L 101 94  Z M 101 56  L 111 56  L 111 85  L 80.7272727272727 85  L 80.7272727272727 75  L 70 75  L 70 104  L 60 104  L 60 56  L 90 56  L 90 66  L 101 66  L 101 56  Z M 0 0  L 51 0  L 51 48  L 0 48  L 0 0  Z M 60 0  L 111 0  L 111 48  L 60 48  L 60 0  Z " fill-rule="nonzero" fill="#000000" stroke="none" transform="matrix(1 0 0 1 459 310 )" />
  </g>
</svg>