<?xml version="1.0" encoding="utf-8"?>
<svg version="1.1" xmlns:xlink="http://www.w3.org/1999/xlink" width="27px" height="33px" xmlns="http://www.w3.org/2000/svg">
  <g transform="matrix(1 0 0 1 -1153 -678 )">
    <path d="M 26.3636363636364 24.6666666666667  C 26.7878787878788 25.1851851851852  27 25.8148148148148  27 26.5555555555556  C 27 27.2962962962963  26.7878787878788 27.9259259259259  26.3636363636364 28.4444444444444  L 23.2727272727273 32.2222222222222  C 22.8484848484849 32.7407407407407  22.3333333333333 33  21.7272727272727 33  C 21.1212121212121 33  20.6060606060606 32.7407407407407  20.1818181818182 32.2222222222222  L 13.5 24.0555555555556  L 6.81818181818182 32.2222222222222  C 6.39393939393939 32.7407407407407  5.87878787878788 33  5.27272727272727 33  C 4.66666666666667 33  4.15151515151515 32.7407407407407  3.72727272727273 32.2222222222222  L 0.636363636363636 28.4444444444444  C 0.212121212121212 27.9259259259259  0 27.2962962962963  0 26.5555555555556  C 0 25.8148148148148  0.212121212121212 25.1851851851852  0.636363636363636 24.6666666666667  L 7.31818181818182 16.5  L 0.636363636363636 8.33333333333333  C 0.212121212121212 7.81481481481481  0 7.18518518518519  0 6.44444444444444  C 0 5.7037037037037  0.212121212121212 5.07407407407407  0.636363636363636 4.55555555555556  L 3.72727272727273 0.777777777777778  C 4.15151515151515 0.259259259259258  4.66666666666667 0  5.27272727272727 0  C 5.87878787878788 0  6.39393939393939 0.259259259259258  6.81818181818182 0.777777777777778  L 13.5 8.94444444444445  L 20.1818181818182 0.777777777777778  C 20.6060606060606 0.259259259259258  21.1212121212121 0  21.7272727272727 0  C 22.3333333333333 0  22.8484848484849 0.259259259259258  23.2727272727273 0.777777777777778  L 26.3636363636364 4.55555555555556  C 26.7878787878788 5.07407407407407  27 5.7037037037037  27 6.44444444444444  C 27 7.18518518518519  26.7878787878788 7.81481481481481  26.3636363636364 8.33333333333333  L 19.6818181818182 16.5  L 26.3636363636364 24.6666666666667  Z " fill-rule="nonzero" fill="#000000" stroke="none" transform="matrix(1 0 0 1 1153 678 )" />
  </g>
</svg>