<?xml version="1.0" encoding="utf-8"?>
<svg version="1.1" xmlns:xlink="http://www.w3.org/1999/xlink" width="207px" height="217px" xmlns="http://www.w3.org/2000/svg">
  <g transform="matrix(1 0 0 1 -499 -318 )">
    <path d="M 38 157  L 57 157  L 57 177  L 38 177  L 38 157  Z M 38 40  L 57 40  L 57 60  L 38 60  L 38 40  Z M 150 40  L 169 40  L 169 60  L 150 60  L 150 40  Z M 19 138  L 19 197  L 76 197  L 76 138  L 19 138  Z M 19 20  L 19 79  L 76 79  L 76 20  L 19 20  Z M 131 20  L 131 79  L 188 79  L 188 20  L 131 20  Z M 0 118  L 94 118  L 94 217  L 0 217  L 0 118  Z M 150 197  L 169 197  L 169 217  L 150 217  L 150 197  Z M 188 197  L 207 197  L 207 217  L 188 217  L 188 197  Z M 188 118  L 207 118  L 207 177  L 150 177  L 150 157  L 131 157  L 131 217  L 113 217  L 113 118  L 169 118  L 169 138  L 188 138  L 188 118  Z M 0 0  L 94 0  L 94 99  L 0 99  L 0 0  Z M 113 0  L 207 0  L 207 99  L 113 99  L 113 0  Z " fill-rule="nonzero" fill="#000000" stroke="none" transform="matrix(1 0 0 1 499 318 )" />
  </g>
</svg>