<?xml version="1.0" encoding="utf-8"?>
<svg version="1.1" xmlns:xlink="http://www.w3.org/1999/xlink" width="111px" height="99px" xmlns="http://www.w3.org/2000/svg">
  <g transform="matrix(1 0 0 1 -236 -510 )">
    <path d="M 20.1818181818182 72  L 30.2727272727273 72  L 30.2727272727273 81  L 20.1818181818182 81  L 20.1818181818182 72  Z M 20.1818181818182 18  L 30.2727272727273 18  L 30.2727272727273 27  L 20.1818181818182 27  L 20.1818181818182 18  Z M 80.7272727272727 18  L 90.8181818181818 18  L 90.8181818181818 27  L 80.7272727272727 27  L 80.7272727272727 18  Z M 10 63  L 10 90  L 41 90  L 41 63  L 10 63  Z M 10 9  L 10 36  L 41 36  L 41 9  L 10 9  Z M 70 9  L 70 36  L 101 36  L 101 9  L 70 9  Z M 0 54  L 51 54  L 51 99  L 0 99  L 0 54  Z M 80.7272727272727 90  L 90.8181818181818 90  L 90.8181818181818 99  L 80.7272727272727 99  L 80.7272727272727 90  Z M 100.909090909091 90  L 111 90  L 111 99  L 100.909090909091 99  L 100.909090909091 90  Z M 100.909090909091 54  L 111 54  L 111 81  L 80.7272727272727 81  L 80.7272727272727 72  L 70 72  L 70 99  L 60 99  L 60 54  L 90.8181818181818 54  L 90.8181818181818 63  L 100.909090909091 63  L 100.909090909091 54  Z M 0 0  L 51 0  L 51 45  L 0 45  L 0 0  Z M 60 0  L 111 0  L 111 45  L 60 45  L 60 0  Z " fill-rule="nonzero" fill="#000000" stroke="none" transform="matrix(1 0 0 1 236 510 )" />
  </g>
</svg>