<?xml version="1.0" encoding="utf-8"?>
<svg version="1.1" xmlns:xlink="http://www.w3.org/1999/xlink" width="20px" height="20px" xmlns="http://www.w3.org/2000/svg">
  <g transform="matrix(1 0 0 1 -619 -332 )">
    <path d="M 629 332  C 634.6 332  639 336.4  639 342  C 639 347.6  634.6 352  629 352  C 623.4 352  619 347.6  619 342  C 619 336.4  623.4 332  629 332  Z " fill-rule="nonzero" fill="#aaaaaa" stroke="none" />
    <path d="M 629 332.5  C 634.32 332.5  638.5 336.68  638.5 342  C 638.5 347.32  634.32 351.5  629 351.5  C 623.68 351.5  619.5 347.32  619.5 342  C 619.5 336.68  623.68 332.5  629 332.5  Z " stroke-width="1" stroke="#797979" fill="none" />
  </g>
</svg>