<?xml version="1.0" encoding="utf-8"?>
<svg version="1.1" xmlns:xlink="http://www.w3.org/1999/xlink" width="20px" height="20px" xmlns="http://www.w3.org/2000/svg">
  <g transform="matrix(1 0 0 1 -568 -332 )">
    <path d="M 578 332  C 583.6 332  588 336.4  588 342  C 588 347.6  583.6 352  578 352  C 572.4 352  568 347.6  568 342  C 568 336.4  572.4 332  578 332  Z " fill-rule="nonzero" fill="#7f7f7f" stroke="none" />
    <path d="M 578 332.5  C 583.32 332.5  587.5 336.68  587.5 342  C 587.5 347.32  583.32 351.5  578 351.5  C 572.68 351.5  568.5 347.32  568.5 342  C 568.5 336.68  572.68 332.5  578 332.5  Z " stroke-width="1" stroke="#797979" fill="none" />
  </g>
</svg>