<?xml version="1.0" encoding="utf-8"?>
<svg version="1.1" xmlns:xlink="http://www.w3.org/1999/xlink" width="20px" height="20px" xmlns="http://www.w3.org/2000/svg">
  <g transform="matrix(1 0 0 1 -543 -332 )">
    <path d="M 553 332  C 558.6 332  563 336.4  563 342  C 563 347.6  558.6 352  553 352  C 547.4 352  543 347.6  543 342  C 543 336.4  547.4 332  553 332  Z " fill-rule="nonzero" fill="#333333" stroke="none" />
    <path d="M 553 332.5  C 558.32 332.5  562.5 336.68  562.5 342  C 562.5 347.32  558.32 351.5  553 351.5  C 547.68 351.5  543.5 347.32  543.5 342  C 543.5 336.68  547.68 332.5  553 332.5  Z " stroke-width="1" stroke="#797979" fill="none" />
  </g>
</svg>