<?xml version="1.0" encoding="utf-8"?>
<svg version="1.1" xmlns:xlink="http://www.w3.org/1999/xlink" width="27px" height="26px" xmlns="http://www.w3.org/2000/svg">
  <g transform="matrix(1 0 0 1 -305 -163 )">
    <path d="M 4.90909090909091 18.9090909090909  L 7.36363636363636 18.9090909090909  L 7.36363636363636 21.2727272727273  L 4.90909090909091 21.2727272727273  L 4.90909090909091 18.9090909090909  Z M 4.90909090909091 4.72727272727273  L 7.36363636363636 4.72727272727273  L 7.36363636363636 7.09090909090909  L 4.90909090909091 7.09090909090909  L 4.90909090909091 4.72727272727273  Z M 19.6363636363636 4.72727272727273  L 22.0909090909091 4.72727272727273  L 22.0909090909091 7.09090909090909  L 19.6363636363636 7.09090909090909  L 19.6363636363636 4.72727272727273  Z M 2.45454545454545 16.5454545454545  L 2.45454545454545 23.6178977272727  L 9.81818181818182 23.6178977272727  L 9.81818181818182 16.5454545454545  L 2.45454545454545 16.5454545454545  Z M 2.45454545454545 2.36363636363636  L 2.45454545454545 9.45454545454546  L 9.81818181818182 9.45454545454546  L 9.81818181818182 2.36363636363636  L 2.45454545454545 2.36363636363636  Z M 17.1818181818182 2.36363636363636  L 17.1818181818182 9.45454545454546  L 24.5454545454545 9.45454545454546  L 24.5454545454545 2.36363636363636  L 17.1818181818182 2.36363636363636  Z M 0 14  L 12.2727272727273 14  L 12.2727272727273 26  L 0 26  L 0 14  Z M 19.6363636363636 23.6363636363636  L 22.0909090909091 23.6363636363636  L 22.0909090909091 26  L 19.6363636363636 26  L 19.6363636363636 23.6363636363636  Z M 24.5454545454545 23.6363636363636  L 27 23.6363636363636  L 27 26  L 24.5454545454545 26  L 24.5454545454545 23.6363636363636  Z M 24.5454545454545 14.1818181818182  L 27 14.1818181818182  L 27 21.2727272727273  L 19.6363636363636 21.2727272727273  L 19.6363636363636 18.9090909090909  L 17.1818181818182 18.9090909090909  L 17.1818181818182 26  L 14.7272727272727 26  L 14.7272727272727 14.1818181818182  L 22.0909090909091 14.1818181818182  L 22.0909090909091 16.5454545454545  L 24.5454545454545 16.5454545454545  L 24.5454545454545 14.1818181818182  Z M 0 0  L 12.2727272727273 0  L 12.2727272727273 12  L 0 12  L 0 0  Z M 14.7272727272727 0  L 27 0  L 27 12  L 14.7272727272727 12  L 14.7272727272727 0  Z " fill-rule="nonzero" fill="#000000" stroke="none" transform="matrix(1 0 0 1 305 163 )" />
  </g>
</svg>